{
.appVersion = "3108";
.formatVersion = 3;
axes = (
{
name = Weight;
tag = wght;
}
);
classes = (
{
automatic = 1;

glyphs = (
{
color = 6;
glyphname = A;
kernLeft = A;
kernRight = A;
lastChange = "2022-02-18 13:14:15 +0000";
layers = (
{
anchors = (
{
name = bottom;
pos = (360,60);
},
{
name = ogonek;
pos = (704,0);
},
{
name = top;
pos = (360,780);
}
);
hints = (
{
horizontal = 1;
origin = (0,9);
target = up;
type = BottomGhost;
},
{
horizontal = 1;
origin = (1,3);
target = (1,2);
type = Stem;
},
{
horizontal = 1;
origin = (0,7);
target = (0,1);
type = Stem;
}
);
layerId = "D6DAFCCC-80B4-447A-AB8D-F3640E986932";
shapes = (
{
closed = 1;
nodes = (
(125,0,l),
(344,693,l),
(368,693,l),
(587,0,l),
(704,0,l),
(704,6,l),
(450,780,l),
(270,780,l),
(16,6,l),
(16,0,l)
);
},
{
closed = 1;
nodes = (
(531,227,l),
(500,321,l),
(212,321,l),
(181,227,l)
);
}
);
width = 720;
},
{
anchors = (
{
name = bottom;
pos = (375,60);
},
{
name = ogonek;
pos = (742,0);
},
{
name = top;
pos = (375,780);
}
);
layerId = "2C59C6D3-D4C2-4A05-8DF2-5125000072A2";
shapes = (
{
closed = 1;
nodes = (
(166,0,l),
(357,650,l),
(381,650,l),
(570,0,l),
(742,0,l),
(742,6,l),
(506,780,l),
(243,780,l),
(8,6,l),
(8,0,l)
);
},
{
closed = 1;
nodes = (
(535,195,l),
(500,321,l),
(238,321,l),
(203,195,l)
);
}
);
width = 750;
}
);
unicode = 65;
},
{
color = 6;
glyphname = AE;
kernLeft = A;
kernRight = A;
lastChange = "2022-02-18 13:14:15 +0000";
layers = (
{
anchors = (
{
name = bottom;
pos = (480,0);
},
{
name = top;
pos = (544,780);
}
);
background = {
shapes = (
{
closed = 1;
nodes = (
(125,0,l),
(344,693,l),
(368,693,l),
(587,0,l),
(704,0,l),
(704,2,l),
(450,780,l),
(270,780,l),
(16,2,l),
(16,0,l)
);
},
{
closed = 1;
nodes = (
(531,227,l),
(500,321,l),
(212,321,l),
(181,227,l)
);
}
);
};
hints = (
{
horizontal = 1;
origin = (0,9);
target = (2,2);
type = Stem;
},
{
horizontal = 1;
origin = (1,3);
target = (1,2);
type = Stem;
},
{
horizontal = 1;
origin = (3,3);
target = (3,2);
type = Stem;
},
{
horizontal = 1;
origin = (0,7);
target = (4,3);
type = Stem;
}
);
layerId = "D6DAFCCC-80B4-447A-AB8D-F3640E986932";
shapes = (
{
closed = 1;
nodes = (
(125,0,l),
(344,693,l),
(368,693,l),
(587,0,l),
(704,0,l),
(704,2,l),
(450,780,l),
(270,780,l),
(16,6,l),
(16,0,l)
);
},
{
closed = 1;
nodes = (
(531,227,l),
(500,321,l),
(212,321,l),
(181,227,l)
);
},
{
closed = 1;
nodes = (
(948,0,l),
(948,94,l),
(615,94,l),
(587,0,l)
);
},
{
closed = 1;
nodes = (
(840,375,l),
(841,465,l),
(496,465,l),
(495,375,l)
);
},
{
closed = 1;
nodes = (
(817,686,l),
(817,780,l),
(300,780,l),
(410,686,l)
);
}
);
width = 960;
},
{
anchors = (
{
name = bottom;
pos = (480,0);
},
{
name = top;
pos = (560,780);
}
);
layerId = "2C59C6D3-D4C2-4A05-8DF2-5125000072A2";
shapes = (
{
closed = 1;
nodes = (
(166,0,l),
(357,650,l),
(381,650,l),
(570,0,l),
(742,0,l),
(742,6,l),
(506,780,l),
(243,780,l),
(8,6,l),
(8,0,l)
);
},
{
closed = 1;
nodes = (
(535,195,l),
(500,321,l),
(238,321,l),
(203,195,l)
);
},
{
closed = 1;
nodes = (
(1008,0,l),
(1008,132,l),
(626,132,l),
(587,0,l)
);
},
{
closed = 1;
nodes = (
(900,354,l),
(901,476,l),
(496,476,l),
(495,354,l)
);
},
{
closed = 1;
nodes = (
(877,648,l),
(877,780,l),
(300,780,l),
(410,648,l)
);
}
);
width = 1020;
},
{
anchors = (
{
name = bottom;
pos = (475,0);
},
{
name = top;
pos = (475,780);
}
);
associatedMasterId = "D6DAFCCC-80B4-447A-AB8D-F3640E986932";
hints = (
{
horizontal = 1;
origin = (0,16);
target = (0,6);
type = Stem;
},
{
horizontal = 1;
origin = (0,1);
target = (1,3);
type = Stem;
},
{
horizontal = 1;
origin = (0,7);
target = (0,10);
type = Stem;
},
{
horizontal = 1;
origin = (0,14);
target = (0,11);
type = Stem;
}
);
layerId = "AC944549-D132-4DED-B615-04AC45C022C4";
name = "24 Aug 21, 13:13";
shapes = (
{
closed = 1;
nodes = (
(128,0,l),
(187,227,l),
(454,227,l),
(515,0,l),
(920,0,l),
(920,94,l),
(607,94,l),
(529,374,l),
(780,374,l),
(780,466,l),
(503,466,l),
(442,686,l),
(840,686,l),
(840,780,l),
(229,780,l),
(16,4,l),
(16,0,l)
);
},
{
closed = 1;
nodes = (
(312,693,l),
(328,693,l),
(428,321,l),
(213,321,l)
);
}
);
width = 950;
}
);
unicode = 198;
},
{
color = 6;
glyphname = B;
kernLeft = B;
kernRight = B;
lastChange = "2022-02-18 13:14:15 +0000";
layers = (
{
background = {
shapes = (
{
closed = 1;
nodes = (
(374,0,ls),
(569,0,o),
(660,92,o),
(660,228,cs),
(660,330,o),
(608,398,o),
(506,420,c),
(506,434,l),
(584,458,o),
(622,519,o),
(622,591,cs),
(622,705,o),
(538,780,o),
(356,780,cs),
(90,780,l),
(90,0,l)
);
},
{
closed = 1;
nodes = (
(199,375,l),
(373,375,ls),
(496,375,o),
(548,324,o),
(548,236,cs),
(548,145,o),
(496,94,o),
(373,94,cs),
(199,94,l)
);
},
{
closed = 1;
nodes = (
(199,686,l),
(358,686,ls),
(462,686,o),
(512,651,o),
(512,574,cs),
(512,497,o),
(462,462,o),
(358,462,cs),
(199,462,l)
);
}
);
};
hints = (
{
horizontal = 1;
origin = (0,15);
target = (1,8);
type = Stem;
},
{
horizontal = 1;
origin = (1,0);
target = (2,8);
type = Stem;
},
{
horizontal = 1;
origin = (0,14);
target = (2,0);
type = Stem;
},
{
origin = (0,15);
target = (1,8);
type = Stem;
},
{
origin = (1,4);
target = (0,3);
type = Stem;
}
);
layerId = "D6DAFCCC-80B4-447A-AB8D-F3640E986932";
shapes = (
{
closed = 1;
nodes = (
(374,0,ls),
(569,0,o),
(660,92,o),
(660,228,cs),
(660,330,o),
(608,398,o),
(508,415,c),
(508,439,l),
(586,458,o),
(624,519,o),
(624,591,cs),
(624,705,o),
(540,780,o),
(358,780,cs),
(90,780,l),
(90,0,l)
);
},
{
closed = 1;
nodes = (
(200,375,l),
(375,375,ls),
(496,375,o),
(548,323,o),
(548,234,cs),
(548,142,o),
(496,90,o),
(373,90,cs),
(200,90,l)
);
},
{
closed = 1;
nodes = (
(200,690,l),
(360,690,ls),
(464,690,o),
(514,654,o),
(514,576,cs),
(514,498,o),
(464,462,o),
(360,462,cs),
(200,462,l)
);
}
);
width = 700;
},
{
background = {
shapes = (
{
closed = 1;
nodes = (
(412,0,ls),
(618,0,o),
(702,91,o),
(702,228,cs),
(702,337,o),
(648,393,o),
(549,416,c),
(549,434,l),
(625,457,o),
(662,507,o),
(662,584,cs),
(662,704,o),
(580,780,o),
(386,780,cs),
(76,780,l),
(76,0,l)
);
},
{
closed = 1;
nodes = (
(236,348,l),
(390,348,ls),
(481,348,o),
(534,312,o),
(534,234,cs),
(534,163,o),
(491,120,o),
(390,120,cs),
(236,120,l)
);
},
{
closed = 1;
nodes = (
(236,660,l),
(374,660,ls),
(456,660,o),
(498,629,o),
(498,563,cs),
(498,496,o),
(450,466,o),
(374,466,cs),
(236,466,l)
);
}
);
};
hints = (
{
horizontal = 1;
origin = (0,15);
target = (1,8);
type = Stem;
},
{
horizontal = 1;
origin = (1,0);
target = (2,8);
type = Stem;
},
{
horizontal = 1;
origin = (0,14);
target = (2,0);
type = Stem;
},
{
origin = (0,15);
target = (1,8);
type = Stem;
},
{
origin = (1,4);
target = (0,3);
type = Stem;
}
);
layerId = "2C59C6D3-D4C2-4A05-8DF2-5125000072A2";
shapes = (
{
closed = 1;
nodes = (
(410,0,ls),
(616,0,o),
(700,91,o),
(700,228,cs),
(700,337,o),
(646,390,o),
(545,413,c),
(545,437,l),
(621,460,o),
(658,507,o),
(658,584,cs),
(658,704,o),
(576,780,o),
(382,780,cs),
(76,780,l),
(76,0,l)
);
},
{
closed = 1;
nodes = (
(236,348,l),
(388,348,ls),
(479,348,o),
(532,312,o),
(532,234,cs),
(532,163,o),
(489,120,o),
(388,120,cs),
(236,120,l)
);
},
{
closed = 1;
nodes = (
(236,660,l),
(370,660,ls),
(452,660,o),
(494,629,o),
(494,563,cs),
(494,496,o),
(446,466,o),
(370,466,cs),
(236,466,l)
);
}
);
width = 730;
},
{
associatedMasterId = "D6DAFCCC-80B4-447A-AB8D-F3640E986932";
background = {
shapes = (
{
closed = 1;
nodes = (
(374,0,ls),
(569,0,o),
(660,92,o),
(660,228,cs),
(660,330,o),
(608,398,o),
(506,420,c),
(506,434,l),
(584,458,o),
(622,519,o),
(622,591,cs),
(622,705,o),
(538,780,o),
(356,780,cs),
(90,780,l),
(90,0,l)
);
},
{
closed = 1;
nodes = (
(199,375,l),
(373,375,ls),
(496,375,o),
(548,324,o),
(548,236,cs),
(548,145,o),
(496,94,o),
(373,94,cs),
(199,94,l)
);
},
{
closed = 1;
nodes = (
(199,686,l),
(358,686,ls),
(462,686,o),
(512,651,o),
(512,574,cs),
(512,497,o),
(462,462,o),
(358,462,cs),
(199,462,l)
);
}
);
};
hints = (
{
horizontal = 1;
origin = (0,15);
target = (1,8);
type = Stem;
},
{
horizontal = 1;
origin = (1,0);
target = (2,8);
type = Stem;
},
{
horizontal = 1;
origin = (0,14);
target = (2,0);
type = Stem;
},
{
origin = (0,15);
target = (1,8);
type = Stem;
},
{
origin = (1,4);
target = (0,3);
type = Stem;
}
);
layerId = "2D1F55BC-46CD-4245-B259-F74B9F658346";
name = "20 Aug 21, 10:41";
shapes = (
{
closed = 1;
nodes = (
(374,0,ls),
(569,0,o),
(660,92,o),
(660,228,cs),
(660,330,o),
(608,398,o),
(506,420,c),
(506,434,l),
(584,458,o),
(622,519,o),
(622,591,cs),
(622,705,o),
(538,780,o),
(356,780,cs),
(90,780,l),
(90,0,l)
);
},
{
closed = 1;
nodes = (
(199,375,l),
(373,375,ls),
(496,375,o),
(548,324,o),
(548,236,cs),
(548,145,o),
(496,94,o),
(373,94,cs),
(199,94,l)
);
},
{
closed = 1;
nodes = (
(199,686,l),
(358,686,ls),
(462,686,o),
(512,651,o),
(512,574,cs),
(512,497,o),
(462,462,o),
(358,462,cs),
(199,462,l)
);
}
);
width = 700;
},
{
associatedMasterId = "2C59C6D3-D4C2-4A05-8DF2-5125000072A2";
background = {
shapes = (
{
closed = 1;
nodes = (
(412,0,ls),
(618,0,o),
(702,91,o),
(702,228,cs),
(702,337,o),
(648,393,o),
(549,416,c),
(549,434,l),
(625,457,o),
(662,507,o),
(662,584,cs),
(662,704,o),
(580,780,o),
(386,780,cs),
(76,780,l),
(76,0,l)
);
},
{
closed = 1;
nodes = (
(236,348,l),
(390,348,ls),
(481,348,o),
(534,312,o),
(534,234,cs),
(534,163,o),
(491,120,o),
(390,120,cs),
(236,120,l)
);
},
{
closed = 1;
nodes = (
(236,660,l),
(374,660,ls),
(456,660,o),
(498,629,o),
(498,563,cs),
(498,496,o),
(450,466,o),
(374,466,cs),
(236,466,l)
);
}
);
};
layerId = "B2FE71B8-6307-42DC-A0F5-1078DEE8BE79";
name = "20 Aug 21, 15:27";
shapes = (
{
closed = 1;
nodes = (
(412,0,ls),
(618,0,o),
(702,91,o),
(702,228,cs),
(702,337,o),
(648,393,o),
(549,416,c),
(549,434,l),
(625,457,o),
(662,507,o),
(662,584,cs),
(662,704,o),
(580,780,o),
(386,780,cs),
(76,780,l),
(76,0,l)
);
},
{
closed = 1;
nodes = (
(236,348,l),
(390,348,ls),
(481,348,o),
(534,312,o),
(534,234,cs),
(534,163,o),
(491,120,o),
(390,120,cs),
(236,120,l)
);
},
{
closed = 1;
nodes = (
(236,660,l),
(374,660,ls),
(456,660,o),
(498,629,o),
(498,563,cs),
(498,496,o),
(450,466,o),
(374,466,cs),
(236,466,l)
);
}
);
width = 730;
}
);
unicode = 66;
},
{
color = 6;
glyphname = C;
kernLeft = C;
kernRight = C;
lastChange = "2022-02-18 13:14:15 +0000";
layers = (
{
anchors = (
{
name = bottom;
pos = (385,0);
},
{
name = top;
pos = (385,780);
}
);
hints = (
{
horizontal = 1;
origin = (0,25);
target = (0,6);
type = Stem;
},
{
horizontal = 1;
origin = (0,19);
target = (0,12);
type = Stem;
},
{
origin = (0,22);
target = (0,9);
type = Stem;
},
{
origin = (0,15);
target = (0,16);
type = Stem;
},
{
horizontal = 1;
origin = (0,15);
target = up;
type = BottomGhost;
},
{
horizontal = 1;
origin = (0,3);
target = down;
type = TopGhost;
}
);
layerId = "D6DAFCCC-80B4-447A-AB8D-F3640E986932";
shapes = (
{
closed = 1;
nodes = (
(571,-15,o),
(686,99,o),
(703,270,c),
(590,270,l),
(579,159,o),
(506,75,o),
(381,75,cs),
(239,75,o),
(156,188,o),
(156,390,cs),
(156,590,o),
(237,705,o),
(382,705,cs),
(500,705,o),
(577,629,o),
(590,510,c),
(703,510,l),
(686,681,o),
(570,795,o),
(384,795,cs),
(170,795,o),
(42,647,o),
(42,390,cs),
(42,134,o),
(169,-15,o),
(384,-15,cs)
);
}
);
width = 740;
},
{
anchors = (
{
name = bottom;
pos = (385,0);
},
{
name = top;
pos = (385,780);
}
);
layerId = "2C59C6D3-D4C2-4A05-8DF2-5125000072A2";
shapes = (
{
closed = 1;
nodes = (
(592,-15,o),
(710,110,o),
(724,286,c),
(557,286,l),
(547,181,o),
(486,111,o),
(386,111,cs),
(270,111,o),
(204,204,o),
(204,389,cs),
(204,568,o),
(266,669,o),
(387,669,cs),
(483,669,o),
(546,603,o),
(557,494,c),
(724,494,l),
(710,670,o),
(591,795,o),
(386,795,cs),
(157,795,o),
(30,642,o),
(30,390,cs),
(30,135,o),
(160,-15,o),
(387,-15,cs)
);
}
);
width = 750;
}
);
unicode = 67;
},
{
color = 6;
glyphname = D;
kernLeft = B;
kernRight = D;
lastChange = "2022-02-18 13:14:15 +0000";
layers = (
{
anchors = (
{
name = bottom;
pos = (362,0);
},
{
name = center;
pos = (187,420);
},
{
name = top;
pos = (362,780);
}
);
hints = (
{
horizontal = 1;
origin = (0,8);
target = (1,8);
type = Stem;
},
{
horizontal = 1;
origin = (0,7);
target = (1,0);
type = Stem;
},
{
origin = (0,8);
target = (1,8);
type = Stem;
},
{
origin = (1,4);
target = (0,3);
type = Stem;
}
);
layerId = "D6DAFCCC-80B4-447A-AB8D-F3640E986932";
shapes = (
{
closed = 1;
nodes = (
(345,0,ls),
(614,0,o),
(728,143,o),
(728,390,cs),
(728,637,o),
(614,780,o),
(345,780,cs),
(90,780,l),
(90,0,l)
);
},
{
closed = 1;
nodes = (
(203,686,l),
(335,686,ls),
(537,686,o),
(614,589,o),
(614,390,cs),
(614,191,o),
(537,94,o),
(335,94,cs),
(203,94,l)
);
}
);
width = 770;
},
{
anchors = (
{
name = bottom;
pos = (361,0);
},
{
name = center;
pos = (220,420);
},
{
name = top;
pos = (361,780);
}
);
layerId = "2C59C6D3-D4C2-4A05-8DF2-5125000072A2";
shapes = (
{
closed = 1;
nodes = (
(354,0,ls),
(631,0,o),
(750,143,o),
(750,390,cs),
(750,637,o),
(631,780,o),
(354,780,cs),
(76,780,l),
(76,0,l)
);
},
{
closed = 1;
nodes = (
(244,650,l),
(344,650,ls),
(497,650,o),
(576,590,o),
(576,390,cs),
(576,190,o),
(497,130,o),
(344,130,cs),
(244,130,l)
);
}
);
width = 780;
}
);
unicode = 68;
},
{
color = 6;
glyphname = E;
kernLeft = B;
kernRight = E;
lastChange = "2022-02-18 13:14:15 +0000";
layers = (
{
anchors = (
{
name = bottom;
pos = (340,0);
},
{
name = ogonek;
pos = (596,0);
},
{
name = top;
pos = (340,780);
},
{
name = topleft;
pos = (18,780);
}
);
hints = (
{
horizontal = 1;
origin = (0,11);
target = (0,2);
type = Stem;
},
{
horizontal = 1;
origin = (0,3);
target = (0,6);
type = Stem;
},
{
horizontal = 1;
origin = (0,10);
target = (0,7);
type = Stem;
},
{
origin = (0,11);
target = (0,2);
type = Stem;
}
);
layerId = "D6DAFCCC-80B4-447A-AB8D-F3640E986932";
shapes = (
{
closed = 1;
nodes = (
(596,0,l),
(596,94,l),
(202,94,l),
(202,375,l),
(508,375,l),
(508,465,l),
(202,465,l),
(202,686,l),
(590,686,l),
(590,780,l),
(90,780,l),
(90,0,l)
);
}
);
width = 650;
},
{
anchors = (
{
name = bottom;
pos = (345,0);
},
{
name = ogonek;
pos = (614,0);
},
{
name = top;
pos = (342,780);
},
{
name = topleft;
pos = (17,780);
}
);
layerId = "2C59C6D3-D4C2-4A05-8DF2-5125000072A2";
shapes = (
{
closed = 1;
nodes = (
(614,0,l),
(614,132,l),
(242,132,l),
(242,354,l),
(524,354,l),
(524,476,l),
(242,476,l),
(242,648,l),
(608,648,l),
(608,780,l),
(76,780,l),
(76,0,l)
);
}
);
width = 660;
}
);
unicode = 69;
},
{
color = 6;
glyphname = Schwa;
kernLeft = C;
kernRight = D;
lastChange = "2022-02-18 13:14:15 +0000";
layers = (
{
anchors = (
{
name = bottom;
pos = (370,0);
},
{
name = top;
pos = (370,780);
}
);
background = {
shapes = (
{
closed = 1;
nodes = (
(634,-15,o),
(748,156,o),
(748,393,cs),
(748,630,o),
(635,795,o),
(398,795,cs),
(210,795,o),
(102,692,o),
(82,520,c),
(192,520,l),
(208,637,o),
(281,705,o),
(403,705,cs),
(560,705,o),
(634,584,o),
(634,394,cs),
(634,190,o),
(552,73,o),
(398,73,cs),
(267,73,o),
(192,155,o),
(185,292,c),
(440,292,l),
(440,382,l),
(80,382,l),
(80,0,l),
(170,0,l),
(170,96,l),
(194,96,l),
(224,36,o),
(286,-15,o),
(411,-15,cs)
);
}
);
};
guides = (
{
angle = 180;
pos = (653,520);
},
{
angle = 180;
pos = (530,412);
}
);
hints = (
{
horizontal = 1;
origin = (0,32);
target = (0,19);
type = Stem;
},
{
horizontal = 1;
origin = (0,23);
target = (0,26);
type = Stem;
},
{
horizontal = 1;
origin = (0,5);
target = (0,12);
type = Stem;
},
{
origin = (0,16);
target = (0,2);
type = Stem;
},
{
place = (608, 110);
place = (608, 110);
type = Stem;
},
{
horizontal = 1;
origin = (0,8);
target = up;
type = BottomGhost;
}
);
layerId = "D6DAFCCC-80B4-447A-AB8D-F3640E986932";
shapes = (
{
closed = 1;
nodes = (
(609,-14,o),
(718,143,o),
(718,390,cs),
(718,637,o),
(609,794,o),
(380,794,cs),
(196,794,o),
(88,691,o),
(54,520,c),
(170,520,l),
(191,638,o),
(262,704,o),
(380,704,cs),
(536,704,o),
(610,589,o),
(610,402,cs),
(610,378,ls),
(610,191,o),
(539,76,o),
(383,76,cs),
(226,76,o),
(150,191,o),
(150,390,c),
(120,322,l),
(668,322,l),
(668,412,l),
(42,412,l),
(42,405,o),
(42,397,o),
(42,390,cs),
(42,143,o),
(152,-14,o),
(380,-14,cs)
);
}
);
width = 760;
},
{
anchors = (
{
name = bottom;
pos = (329,0);
},
{
name = center;
pos = (379,390);
},
{
name = ogonek;
pos = (699,10);
},
{
name = top;
pos = (329,780);
},
{
name = topleft;
pos = (-1,780);
},
{
name = topright;
pos = (759,780);
}
);
associatedMasterId = "2C59C6D3-D4C2-4A05-8DF2-5125000072A2";
background = {
shapes = (
{
closed = 1;
nodes = (
(619,-15,o),
(749,135,o),
(749,390,cs),
(749,642,o),
(622,795,o),
(393,795,cs),
(188,795,o),
(69,670,o),
(55,494,c),
(222,494,l),
(233,603,o),
(296,669,o),
(392,669,cs),
(513,669,o),
(575,568,o),
(575,389,cs),
(575,204,o),
(509,111,o),
(393,111,cs),
(293,111,o),
(232,181,o),
(222,286,c),
(55,286,l),
(69,110,o),
(187,-15,o),
(392,-15,cs)
);
}
);
};
layerId = "F042EE73-E7F1-46D2-AAF6-BD30B0D4A14C";
name = "26 Aug 21, 10:13";
shapes = (
{
closed = 1;
nodes = (
(646,-15,o),
(749,188,o),
(749,390,cs),
(749,642,o),
(622,795,o),
(393,795,cs),
(188,795,o),
(69,670,o),
(55,494,c),
(222,494,l),
(233,603,o),
(296,669,o),
(392,669,cs),
(513,669,o),
(575,568,o),
(575,390,cs),
(575,242,o),
(526,111,o),
(385,111,cs),
(315,111,o),
(220,157,o),
(214,290,c),
(584,290,l),
(591,407,l),
(30,407,l),
(30,160,o),
(134,-15,o),
(392,-15,cs)
);
}
);
width = 780;
},
{
anchors = (
{
name = bottom;
pos = (375,0);
},
{
name = top;
pos = (375,780);
}
);
associatedMasterId = "2C59C6D3-D4C2-4A05-8DF2-5125000072A2";
background = {
shapes = (
{
closed = 1;
nodes = (
(162,795,o),
(44,670,o),
(30,494,c),
(197,494,l),
(207,599,o),
(268,669,o),
(368,669,cs),
(484,669,o),
(550,576,o),
(550,391,cs),
(550,212,o),
(488,111,o),
(367,111,cs),
(271,111,o),
(208,177,o),
(197,290,c),
(614,290,l),
(614,407,l),
(30,407,l),
(30,290,l),
(44,110,o),
(163,-15,o),
(368,-15,cs),
(597,-15,o),
(724,138,o),
(724,390,cs),
(724,645,o),
(594,795,o),
(367,795,cs)
);
}
);
};
layerId = "B0939050-6167-4E5F-8D6B-C13B7BC571F3";
name = "3 Sep 21, 08:52";
shapes = (
{
closed = 1;
nodes = (
(603,-15,o),
(720,149,o),
(720,396,cs),
(720,649,o),
(597,795,o),
(366,795,cs),
(161,795,o),
(52,682,o),
(30,521,c),
(190,521,l),
(205,615,o),
(269,669,o),
(367,669,cs),
(491,669,o),
(558,583,o),
(558,396,cs),
(558,212,o),
(499,111,o),
(376,111,cs),
(256,111,o),
(174,201,o),
(190,339,c),
(121,320,l),
(620,320,l),
(620,437,l),
(30,437,l),
(30,370,ls),
(30,109,o),
(160,-15,o),
(371,-15,cs)
);
}
);
width = 750;
},
{
anchors = (
{
name = bottom;
pos = (370,0);
},
{
name = top;
pos = (370,780);
}
);
associatedMasterId = "D6DAFCCC-80B4-447A-AB8D-F3640E986932";
background = {
shapes = (
{
closed = 1;
nodes = (
(613,294,l),
(613,381,l),
(42,381,l),
(42,287,l),
(60,106,o),
(183,-15,o),
(376,-15,cs),
(590,-15,o),
(718,133,o),
(718,390,cs),
(718,646,o),
(591,795,o),
(376,795,cs),
(188,795,o),
(77,692,o),
(57,520,c),
(167,520,l),
(183,637,o),
(259,705,o),
(379,705,cs),
(521,705,o),
(604,592,o),
(604,390,cs),
(604,190,o),
(523,75,o),
(378,75,cs),
(248,75,o),
(164,168,o),
(165,309,c),
(145,294,l)
);
}
);
};
layerId = "C725D64A-CFF6-4C10-8C70-268C0735DBA3";
name = "3 Sep 21, 09:00";
shapes = (
{
closed = 1;
nodes = (
(571,-15,o),
(698,132,o),
(698,395,cs),
(698,650,o),
(578,795,o),
(363,795,cs),
(173,795,o),
(63,683,o),
(42,520,c),
(152,520,l),
(170,635,o),
(251,705,o),
(365,705,cs),
(508,705,o),
(590,591,o),
(590,387,cs),
(590,182,o),
(507,75,o),
(369,75,cs),
(243,75,o),
(159,165,o),
(159,309,c),
(139,294,l),
(623,294,l),
(623,381,l),
(42,381,l),
(42,327,ls),
(42,105,o),
(179,-15,o),
(364,-15,cs)
);
}
);
width = 740;
},
{
anchors = (
{
name = bottom;
pos = (375,0);
},
{
name = top;
pos = (375,780);
}
);
associatedMasterId = "2C59C6D3-D4C2-4A05-8DF2-5125000072A2";
background = {
shapes = (
{
closed = 1;
nodes = (
(602,-14,o),
(726,147,o),
(726,392,cs),
(726,640,o),
(600,794,o),
(364,794,cs),
(161,794,o),
(57,681,o),
(35,520,c),
(195,520,l),
(211,616,o),
(269,668,o),
(366,668,cs),
(496,668,o),
(558,567,o),
(558,391,cs),
(558,211,o),
(492,110,o),
(362,110,cs),
(254,110,o),
(195,178,o),
(188,286,c),
(408,286,l),
(408,407,l),
(34,407,l),
(34,0,l),
(155,0,l),
(155,90,l),
(179,90,l),
(206,36,o),
(265,-14,o),
(388,-14,cs)
);
}
);
};
layerId = "08C9651F-9DA6-49D8-A000-40E62480E526";
name = "3 Sep 21, 09:01";
shapes = (
{
closed = 1;
nodes = (
(165,795,o),
(65,670,o),
(43,529,c),
(204,529,l),
(222,603,o),
(278,668,o),
(369,668,cs),
(484,668,o),
(551,581,o),
(562,439,c),
(34,439,l),
(34,395,ls),
(34,126,o),
(154,-15,o),
(372,-15,cs),
(600,-15,o),
(725,138,o),
(725,389,cs),
(725,639,o),
(601,795,o),
(370,795,cs)
);
},
{
closed = 1;
nodes = (
(547,180,o),
(478,111,o),
(373,111,cs),
(265,111,o),
(207,187,o),
(199,321,c),
(562,321,l)
);
}
);
width = 750;
},
{
anchors = (
{
name = bottom;
pos = (375,0);
},
{
name = top;
pos = (375,780);
}
);
background = {
shapes = (
{
closed = 1;
nodes = (
(628,-14,o),
(752,147,o),
(752,392,cs),
(752,640,o),
(626,794,o),
(390,794,cs),
(187,794,o),
(83,681,o),
(61,520,c),
(221,520,l),
(237,616,o),
(295,668,o),
(392,668,cs),
(522,668,o),
(584,567,o),
(584,391,cs),
(584,211,o),
(518,110,o),
(388,110,cs),
(280,110,o),
(221,178,o),
(214,286,c),
(434,286,l),
(434,407,l),
(60,407,l),
(60,0,l),
(181,0,l),
(181,90,l),
(205,90,l),
(232,36,o),
(291,-14,o),
(414,-14,cs)
);
}
);
};
guides = (
{
angle = 180;
pos = (641,520);
},
{
angle = 180;
pos = (535,407);
}
);
layerId = "2C59C6D3-D4C2-4A05-8DF2-5125000072A2";
name = Bold;
shapes = (
{
closed = 1;
nodes = (
(632,-14,o),
(750,146,o),
(750,393,cs),
(750,640,o),
(632,794,o),
(390,794,cs),
(190,794,o),
(79,691,o),
(48,520,c),
(216,520,l),
(236,616,o),
(296,668,o),
(393,668,cs),
(519,668,o),
(582,579,o),
(582,402,cs),
(582,378,ls),
(582,200,o),
(518,112,o),
(393,112,cs),
(260,112,o),
(198,212,o),
(198,390,c),
(143,322,l),
(625,322,l),
(625,437,l),
(30,437,l),
(30,421,o),
(30,406,o),
(30,390,cs),
(30,143,o),
(149,-14,o),
(390,-14,cs)
);
}
);
visible = 1;
width = 780;
}
);
unicode = 399;
},
{
color = 6;
glyphname = F;
kernLeft = B;
kernRight = F;
lastChange = "2022-02-18 13:14:15 +0000";
layers = (
{
hints = (
{
horizontal = 1;
origin = (0,9);
target = up;
type = BottomGhost;
},
{
horizontal = 1;
origin = (0,1);
target = (0,4);
type = Stem;
},
{
horizontal = 1;
origin = (0,8);
target = (0,5);
type = Stem;
},
{
origin = (0,9);
target = (0,0);
type = Stem;
}
);
layerId = "D6DAFCCC-80B4-447A-AB8D-F3640E986932";
shapes = (
{
closed = 1;
nodes = (
(202,0,l),
(202,371,l),
(514,371,l),
(514,461,l),
(202,461,l),
(202,686,l),
(596,686,l),
(596,780,l),
(90,780,l),
(90,0,l)
);
}
);
width = 620;
},
{
layerId = "2C59C6D3-D4C2-4A05-8DF2-5125000072A2";
shapes = (
{
closed = 1;
nodes = (
(242,0,l),
(242,349,l),
(506,349,l),
(506,471,l),
(242,471,l),
(242,648,l),
(590,648,l),
(590,780,l),
(76,780,l),
(76,0,l)
);
}
);
width = 620;
}
);
unicode = 70;
},
{
color = 6;
glyphname = G;
kernLeft = C;
kernRight = G;
lastChange = "2022-02-18 13:14:15 +0000";
layers = (
{
anchors = (
{
name = bottom;
pos = (391,0);
},
{
name = top;
pos = (391,780);
}
);
guides = (
{
angle = 180;
pos = (653,520);
},
{
angle = 180;
pos = (530,382);
}
);
hints = (
{
horizontal = 1;
origin = (0,8);
target = (0,7);
type = Stem;
},
{
horizontal = 1;
origin = (0,25);
target = (0,18);
type = Stem;
},
{
horizontal = 1;
origin = (0,4);
target = up;
type = BottomGhost;
},
{
origin = (0,28);
target = (0,15);
type = Stem;
},
{
origin = (0,9);
target = (0,6);
type = Stem;
},
{
horizontal = 1;
origin = (0,31);
target = (0,12);
type = Stem;
}
);
layerId = "D6DAFCCC-80B4-447A-AB8D-F3640E986932";
shapes = (
{
closed = 1;
nodes = (
(504,-15,o),
(566,36,o),
(596,96,c),
(620,96,l),
(620,0,l),
(710,0,l),
(710,382,l),
(350,382,l),
(350,292,l),
(605,292,l),
(598,155,o),
(523,73,o),
(392,73,cs),
(238,73,o),
(156,190,o),
(156,394,cs),
(156,584,o),
(230,705,o),
(387,705,cs),
(509,705,o),
(582,637,o),
(598,520,c),
(708,520,l),
(688,692,o),
(580,795,o),
(392,795,cs),
(155,795,o),
(42,630,o),
(42,393,cs),
(42,156,o),
(156,-15,o),
(379,-15,cs)
);
}
);
width = 790;
},
{
anchors = (
{
name = bottom;
pos = (389,0);
},
{
name = top;
pos = (392,780);
}
);
guides = (
{
angle = 180;
pos = (641,520);
},
{
angle = 180;
pos = (535,407);
}
);
layerId = "2C59C6D3-D4C2-4A05-8DF2-5125000072A2";
shapes = (
{
closed = 1;
nodes = (
(491,-14,o),
(550,36,o),
(577,90,c),
(601,90,l),
(601,0,l),
(722,0,l),
(722,407,l),
(348,407,l),
(348,286,l),
(568,286,l),
(561,178,o),
(502,110,o),
(394,110,cs),
(264,110,o),
(198,211,o),
(198,391,cs),
(198,567,o),
(260,668,o),
(390,668,cs),
(487,668,o),
(545,616,o),
(561,520,c),
(721,520,l),
(699,681,o),
(595,794,o),
(392,794,cs),
(156,794,o),
(30,640,o),
(30,392,cs),
(30,147,o),
(154,-14,o),
(368,-14,cs)
);
}
);
width = 780;
}
);
unicode = 71;
},
{
color = 6;
glyphname = H;
kernLeft = B;
kernRight = H;
lastChange = "2022-02-18 13:14:15 +0000";
layers = (
{
anchors = (
{
name = bottom;
pos = (400,0);
},
{
name = center;
pos = (400,600);
},
{
name = top;
pos = (400,780);
},
{
name = topleft;
pos = (20,780);
}
);
hints = (
{
horizontal = 1;
origin = (0,11);
target = up;
type = BottomGhost;
},
{
horizontal = 1;
origin = (0,1);
target = (0,8);
type = Stem;
},
{
horizontal = 1;
origin = (0,10);
target = down;
type = TopGhost;
},
{
origin = (0,11);
target = (0,0);
type = Stem;
},
{
origin = (0,3);
target = (0,4);
type = Stem;
}
);
layerId = "D6DAFCCC-80B4-447A-AB8D-F3640E986932";
shapes = (
{
closed = 1;
nodes = (
(202,0,l),
(202,373,l),
(598,373,l),
(598,0,l),
(710,0,l),
(710,780,l),
(598,780,l),
(598,467,l),
(202,467,l),
(202,780,l),
(90,780,l),
(90,0,l)
);
}
);
width = 800;
},
{
anchors = (
{
name = bottom;
pos = (410,0);
},
{
name = center;
pos = (410,600);
},
{
name = top;
pos = (410,780);
},
{
name = topleft;
pos = (17,780);
}
);
layerId = "2C59C6D3-D4C2-4A05-8DF2-5125000072A2";
shapes = (
{
closed = 1;
nodes = (
(244,0,l),
(244,347,l),
(576,347,l),
(576,0,l),
(744,0,l),
(744,780,l),
(576,780,l),
(576,483,l),
(244,483,l),
(244,780,l),
(76,780,l),
(76,0,l)
);
}
);
width = 820;
}
);
unicode = 72;
},
{
color = 6;
glyphname = I;
kernLeft = B;
kernRight = H;
lastChange = "2022-02-18 13:14:15 +0000";
layers = (
{
anchors = (
{
name = bottom;
pos = (151,0);
},
{
name = ogonek;
pos = (186,10);
},
{
name = top;
pos = (151,780);
},
{
name = topleft;
pos = (22,780);
}
);
hints = (
{
horizontal = 1;
origin = (0,3);
target = up;
type = BottomGhost;
},
{
horizontal = 1;
origin = (0,2);
target = down;
type = TopGhost;
},
{
origin = (0,3);
target = (0,0);
type = Stem;
}
);
layerId = "D6DAFCCC-80B4-447A-AB8D-F3640E986932";
shapes = (
{
closed = 1;
nodes = (
(206,0,l),
(206,780,l),
(94,780,l),
(94,0,l)
);
}
);
width = 300;
},
{
anchors = (
{
name = bottom;
pos = (160,0);
},
{
name = ogonek;
pos = (194,10);
},
{
name = top;
pos = (160,780);
},
{
name = topleft;
pos = (14,780);
}
);
layerId = "2C59C6D3-D4C2-4A05-8DF2-5125000072A2";
shapes = (
{
closed = 1;
nodes = (
(244,0,l),
(244,780,l),
(76,780,l),
(76,0,l)
);
}
);
width = 320;
}
);
unicode = 73;
},
{
color = 6;
glyphname = J;
kernLeft = B;
kernRight = H;
lastChange = "2022-02-18 13:14:15 +0000";
layers = (
{
anchors = (
{
name = bottom;
pos = (150,0);
},
{
name = top;
pos = (150,780);
}
);
hints = (
{
horizontal = 1;
origin = (0,5);
target = down;
type = TopGhost;
},
{
origin = (0,6);
target = (0,3);
type = Stem;
},
{
horizontal = 1;
origin = (0,0);
target = up;
type = BottomGhost;
}
);
layerId = "D6DAFCCC-80B4-447A-AB8D-F3640E986932";
shapes = (
{
closed = 1;
nodes = (
(133,-150,l),
(173,-90,o),
(210,-22,o),
(210,144,cs),
(210,780,l),
(98,780,l),
(98,144,ls),
(98,-10,o),
(56,-78,o),
(8,-144,c),
(8,-150,l)
);
}
);
width = 300;
},
{
anchors = (
{
name = bottom;
pos = (163,0);
},
{
name = top;
pos = (163,780);
}
);
layerId = "2C59C6D3-D4C2-4A05-8DF2-5125000072A2";
shapes = (
{
closed = 1;
nodes = (
(174,-150,l),
(210,-92,o),
(248,-24,o),
(248,138,cs),
(248,780,l),
(80,780,l),
(80,138,ls),
(80,-16,o),
(42,-74,o),
(-6,-144,c),
(-6,-150,l)
);
}
);
width = 326;
}
);
unicode = 74;
},
{
color = 6;
glyphname = K;
kernLeft = B;
kernRight = K;
lastChange = "2022-02-18 13:14:15 +0000";
layers = (
{
anchors = (
{
name = bottom;
pos = (360,60);
},
{
name = top;
pos = (350,780);
}
);
hints = (
{
horizontal = 1;
origin = (0,14);
target = up;
type = BottomGhost;
},
{
horizontal = 1;
origin = (0,1);
target = (0,11);
type = Stem;
},
{
horizontal = 1;
origin = (0,13);
target = down;
type = TopGhost;
},
{
origin = (0,14);
target = (0,0);
type = Stem;
}
);
layerId = "D6DAFCCC-80B4-447A-AB8D-F3640E986932";
shapes = (
{
closed = 1;
nodes = (
(200,0,l),
(200,350,l),
(260,350,l),
(536,0,l),
(672,0,l),
(672,6,l),
(348,407,l),
(647,774,l),
(647,780,l),
(522,780,l),
(260,450,l),
(200,450,l),
(200,780,l),
(90,780,l),
(90,0,l)
);
}
);
width = 690;
},
{
anchors = (
{
name = bottom;
pos = (384,60);
},
{
name = top;
pos = (372,780);
}
);
layerId = "2C59C6D3-D4C2-4A05-8DF2-5125000072A2";
shapes = (
{
closed = 1;
nodes = (
(240,0,l),
(240,348,l),
(300,348,l),
(554,0,l),
(754,0,l),
(754,6,l),
(440,422,l),
(710,774,l),
(710,780,l),
(524,780,l),
(300,480,l),
(240,480,l),
(240,780,l),
(76,780,l),
(76,0,l)
);
}
);
width = 760;
}
);
unicode = 75;
},
{
color = 6;
glyphname = L;
kernLeft = B;
kernRight = L;
lastChange = "2022-02-18 13:14:15 +0000";
layers = (
{
anchors = (
{
name = bottom;
pos = (330,0);
},
{
name = center;
pos = (383,390);
},
{
name = slash;
pos = (146,390);
},
{
name = top;
pos = (147,780);
},
{
name = topright;
pos = (203,780);
}
);
guides = (
{
angle = 90;
pos = (203,436);
}
);
hints = (
{
horizontal = 1;
origin = (0,5);
target = (0,2);
type = Stem;
},
{
horizontal = 1;
origin = (0,4);
target = down;
type = TopGhost;
},
{
origin = (0,5);
target = (0,2);
type = Stem;
}
);
layerId = "D6DAFCCC-80B4-447A-AB8D-F3640E986932";
shapes = (
{
closed = 1;
nodes = (
(570,0,l),
(570,94,l),
(202,94,l),
(202,780,l),
(90,780,l),
(90,0,l)
);
}
);
width = 600;
},
{
anchors = (
{
name = bottom;
pos = (327,0);
},
{
name = center;
pos = (422,390);
},
{
name = slash;
pos = (159,390);
},
{
name = top;
pos = (160,780);
},
{
name = topright;
pos = (242,780);
}
);
guides = (
{
angle = 90;
pos = (242,457);
}
);
layerId = "2C59C6D3-D4C2-4A05-8DF2-5125000072A2";
shapes = (
{
closed = 1;
nodes = (
(570,0,l),
(570,132,l),
(244,132,l),
(244,780,l),
(76,780,l),
(76,0,l)
);
}
);
width = 600;
}
);
unicode = 76;
},
{
color = 6;
glyphname = M;
kernLeft = B;
kernRight = H;
lastChange = "2022-02-18 13:14:15 +0000";
layers = (
{
hints = (
{
horizontal = 1;
origin = (0,15);
target = (0,12);
type = Stem;
},
{
horizontal = 1;
origin = (0,14);
target = (0,1);
type = Stem;
},
{
origin = (0,15);
target = (0,0);
type = Stem;
},
{
origin = (0,7);
target = (0,8);
type = Stem;
},
{
horizontal = 1;
origin = (0,15);
target = up;
type = BottomGhost;
},
{
horizontal = 1;
origin = (0,14);
target = down;
type = TopGhost;
}
);
layerId = "D6DAFCCC-80B4-447A-AB8D-F3640E986932";
shapes = (
{
closed = 1;
nodes = (
(192,0,l),
(192,684,l),
(216,684,l),
(420,0,l),
(600,0,l),
(804,684,l),
(828,684,l),
(828,0,l),
(940,0,l),
(940,780,l),
(736,780,l),
(525,90,l),
(501,90,l),
(294,780,l),
(90,780,l),
(90,0,l)
);
}
);
width = 1030;
},
{
layerId = "2C59C6D3-D4C2-4A05-8DF2-5125000072A2";
shapes = (
{
closed = 1;
nodes = (
(224,0,l),
(224,642,l),
(250,642,l),
(392,0,l),
(670,0,l),
(812,642,l),
(838,642,l),
(838,0,l),
(994,0,l),
(994,780,l),
(698,780,l),
(553,132,l),
(517,132,l),
(372,780,l),
(76,780,l),
(76,0,l)
);
}
);
width = 1070;
},
{
associatedMasterId = "D6DAFCCC-80B4-447A-AB8D-F3640E986932";
hints = (
{
horizontal = 1;
origin = (0,15);
target = (0,12);
type = Stem;
},
{
horizontal = 1;
origin = (0,14);
target = (0,1);
type = Stem;
},
{
origin = (0,15);
target = (0,0);
type = Stem;
},
{
origin = (0,7);
target = (0,8);
type = Stem;
}
);
layerId = "20C32E98-74A4-410A-9AB4-95AB2DDEE911";
name = "20 Aug 21, 13:39";
shapes = (
{
closed = 1;
nodes = (
(189,0,l),
(189,684,l),
(214,684,l),
(420,0,l),
(604,0,l),
(810,684,l),
(835,684,l),
(835,0,l),
(940,0,l),
(940,780,l),
(738,780,l),
(528,90,l),
(502,90,l),
(292,780,l),
(90,780,l),
(90,0,l)
);
}
);
width = 1030;
}
);
unicode = 77;
},
{
color = 6;
glyphname = N;
kernLeft = B;
kernRight = H;
lastChange = "2022-02-18 13:14:15 +0000";
layers = (
{
anchors = (
{
name = bottom;
pos = (410,0);
},
{
name = top;
pos = (410,780);
}
);
hints = (
{
horizontal = 1;
origin = (0,11);
target = (0,8);
type = Stem;
},
{
horizontal = 1;
origin = (0,10);
target = (0,1);
type = Stem;
},
{
origin = (0,11);
target = (0,0);
type = Stem;
},
{
origin = (0,7);
target = (0,4);
type = Stem;
},
{
horizontal = 1;
origin = (0,11);
target = up;
type = BottomGhost;
},
{
horizontal = 1;
origin = (0,10);
target = down;
type = TopGhost;
}
);
layerId = "D6DAFCCC-80B4-447A-AB8D-F3640E986932";
shapes = (
{
closed = 1;
nodes = (
(192,0,l),
(192,691,l),
(216,691,l),
(526,0,l),
(730,0,l),
(730,780,l),
(628,780,l),
(628,89,l),
(604,89,l),
(294,780,l),
(90,780,l),
(90,0,l)
);
}
);
width = 820;
},
{
anchors = (
{
name = bottom;
pos = (430,30);
},
{
name = top;
pos = (430,750);
}
);
layerId = "2C59C6D3-D4C2-4A05-8DF2-5125000072A2";
shapes = (
{
closed = 1;
nodes = (
(228,0,l),
(228,648,l),
(251,648,l),
(492,0,l),
(784,0,l),
(784,780,l),
(632,780,l),
(632,132,l),
(608,132,l),
(366,780,l),
(76,780,l),
(76,0,l)
);
}
);
width = 860;
}
);
unicode = 78;
},
{
color = 6;
glyphname = Eng;
kernLeft = B;
kernRight = H;
lastChange = "2022-02-18 13:14:15 +0000";
layers = (
{
anchors = (
{
name = bottom;
pos = (410,0);
},
{
name = top;
pos = (410,780);
}
);
hints = (
{
horizontal = 1;
origin = (0,10);
target = (0,7);
type = Stem;
},
{
horizontal = 1;
origin = (0,9);
target = (0,12);
type = Stem;
},
{
origin = (0,10);
target = (0,11);
type = Stem;
},
{
origin = (0,6);
target = (0,3);
type = Stem;
},
{
horizontal = 1;
origin = (0,10);
target = up;
type = BottomGhost;
},
{
horizontal = 1;
origin = (0,9);
target = down;
type = TopGhost;
}
);
layerId = "D6DAFCCC-80B4-447A-AB8D-F3640E986932";
shapes = (
{
closed = 1;
nodes = (
(657,-150,l),
(710,-66,o),
(730,-12,o),
(730,144,cs),
(730,780,l),
(628,780,l),
(628,89,l),
(604,89,l),
(294,780,l),
(90,780,l),
(90,0,l),
(192,0,l),
(192,691,l),
(216,691,l),
(526,0,l),
(655,0,l),
(623,49,l),
(611,-39,o),
(583,-88,o),
(544,-141,c),
(544,-150,l)
);
}
);
width = 820;
},
{
anchors = (
{
name = bottom;
pos = (430,30);
},
{
name = top;
pos = (430,750);
}
);
layerId = "2C59C6D3-D4C2-4A05-8DF2-5125000072A2";
shapes = (
{
closed = 1;
nodes = (
(723,-150,l),
(761,-84,o),
(784,-24,o),
(784,106,cs),
(784,780,l),
(632,780,l),
(632,132,l),
(608,132,l),
(366,780,l),
(76,780,l),
(76,0,l),
(228,0,l),
(228,648,l),
(251,648,l),
(492,0,l),
(716,0,l),
(632,126,l),
(632,-14,o),
(605,-73,o),
(561,-144,c),
(561,-150,l)
);
}
);
width = 860;
}
);
unicode = 330;
},
{
color = 6;
glyphname = O;
kernLeft = C;
kernRight = D;
lastChange = "2022-02-18 13:14:15 +0000";
layers = (
{
anchors = (
{
name = bottom;
pos = (395,0);
},
{
name = center;
pos = (395,390);
},
{
name = ogonek;
pos = (490,0);
},
{
name = top;
pos = (395,780);
},
{
name = topleft;
pos = (20,780);
},
{
name = topright;
pos = (770,780);
}
);
hints = (
{
horizontal = 1;
origin = (0,11);
target = (1,11);
type = Stem;
},
{
horizontal = 1;
origin = (0,5);
target = (1,5);
type = Stem;
},
{
origin = (0,8);
target = (1,2);
type = Stem;
},
{
origin = (1,8);
target = (0,2);
type = Stem;
}
);
layerId = "D6DAFCCC-80B4-447A-AB8D-F3640E986932";
shapes = (
{
closed = 1;
nodes = (
(634,-14,o),
(748,143,o),
(748,390,cs),
(748,637,o),
(634,794,o),
(395,794,cs),
(157,794,o),
(42,637,o),
(42,390,cs),
(42,143,o),
(157,-14,o),
(395,-14,cs)
);
},
{
closed = 1;
nodes = (
(232,76,o),
(156,191,o),
(156,390,cs),
(156,589,o),
(232,704,o),
(395,704,cs),
(557,704,o),
(634,589,o),
(634,390,cs),
(634,191,o),
(557,76,o),
(395,76,cs)
);
}
);
width = 790;
},
{
anchors = (
{
name = bottom;
pos = (400,0);
},
{
name = center;
pos = (400,390);
},
{
name = ogonek;
pos = (510,0);
},
{
name = top;
pos = (400,780);
},
{
name = topleft;
pos = (20,780);
},
{
name = topright;
pos = (780,780);
}
);
layerId = "2C59C6D3-D4C2-4A05-8DF2-5125000072A2";
shapes = (
{
closed = 1;
nodes = (
(650,-14,o),
(770,143,o),
(770,390,cs),
(770,637,o),
(650,794,o),
(400,794,cs),
(151,794,o),
(30,637,o),
(30,390,cs),
(30,143,o),
(151,-14,o),
(400,-14,cs)
);
},
{
closed = 1;
nodes = (
(265,112,o),
(204,212,o),
(204,390,cs),
(204,568,o),
(265,668,o),
(400,668,cs),
(535,668,o),
(596,568,o),
(596,390,cs),
(596,212,o),
(535,112,o),
(400,112,cs)
);
}
);
width = 800;
}
);
unicode = 79;
},
{
color = 6;
glyphname = Ohorn;
kernLeft = C;
kernRight = D;
lastChange = "2022-02-18 13:14:15 +0000";
layers = (
{
anchors = (
{
name = bottom;
pos = (395,0);
},
{
name = center;
pos = (395,390);
},
{
name = ogonek;
pos = (711,10);
},
{
name = top;
pos = (395,780);
},
{
name = topleft;
pos = (20,780);
}
);
hints = (
{
horizontal = 1;
origin = (0,22);
target = (1,11);
type = Stem;
},
{
horizontal = 1;
origin = (0,16);
target = (1,5);
type = Stem;
},
{
origin = (0,19);
target = (1,2);
type = Stem;
},
{
origin = (1,8);
target = (0,2);
type = Stem;
},
{
origin = (0,9);
target = (0,8);
type = Stem;
},
{
horizontal = 1;
origin = (0,9);
target = down;
type = TopGhost;
},
{
horizontal = 1;
origin = (0,13);
target = down;
type = TopGhost;
}
);
layerId = "D6DAFCCC-80B4-447A-AB8D-F3640E986932";
shapes = (
{
closed = 1;
nodes = (
(634,-14,o),
(748,143,o),
(748,390,cs),
(748,489,o),
(730,572,o),
(687,638,c),
(779,662,o),
(810,743,o),
(810,840,c),
(726,840,l),
(727,771,o),
(703,714,o),
(668,690,c),
(644,690,l),
(599,750,o),
(512,794,o),
(395,794,cs),
(157,794,o),
(42,637,o),
(42,390,cs),
(42,143,o),
(157,-14,o),
(395,-14,cs)
);
},
{
closed = 1;
nodes = (
(232,76,o),
(156,191,o),
(156,390,cs),
(156,589,o),
(232,704,o),
(395,704,cs),
(557,704,o),
(634,589,o),
(634,390,cs),
(634,191,o),
(557,76,o),
(395,76,cs)
);
}
);
width = 790;
},
{
anchors = (
{
name = bottom;
pos = (400,0);
},
{
name = center;
pos = (400,390);
},
{
name = ogonek;
pos = (720,10);
},
{
name = top;
pos = (400,780);
},
{
name = topleft;
pos = (20,780);
}
);
layerId = "2C59C6D3-D4C2-4A05-8DF2-5125000072A2";
shapes = (
{
closed = 1;
nodes = (
(650,-14,o),
(770,143,o),
(770,390,cs),
(770,486,o),
(752,568,o),
(709,633,c),
(806,662,o),
(837,733,o),
(837,840,c),
(716,840,l),
(716,786,o),
(693,745,o),
(661,720,c),
(637,720,l),
(583,768,o),
(502,794,o),
(400,794,cs),
(151,794,o),
(30,637,o),
(30,390,cs),
(30,143,o),
(151,-14,o),
(400,-14,cs)
);
},
{
closed = 1;
nodes = (
(265,112,o),
(204,212,o),
(204,390,cs),
(204,568,o),
(265,668,o),
(400,668,cs),
(535,668,o),
(596,568,o),
(596,390,cs),
(596,212,o),
(535,112,o),
(400,112,cs)
);
}
);
width = 800;
}
);
unicode = 416;
},
{
color = 6;
glyphname = Oslash;
kernLeft = C;
kernRight = D;
lastChange = "2022-02-18 13:14:15 +0000";
layers = (
{
anchors = (
{
name = _center;
pos = (395,390);
},
{
name = bottom;
pos = (395,0);
},
{
name = center;
pos = (395,390);
},
{
name = ogonek;
pos = (711,10);
},
{
name = top;
pos = (395,780);
},
{
name = topleft;
pos = (20,780);
},
{
name = topright;
pos = (770,780);
}
);
hints = (
{
horizontal = 1;
origin = (0,23);
target = (1,13);
type = Stem;
},
{
horizontal = 1;
origin = (0,11);
target = (2,5);
type = Stem;
},
{
origin = (0,14);
target = (2,2);
type = Stem;
},
{
origin = (1,10);
target = (0,2);
type = Stem;
}
);
layerId = "D6DAFCCC-80B4-447A-AB8D-F3640E986932";
shapes = (
{
closed = 1;
nodes = (
(634,-14,o),
(748,143,o),
(748,390,cs),
(748,502,o),
(725,595,o),
(677,664,c),
(757,758,l),
(700,808,l),
(626,720,l),
(569,768,o),
(492,794,o),
(395,794,cs),
(157,794,o),
(42,637,o),
(42,390,cs),
(42,278,o),
(65,185,o),
(113,116,c),
(33,22,l),
(90,-28,l),
(165,60,l),
(221,12,o),
(298,-14,o),
(395,-14,cs)
);
},
{
closed = 1;
nodes = (
(324,76,o),
(270,98,o),
(231,138,c),
(522,480,l),
(544,506,o),
(566,532,o),
(585,570,c),
(609,570,l),
(627,512,o),
(634,456,o),
(634,390,cs),
(634,191,o),
(557,76,o),
(395,76,cs)
);
},
{
closed = 1;
nodes = (
(164,268,o),
(156,324,o),
(156,390,cs),
(156,589,o),
(232,704,o),
(395,704,cs),
(465,704,o),
(520,682,o),
(559,641,c),
(268,300,ls),
(246,274,o),
(224,248,o),
(208,216,c),
(184,216,l)
);
}
);
width = 790;
},
{
anchors = (
{
name = _center;
pos = (400,390);
},
{
name = bottom;
pos = (400,0);
},
{
name = center;
pos = (400,390);
},
{
name = ogonek;
pos = (720,10);
},
{
name = top;
pos = (400,780);
},
{
name = topleft;
pos = (20,780);
},
{
name = topright;
pos = (780,780);
}
);
guides = (
{
pos = (514,442);
},
{
pos = (277,338);
}
);
layerId = "2C59C6D3-D4C2-4A05-8DF2-5125000072A2";
shapes = (
{
closed = 1;
nodes = (
(650,-14,o),
(770,143,o),
(770,390,cs),
(770,502,o),
(745,595,o),
(695,664,c),
(770,752,l),
(697,815,l),
(626,732,l),
(569,772,o),
(493,794,o),
(400,794,cs),
(151,794,o),
(30,637,o),
(30,390,cs),
(30,278,o),
(55,185,o),
(105,116,c),
(30,28,l),
(103,-35,l),
(174,49,l),
(231,8,o),
(307,-14,o),
(400,-14,cs)
);
},
{
closed = 1;
nodes = (
(344,112,o),
(301,129,o),
(270,162,c),
(508,442,ls),
(526,464,o),
(544,485,o),
(561,519,c),
(585,519,l),
(593,473,o),
(596,434,o),
(596,390,cs),
(596,212,o),
(535,112,o),
(400,112,cs)
);
},
{
closed = 1;
nodes = (
(206,307,o),
(204,346,o),
(204,390,cs),
(204,568,o),
(265,668,o),
(400,668,cs),
(456,668,o),
(499,651,o),
(530,618,c),
(292,338,ls),
(274,316,o),
(255,295,o),
(239,261,c),
(215,261,l)
);
}
);
width = 800;
}
);
unicode = 216;
},
{
color = 6;
glyphname = OE;
kernLeft = C;
kernRight = E;
lastChange = "2022-02-18 13:14:15 +0000";
layers = (
{
anchors = (
{
name = bottom;
pos = (520,0);
},
{
name = top;
pos = (520,780);
}
);
hints = (
{
horizontal = 1;
origin = (0,16);
target = (1,8);
type = Stem;
},
{
horizontal = 1;
origin = (0,3);
target = (0,6);
type = Stem;
},
{
horizontal = 1;
origin = (0,10);
target = (1,5);
type = Stem;
},
{
origin = (0,13);
target = (1,2);
type = Stem;
},
{
origin = (1,7);
target = (0,2);
type = Stem;
}
);
layerId = "D6DAFCCC-80B4-447A-AB8D-F3640E986932";
shapes = (
{
closed = 1;
nodes = (
(986,0,l),
(986,94,l),
(630,94,l),
(630,376,l),
(898,376,l),
(898,467,l),
(630,467,l),
(630,686,l),
(980,686,l),
(980,780,l),
(426,780,ls),
(156,780,o),
(42,637,o),
(42,390,cs),
(42,143,o),
(156,0,o),
(426,0,cs)
);
},
{
closed = 1;
nodes = (
(233,94,o),
(158,192,o),
(158,390,cs),
(158,588,o),
(233,686,o),
(436,686,cs),
(517,686,l),
(517,94,l),
(436,94,ls)
);
}
);
width = 1040;
},
{
anchors = (
{
name = bottom;
pos = (510,0);
},
{
name = top;
pos = (510,780);
}
);
layerId = "2C59C6D3-D4C2-4A05-8DF2-5125000072A2";
shapes = (
{
closed = 1;
nodes = (
(974,0,l),
(974,130,l),
(657,130,l),
(657,354,l),
(886,354,l),
(886,477,l),
(657,477,l),
(657,650,l),
(968,650,l),
(968,780,l),
(424,780,ls),
(149,780,o),
(30,637,o),
(30,390,cs),
(30,143,o),
(149,0,o),
(424,0,cs)
);
},
{
closed = 1;
nodes = (
(283,129,o),
(202,189,o),
(202,390,cs),
(202,588,o),
(280,651,o),
(434,651,cs),
(495,651,l),
(495,129,l),
(434,129,ls)
);
}
);
width = 1020;
}
);
unicode = 338;
},
{
color = 6;
glyphname = P;
kernLeft = B;
kernRight = P;
lastChange = "2022-02-18 13:14:15 +0000";
layers = (
{
hints = (
{
horizontal = 1;
origin = (0,10);
target = up;
type = BottomGhost;
},
{
horizontal = 1;
origin = (0,1);
target = (1,8);
type = Stem;
},
{
horizontal = 1;
origin = (0,9);
target = (1,0);
type = Stem;
},
{
origin = (0,10);
target = (0,0);
type = Stem;
},
{
origin = (1,4);
target = (0,5);
type = Stem;
}
);
layerId = "D6DAFCCC-80B4-447A-AB8D-F3640E986932";
shapes = (
{
closed = 1;
nodes = (
(202,0,l),
(202,328,l),
(368,328,ls),
(567,328,o),
(654,417,o),
(654,554,cs),
(654,691,o),
(567,780,o),
(368,780,cs),
(90,780,l),
(90,0,l)
);
},
{
closed = 1;
nodes = (
(202,690,l),
(363,690,ls),
(488,690,o),
(540,647,o),
(540,554,cs),
(540,461,o),
(488,418,o),
(363,418,cs),
(202,418,l)
);
}
);
width = 690;
},
{
layerId = "2C59C6D3-D4C2-4A05-8DF2-5125000072A2";
shapes = (
{
closed = 1;
nodes = (
(242,0,l),
(242,311,l),
(402,311,ls),
(603,311,o),
(690,403,o),
(690,546,cs),
(690,688,o),
(602,780,o),
(402,780,cs),
(76,780,l),
(76,0,l)
);
},
{
closed = 1;
nodes = (
(242,654,l),
(377,654,ls),
(468,654,o),
(522,625,o),
(522,545,cs),
(522,464,o),
(468,437,o),
(377,437,cs),
(242,437,l)
);
}
);
width = 720;
}
);
unicode = 80;
},
{
color = 6;
glyphname = Thorn;
kernLeft = B;
kernRight = Thorn;
lastChange = "2022-02-18 13:14:15 +0000";
layers = (
{
hints = (
{
horizontal = 1;
origin = (0,12);
target = up;
type = BottomGhost;
},
{
horizontal = 1;
origin = (0,1);
target = (1,8);
type = Stem;
},
{
horizontal = 1;
origin = (1,0);
target = (0,9);
type = Stem;
},
{
horizontal = 1;
origin = (0,11);
target = down;
type = TopGhost;
},
{
origin = (0,12);
target = (0,0);
type = Stem;
},
{
origin = (1,4);
target = (0,5);
type = Stem;
}
);
layerId = "D6DAFCCC-80B4-447A-AB8D-F3640E986932";
shapes = (
{
closed = 1;
nodes = (
(202,0,l),
(202,161,l),
(374,161,ls),
(573,161,o),
(660,253,o),
(660,395,cs),
(660,537,o),
(573,629,o),
(374,629,cs),
(202,629,l),
(202,780,l),
(90,780,l),
(90,0,l)
);
},
{
closed = 1;
nodes = (
(202,535,l),
(369,535,ls),
(494,535,o),
(545,490,o),
(545,394,cs),
(545,298,o),
(494,253,o),
(369,253,cs),
(202,253,l)
);
}
);
width = 696;
},
{
layerId = "2C59C6D3-D4C2-4A05-8DF2-5125000072A2";
shapes = (
{
closed = 1;
nodes = (
(244,0,l),
(244,158,l),
(404,158,ls),
(605,158,o),
(692,251,o),
(692,395,cs),
(692,539,o),
(604,632,o),
(404,632,cs),
(244,632,l),
(244,780,l),
(76,780,l),
(76,0,l)
);
},
{
closed = 1;
nodes = (
(244,505,l),
(377,505,ls),
(466,505,o),
(520,478,o),
(520,394,cs),
(520,310,o),
(466,283,o),
(377,283,cs),
(244,283,l)
);
}
);
width = 722;
}
);
metricLeft = H;
unicode = 222;
},
{
color = 6;
glyphname = Q;
kernLeft = C;
kernRight = D;
lastChange = "2022-02-18 13:14:15 +0000";
layers = (
{
hints = (
{
horizontal = 1;
origin = (0,11);
target = (1,11);
type = Stem;
},
{
horizontal = 1;
origin = (0,5);
target = (1,5);
type = Stem;
},
{
origin = (0,8);
target = (1,2);
type = Stem;
},
{
origin = (1,8);
target = (0,2);
type = Stem;
},
{
horizontal = 1;
origin = (2,4);
target = up;
type = BottomGhost;
}
);
layerId = "D6DAFCCC-80B4-447A-AB8D-F3640E986932";
shapes = (
{
closed = 1;
nodes = (
(634,-14,o),
(748,143,o),
(748,390,cs),
(748,637,o),
(634,794,o),
(395,794,cs),
(157,794,o),
(42,637,o),
(42,390,cs),
(42,143,o),
(157,-14,o),
(395,-14,cs)
);
},
{
closed = 1;
nodes = (
(232,76,o),
(156,191,o),
(156,390,cs),
(156,589,o),
(232,704,o),
(395,704,cs),
(557,704,o),
(634,589,o),
(634,390,cs),
(634,191,o),
(557,76,o),
(395,76,cs)
);
},
{
closed = 1;
nodes = (
(688,-150,l),
(688,-144,l),
(529,60,l),
(438,12,l),
(564,-150,l)
);
}
);
width = 790;
},
{
layerId = "2C59C6D3-D4C2-4A05-8DF2-5125000072A2";
shapes = (
{
closed = 1;
nodes = (
(650,-14,o),
(770,143,o),
(770,390,cs),
(770,637,o),
(650,794,o),
(400,794,cs),
(151,794,o),
(30,637,o),
(30,390,cs),
(30,143,o),
(151,-14,o),
(400,-14,cs)
);
},
{
closed = 1;
nodes = (
(265,112,o),
(204,212,o),
(204,390,cs),
(204,568,o),
(265,668,o),
(400,668,cs),
(535,668,o),
(596,568,o),
(596,390,cs),
(596,212,o),
(535,112,o),
(400,112,cs)
);
},
{
closed = 1;
nodes = (
(714,-150,l),
(714,-144,l),
(563,49,l),
(371,49,l),
(528,-150,l)
);
}
);
width = 800;
}
);
unicode = 81;
},
{
color = 6;
glyphname = R;
kernLeft = B;
kernRight = R;
lastChange = "2022-02-18 13:14:15 +0000";
layers = (
{
anchors = (
{
name = bottom;
pos = (372,60);
},
{
name = top;
pos = (330,780);
}
);
hints = (
{
horizontal = 1;
origin = (0,14);
target = up;
type = BottomGhost;
},
{
horizontal = 1;
origin = (0,1);
target = (1,8);
type = Stem;
},
{
horizontal = 1;
origin = (0,13);
target = (1,0);
type = Stem;
},
{
origin = (0,14);
target = (0,0);
type = Stem;
},
{
origin = (1,4);
target = (0,9);
type = Stem;
}
);
layerId = "D6DAFCCC-80B4-447A-AB8D-F3640E986932";
shapes = (
{
closed = 1;
nodes = (
(200,0,l),
(200,357,l),
(375,357,l),
(558,0,l),
(676,0,l),
(676,6,l),
(486,372,l),
(596,398,o),
(654,471,o),
(654,572,cs),
(654,687,o),
(578,780,o),
(381,780,cs),
(90,780,l),
(90,0,l)
);
},
{
closed = 1;
nodes = (
(200,690,l),
(374,690,ls),
(494,690,o),
(540,647,o),
(540,567,cs),
(540,488,o),
(494,443,o),
(374,443,cs),
(200,443,l)
);
}
);
width = 700;
},
{
anchors = (
{
name = bottom;
pos = (390,60);
},
{
name = top;
pos = (342,780);
}
);
layerId = "2C59C6D3-D4C2-4A05-8DF2-5125000072A2";
shapes = (
{
closed = 1;
nodes = (
(242,0,l),
(242,330,l),
(375,330,l),
(534,0,l),
(712,0,l),
(712,6,l),
(537,354,l),
(638,384,o),
(691,460,o),
(691,559,cs),
(691,688,o),
(606,780,o),
(407,780,cs),
(76,780,l),
(76,0,l)
);
},
{
closed = 1;
nodes = (
(242,654,l),
(383,654,ls),
(468,654,o),
(521,630,o),
(521,553,cs),
(521,477,o),
(470,452,o),
(383,452,cs),
(242,452,l)
);
}
);
width = 730;
},
{
anchors = (
{
name = bottom;
pos = (372,0);
},
{
name = top;
pos = (360,780);
}
);
associatedMasterId = "D6DAFCCC-80B4-447A-AB8D-F3640E986932";
hints = (
{
horizontal = 1;
origin = (0,14);
target = up;
type = BottomGhost;
},
{
horizontal = 1;
origin = (0,1);
target = (1,8);
type = Stem;
},
{
horizontal = 1;
origin = (0,13);
target = (1,0);
type = Stem;
},
{
origin = (0,14);
target = (0,0);
type = Stem;
},
{
origin = (1,4);
target = (0,9);
type = Stem;
}
);
layerId = "E7A5AE34-823D-40FF-A809-8A70F60E77A9";
name = "23 Aug 21, 08:03";
shapes = (
{
closed = 1;
nodes = (
(200,0,l),
(200,357,l),
(375,357,l),
(558,0,l),
(676,0,l),
(676,6,l),
(486,372,l),
(596,398,o),
(654,471,o),
(654,572,cs),
(654,687,o),
(578,780,o),
(381,780,cs),
(90,780,l),
(90,0,l)
);
},
{
closed = 1;
nodes = (
(200,684,l),
(374,684,ls),
(494,684,o),
(540,643,o),
(540,567,cs),
(540,492,o),
(494,449,o),
(374,449,cs),
(200,449,l)
);
}
);
width = 700;
}
);
unicode = 82;
},
{
color = 6;
glyphname = S;
kernLeft = S;
kernRight = S;
lastChange = "2022-02-18 13:14:15 +0000";
layers = (
{
anchors = (
{
name = bottom;
pos = (362,0);
},
{
name = top;
pos = (327,780);
}
);
background = {
shapes = (
{
closed = 1;
nodes = (
(520,-14,o),
(637,67,o),
(637,211,cs),
(637,493,o),
(185,404,o),
(185,598,cs),
(185,665,o),
(240,704,o),
(326,704,cs),
(442,704,o),
(488,634,o),
(494,560,c),
(602,560,l),
(593,687,o),
(511,794,o),
(330,794,cs),
(180,794,o),
(77,719,o),
(77,588,cs),
(77,315,o),
(529,398,o),
(529,200,cs),
(529,122,o),
(460,76,o),
(357,76,cs),
(213,76,o),
(145,167,o),
(139,260,c),
(31,260,l),
(41,106,o),
(146,-14,o),
(352,-14,cs)
);
}
);
};
guides = (
{
angle = 71.357;
pos = (303,366);
},
{
angle = 71.43;
pos = (411,438);
},
{
angle = 161.43;
pos = (411,438);
},
{
angle = 161.357;
pos = (303,366);
}
);
hints = (
{
horizontal = 1;
origin = (0,39);
target = (0,32);
type = Stem;
},
{
horizontal = 1;
origin = (0,19);
target = (0,12);
type = Stem;
},
{
origin = (0,22);
target = (0,9);
type = Stem;
},
{
origin = (0,29);
target = (0,2);
type = Stem;
},
{
horizontal = 1;
origin = (0,15);
target = up;
type = BottomGhost;
},
{
horizontal = 1;
origin = (0,36);
target = down;
type = TopGhost;
}
);
layerId = "D6DAFCCC-80B4-447A-AB8D-F3640E986932";
shapes = (
{
closed = 1;
nodes = (
(523,-15,o),
(632,67,o),
(632,211,cs),
(632,352,o),
(524,400,o),
(411,437,cs),
(335,462,ls),
(252,489,o),
(184,523,o),
(184,598,cs),
(184,665,o),
(239,705,o),
(325,705,cs),
(442,705,o),
(488,634,o),
(494,560,c),
(602,560,l),
(593,687,o),
(511,795,o),
(329,795,cs),
(179,795,o),
(76,719,o),
(76,588,cs),
(76,452,o),
(190,404,o),
(303,366,cs),
(378,341,ls),
(462,313,o),
(524,277,o),
(524,200,cs),
(524,122,o),
(463,75,o),
(362,75,cs),
(222,75,o),
(154,167,o),
(148,260,c),
(40,260,l),
(50,106,o),
(155,-15,o),
(357,-15,cs)
);
}
);
width = 680;
},
{
anchors = (
{
name = bottom;
pos = (355,0);
},
{
name = top;
pos = (340,780);
}
);
guides = (
{
angle = 71.357;
pos = (442,452);
},
{
angle = 71.357;
pos = (283,353);
},
{
angle = 161.357;
pos = (442,452);
},
{
angle = 161.357;
pos = (283,353);
}
);
layerId = "2C59C6D3-D4C2-4A05-8DF2-5125000072A2";
shapes = (
{
closed = 1;
nodes = (
(550,-15,o),
(658,73,o),
(658,219,cs),
(658,363,o),
(551,415,o),
(442,452,cs),
(329,490,ls),
(267,511,o),
(228,539,o),
(228,590,cs),
(228,637,o),
(263,671,o),
(336,671,cs),
(434,671,o),
(468,616,o),
(472,560,c),
(628,560,l),
(616,675,o),
(550,795,o),
(343,795,cs),
(180,795,o),
(66,719,o),
(66,579,cs),
(66,442,o),
(175,389,o),
(283,353,cs),
(396,315,ls),
(456,295,o),
(496,262,o),
(496,207,cs),
(496,149,o),
(454,111,o),
(368,111,cs),
(247,111,o),
(190,182,o),
(186,255,c),
(30,255,l),
(39,132,o),
(119,-15,o),
(363,-15,cs)
);
}
);
width = 700;
},
{
anchors = (
{
name = bottom;
pos = (362,0);
},
{
name = top;
pos = (327,780);
}
);
associatedMasterId = "D6DAFCCC-80B4-447A-AB8D-F3640E986932";
guides = (
{
angle = 71.357;
pos = (303,366);
},
{
angle = 71.43;
pos = (411,438);
},
{
angle = 161.43;
pos = (411,438);
},
{
angle = 161.357;
pos = (303,366);
}
);
hints = (
{
horizontal = 1;
origin = (0,31);
target = (0,24);
type = Stem;
},
{
horizontal = 1;
origin = (0,15);
target = (0,8);
type = Stem;
},
{
origin = (0,18);
target = (0,5);
type = Stem;
},
{
origin = (0,21);
target = (0,2);
type = Stem;
}
);
layerId = "0BC7384E-D1FC-4F17-9D08-24D4D26ECD1D";
name = "20 Aug 21, 13:47";
shapes = (
{
closed = 1;
nodes = (
(520,-14,o),
(637,67,o),
(637,211,cs),
(637,493,o),
(185,404,o),
(185,598,cs),
(185,665,o),
(240,704,o),
(326,704,cs),
(442,704,o),
(488,634,o),
(494,560,c),
(602,560,l),
(593,687,o),
(511,794,o),
(330,794,cs),
(180,794,o),
(77,719,o),
(77,588,cs),
(77,315,o),
(529,398,o),
(529,200,cs),
(529,122,o),
(460,76,o),
(357,76,cs),
(213,76,o),
(145,167,o),
(139,260,c),
(31,260,l),
(41,106,o),
(146,-14,o),
(352,-14,cs)
);
}
);
width = 680;
},
{
anchors = (
{
name = bottom;
pos = (355,0);
},
{
name = top;
pos = (340,780);
}
);
associatedMasterId = "2C59C6D3-D4C2-4A05-8DF2-5125000072A2";
layerId = "B2F0E2FB-C067-4DB7-94B2-4D40E5D623BE";
name = "20 Aug 21, 13:51";
shapes = (
{
closed = 1;
nodes = (
(550,-14,o),
(662,71,o),
(662,217,cs),
(662,505,o),
(223,429,o),
(223,590,cs),
(223,639,o),
(263,670,o),
(335,670,cs),
(431,670,o),
(465,616,o),
(469,555,c),
(627,555,l),
(615,675,o),
(549,794,o),
(343,794,cs),
(180,794,o),
(64,721,o),
(64,581,cs),
(64,307,o),
(503,378,o),
(503,204,cs),
(503,146,o),
(454,111,o),
(369,111,cs),
(249,111,o),
(192,182,o),
(188,255,c),
(30,255,l),
(39,132,o),
(119,-14,o),
(363,-14,cs)
);
}
);
width = 700;
}
);
unicode = 83;
},
{
color = 6;
glyphname = Germandbls;
kernLeft = Germandbls;
kernRight = Germandbls;
lastChange = "2022-02-18 13:14:15 +0000";
layers = (
{
hints = (
{
horizontal = 1;
origin = (0,40);
target = (0,33);
type = Stem;
},
{
horizontal = 1;
origin = (0,11);
target = (0,20);
type = Stem;
},
{
horizontal = 1;
origin = (0,15);
target = up;
type = BottomGhost;
},
{
origin = (0,15);
target = (0,16);
type = Stem;
},
{
origin = (0,26);
target = (0,5);
type = Stem;
},
{
origin = (0,30);
target = (0,2);
type = Stem;
}
);
layerId = "D6DAFCCC-80B4-447A-AB8D-F3640E986932";
shapes = (
{
closed = 1;
nodes = (
(728,-13,o),
(832,88,o),
(832,235,cs),
(832,355,o),
(763,438,o),
(612,466,c),
(612,490,l),
(756,638,l),
(756,724,l),
(661,771,o),
(568,794,o),
(459,794,cs),
(135,794,o),
(84,598,o),
(84,441,cs),
(84,0,l),
(195,0,l),
(195,438,ls),
(195,581,o),
(252,708,o),
(455,708,cs),
(532,708,o),
(597,690,o),
(641,668,c),
(641,644,l),
(492,486,l),
(492,396,l),
(520,396,ls),
(648,396,o),
(724,332,o),
(724,228,cs),
(724,143,o),
(673,77,o),
(571,77,cs),
(466,77,o),
(400,146,o),
(390,240,c),
(282,240,l),
(287,129,o),
(370,-13,o),
(564,-13,cs)
);
}
);
width = 880;
},
{
layerId = "2C59C6D3-D4C2-4A05-8DF2-5125000072A2";
shapes = (
{
closed = 1;
nodes = (
(758,-13,o),
(868,84,o),
(868,232,cs),
(868,357,o),
(789,429,o),
(673,449,c),
(673,473,l),
(801,607,l),
(801,717,l),
(722,765,o),
(624,794,o),
(482,794,cs),
(211,794,o),
(75,679,o),
(74,432,cs),
(72,0,l),
(238,0,l),
(238,427,ls),
(238,586,o),
(327,668,o),
(475,668,cs),
(553,668,o),
(604,653,o),
(642,632,c),
(641,609,l),
(505,470,l),
(505,360,l),
(539,360,ls),
(642,360,o),
(711,312,o),
(711,229,cs),
(711,165,o),
(670,113,o),
(588,113,cs),
(500,113,o),
(456,173,o),
(451,240,c),
(298,240,l),
(298,110,o),
(392,-13,o),
(586,-13,cs)
);
}
);
width = 910;
}
);
unicode = 7838;
},
{
color = 6;
glyphname = T;
kernLeft = T;
kernRight = T;
lastChange = "2022-02-18 13:14:15 +0000";
layers = (
{
anchors = (
{
name = bottom;
pos = (345,0);
},
{
name = center;
pos = (345,416);
},
{
name = top;
pos = (345,780);
}
);
hints = (
{
horizontal = 1;
origin = (0,7);
target = up;
type = BottomGhost;
},
{
horizontal = 1;
origin = (0,4);
target = (0,5);
type = Stem;
},
{
origin = (0,7);
target = (0,0);
type = Stem;
}
);
layerId = "D6DAFCCC-80B4-447A-AB8D-F3640E986932";
shapes = (
{
closed = 1;
nodes = (
(401,0,l),
(401,686,l),
(660,686,l),
(660,780,l),
(30,780,l),
(30,686,l),
(289,686,l),
(289,0,l)
);
}
);
width = 690;
},
{
anchors = (
{
name = bottom;
pos = (345,0);
},
{
name = center;
pos = (345,410);
},
{
name = top;
pos = (345,780);
}
);
layerId = "2C59C6D3-D4C2-4A05-8DF2-5125000072A2";
shapes = (
{
closed = 1;
nodes = (
(429,0,l),
(429,648,l),
(660,648,l),
(660,780,l),
(30,780,l),
(30,648,l),
(261,648,l),
(261,0,l)
);
}
);
width = 690;
}
);
unicode = 84;
},
{
color = 6;
glyphname = U;
kernLeft = U;
kernRight = U;
lastChange = "2022-02-18 13:14:15 +0000";
layers = (
{
anchors = (
{
name = bottom;
pos = (390,0);
},
{
name = ogonek;
pos = (498,0);
},
{
name = top;
pos = (390,720);
},
{
name = topright;
pos = (698,780);
}
);
hints = (
{
horizontal = 1;
origin = (0,17);
target = (0,8);
type = Stem;
},
{
horizontal = 1;
origin = (0,13);
target = down;
type = TopGhost;
},
{
origin = (0,14);
target = (0,11);
type = Stem;
},
{
origin = (0,5);
target = (0,2);
type = Stem;
}
);
layerId = "D6DAFCCC-80B4-447A-AB8D-F3640E986932";
shapes = (
{
closed = 1;
nodes = (
(605,-14,o),
(698,105,o),
(698,323,cs),
(698,780,l),
(588,780,l),
(588,318,ls),
(588,150,o),
(527,76,o),
(391,76,cs),
(255,76,o),
(194,150,o),
(194,318,cs),
(194,780,l),
(80,780,l),
(80,323,ls),
(80,105,o),
(175,-14,o),
(389,-14,cs)
);
}
);
width = 780;
},
{
anchors = (
{
name = bottom;
pos = (401,0);
},
{
name = ogonek;
pos = (519,0);
},
{
name = top;
pos = (401,780);
},
{
name = topright;
pos = (740,780);
}
);
layerId = "2C59C6D3-D4C2-4A05-8DF2-5125000072A2";
shapes = (
{
closed = 1;
nodes = (
(627,-15,o),
(734,105,o),
(734,323,cs),
(734,780,l),
(568,780,l),
(568,328,ls),
(568,200,o),
(527,124,o),
(402,124,cs),
(278,124,o),
(236,200,o),
(236,328,cs),
(236,780,l),
(66,780,l),
(66,323,ls),
(66,105,o),
(175,-15,o),
(400,-15,cs)
);
}
);
width = 800;
}
);
unicode = 85;
},
{
color = 6;
glyphname = Uhorn;
kernLeft = U;
kernRight = U;
lastChange = "2022-02-18 13:14:15 +0000";
layers = (
{
anchors = (
{
name = bottom;
pos = (390,0);
},
{
name = top;
pos = (390,720);
}
);
hints = (
{
horizontal = 1;
origin = (0,27);
target = (0,18);
type = Stem;
},
{
horizontal = 1;
origin = (0,23);
target = down;
type = TopGhost;
},
{
origin = (0,24);
target = (0,21);
type = Stem;
},
{
origin = (0,15);
target = (0,2);
type = Stem;
},
{
origin = (0,8);
target = (0,7);
type = Stem;
},
{
horizontal = 1;
origin = (0,8);
target = down;
type = TopGhost;
},
{
horizontal = 1;
origin = (0,12);
target = down;
type = TopGhost;
}
);
layerId = "D6DAFCCC-80B4-447A-AB8D-F3640E986932";
shapes = (
{
closed = 1;
nodes = (
(605,-14,o),
(698,105,o),
(698,323,cs),
(698,633,l),
(708,634,ls),
(816,645,o),
(860,731,o),
(860,840,c),
(776,840,l),
(776,773,o),
(757,708,o),
(713,690,c),
(689,690,l),
(689,780,l),
(588,780,l),
(588,318,ls),
(588,150,o),
(527,76,o),
(391,76,cs),
(255,76,o),
(194,150,o),
(194,318,cs),
(194,780,l),
(80,780,l),
(80,323,ls),
(80,105,o),
(175,-14,o),
(389,-14,cs)
);
}
);
width = 840;
},
{
anchors = (
{
name = bottom;
pos = (410,0);
},
{
name = top;
pos = (410,780);
}
);
layerId = "2C59C6D3-D4C2-4A05-8DF2-5125000072A2";
shapes = (
{
closed = 1;
nodes = (
(627,-15,o),
(734,105,o),
(734,323,cs),
(734,624,l),
(740,624,ls),
(851,624,o),
(907,710,o),
(896,840,c),
(775,840,l),
(777,786,o),
(770,744,o),
(738,724,c),
(714,724,l),
(714,780,l),
(568,780,l),
(568,328,ls),
(568,200,o),
(527,124,o),
(402,124,cs),
(278,124,o),
(236,200,o),
(236,328,cs),
(236,780,l),
(66,780,l),
(66,323,ls),
(66,105,o),
(175,-15,o),
(400,-15,cs)
);
}
);
width = 860;
}
);
unicode = 431;
},
{
color = 6;
glyphname = V;
kernLeft = V;
kernRight = V;
lastChange = "2022-02-18 13:14:15 +0000";
layers = (
{
hints = (
{
horizontal = 1;
origin = (0,9);
target = (0,5);
type = Stem;
},
{
horizontal = 1;
origin = (0,7);
target = down;
type = TopGhost;
},
{
horizontal = 1;
origin = (0,9);
target = up;
type = BottomGhost;
}
);
layerId = "D6DAFCCC-80B4-447A-AB8D-F3640E986932";
shapes = (
{
closed = 1;
nodes = (
(454,0,l),
(704,774,l),
(704,780,l),
(594,780,l),
(377,96,l),
(353,96,l),
(134,780,l),
(16,780,l),
(16,774,l),
(266,0,l)
);
}
);
width = 720;
},
{
layerId = "2C59C6D3-D4C2-4A05-8DF2-5125000072A2";
shapes = (
{
closed = 1;
nodes = (
(507,0,l),
(742,774,l),
(742,780,l),
(580,780,l),
(392,144,l),
(368,144,l),
(178,780,l),
(8,780,l),
(8,774,l),
(243,0,l)
);
}
);
width = 750;
}
);
unicode = 86;
},
{
color = 6;
glyphname = W;
kernLeft = W;
kernRight = W;
lastChange = "2022-02-18 13:14:15 +0000";
layers = (
{
anchors = (
{
name = bottom;
pos = (541,0);
},
{
name = top;
pos = (543,780);
}
);
hints = (
{
horizontal = 1;
origin = (0,17);
target = (0,13);
type = Stem;
},
{
horizontal = 1;
origin = (0,15);
target = (0,1);
type = Stem;
},
{
horizontal = 1;
origin = (0,14);
target = down;
type = TopGhost;
},
{
horizontal = 1;
origin = (0,17);
target = up;
type = BottomGhost;
}
);
layerId = "D6DAFCCC-80B4-447A-AB8D-F3640E986932";
shapes = (
{
closed = 1;
nodes = (
(376,0,l),
(528,695,l),
(552,695,l),
(705,0,l),
(900,0,l),
(1047,774,l),
(1047,780,l),
(943,780,l),
(815,84,l),
(791,84,l),
(638,780,l),
(448,780,l),
(297,84,l),
(273,84,l),
(143,780,l),
(33,780,l),
(33,774,l),
(182,0,l)
);
}
);
width = 1080;
},
{
anchors = (
{
name = bottom;
pos = (555,0);
},
{
name = top;
pos = (560,780);
}
);
layerId = "2C59C6D3-D4C2-4A05-8DF2-5125000072A2";
shapes = (
{
closed = 1;
nodes = (
(431,0,l),
(543,648,l),
(567,648,l),
(679,0,l),
(969,0,l),
(1082,774,l),
(1082,780,l),
(928,780,l),
(836,132,l),
(812,132,l),
(699,780,l),
(421,780,l),
(309,132,l),
(285,132,l),
(192,780,l),
(28,780,l),
(28,774,l),
(141,0,l)
);
}
);
width = 1110;
}
);
unicode = 87;
},
{
color = 6;
glyphname = X;
kernLeft = X;
kernRight = X;
lastChange = "2022-02-18 13:14:15 +0000";
layers = (
{
hints = (
{
horizontal = 1;
origin = (0,17);
target = up;
type = BottomGhost;
},
{
horizontal = 1;
origin = (0,13);
target = down;
type = TopGhost;
}
);
layerId = "D6DAFCCC-80B4-447A-AB8D-F3640E986932";
shapes = (
{
closed = 1;
nodes = (
(142,0,l),
(343,344,l),
(363,344,l),
(566,0,l),
(692,0,l),
(692,6,l),
(438,417,l),
(654,774,l),
(654,780,l),
(538,780,l),
(367,492,l),
(347,492,l),
(174,780,l),
(56,780,l),
(56,774,l),
(272,417,l),
(18,6,l),
(18,0,l)
);
}
);
width = 710;
},
{
layerId = "2C59C6D3-D4C2-4A05-8DF2-5125000072A2";
shapes = (
{
closed = 1;
nodes = (
(194,0,l),
(360,309,l),
(384,309,l),
(548,0,l),
(734,0,l),
(734,6,l),
(506,414,l),
(702,774,l),
(702,780,l),
(530,780,l),
(393,519,l),
(369,519,l),
(228,780,l),
(49,780,l),
(49,774,l),
(246,414,l),
(16,6,l),
(16,0,l)
);
}
);
width = 750;
}
);
unicode = 88;
},
{
color = 6;
glyphname = Y;
kernLeft = Y;
kernRight = Y;
lastChange = "2022-02-18 13:14:15 +0000";
layers = (
{
anchors = (
{
name = bottom;
pos = (320,0);
},
{
name = top;
pos = (322,750);
},
{
name = topleft;
pos = (14,780);
}
);
guides = (
{
pos = (342,552);
}
);
hints = (
{
horizontal = 1;
origin = (0,17);
target = up;
type = BottomGhost;
},
{
horizontal = 1;
origin = (0,14);
target = down;
type = TopGhost;
},
{
origin = (0,17);
target = (0,0);
type = Stem;
}
);
layerId = "D6DAFCCC-80B4-447A-AB8D-F3640E986932";
shapes = (
{
closed = 1;
nodes = (
(376,0,l),
(376,334,l),
(628,774,l),
(628,780,l),
(515,780,l),
(387,552,l),
(370,522,o),
(357,492,o),
(340,450,c),
(316,450,l),
(299,492,o),
(285,522,o),
(268,552,c),
(138,780,l),
(12,780,l),
(12,774,l),
(264,336,l),
(264,0,l)
);
}
);
width = 640;
},
{
anchors = (
{
name = bottom;
pos = (340,0);
},
{
name = top;
pos = (339,780);
},
{
name = topleft;
pos = (18,780);
}
);
layerId = "2C59C6D3-D4C2-4A05-8DF2-5125000072A2";
shapes = (
{
closed = 1;
nodes = (
(424,0,l),
(424,322,l),
(673,774,l),
(673,780,l),
(509,780,l),
(414,600,ls),
(396,567,o),
(378,533,o),
(360,488,c),
(340,488,l),
(322,533,o),
(304,567,o),
(286,600,cs),
(188,780,l),
(7,780,l),
(7,774,l),
(256,324,l),
(256,0,l)
);
}
);
width = 680;
}
);
unicode = 89;
},
{
color = 6;
glyphname = Z;
kernLeft = Z;
kernRight = Z;
lastChange = "2022-02-18 13:14:15 +0000";
layers = (
{
anchors = (
{
name = bottom;
pos = (353,0);
},
{
name = top;
pos = (369,780);
}
);
guides = (
{
pos = (266,224);
},
{
pos = (439,556);
}
);
hints = (
{
horizontal = 1;
origin = (0,17);
target = (0,2);
type = Stem;
},
{
horizontal = 1;
origin = (0,9);
target = (0,10);
type = Stem;
},
{
origin = (0,17);
target = (0,2);
type = Stem;
},
{
origin = (0,12);
target = (0,7);
type = Stem;
}
);
layerId = "D6DAFCCC-80B4-447A-AB8D-F3640E986932";
shapes = (
{
closed = 1;
nodes = (
(658,0,l),
(658,94,l),
(176,94,l),
(176,118,l),
(216,154,o),
(247,191,o),
(277,227,cs),
(652,676,l),
(652,780,l),
(90,780,l),
(90,686,l),
(524,686,l),
(524,662,l),
(483,625,o),
(452,588,o),
(421,551,cs),
(48,104,l),
(48,0,l)
);
}
);
width = 710;
},
{
anchors = (
{
name = bottom;
pos = (354,0);
},
{
name = top;
pos = (367,780);
}
);
guides = (
{
pos = (328,260);
},
{
pos = (380,520);
}
);
layerId = "2C59C6D3-D4C2-4A05-8DF2-5125000072A2";
shapes = (
{
closed = 1;
nodes = (
(674,0,l),
(674,132,l),
(243,132,l),
(243,156,l),
(279,191,o),
(310,227,o),
(340,262,cs),
(665,636,l),
(665,780,l),
(68,780,l),
(68,648,l),
(455,648,l),
(455,624,l),
(419,589,o),
(388,553,o),
(358,518,cs),
(34,144,l),
(34,0,l)
);
}
);
width = 710;
}
);
unicode = 90;
},
{
color = 6;
export = 0;
glyphname = Hbar.H;
kernLeft = B;
kernRight = H;
lastChange = "2022-02-18 13:14:15 +0000";
layers = (
{
anchors = (
{
name = bottom;
pos = (400,0);
},
{
name = center;
pos = (400,600);
},
{
name = top;
pos = (400,780);
},
{
name = topleft;
pos = (20,780);
}
);
hints = (
{
horizontal = 1;
origin = (0,11);
target = up;
type = BottomGhost;
},
{
horizontal = 1;
origin = (0,1);
target = (0,8);
type = Stem;
},
{
horizontal = 1;
origin = (0,10);
target = down;
type = TopGhost;
},
{
origin = (0,11);
target = (0,0);
type = Stem;
},
{
origin = (0,3);
target = (0,4);
type = Stem;
}
);
layerId = "D6DAFCCC-80B4-447A-AB8D-F3640E986932";
shapes = (
{
closed = 1;
nodes = (
(202,0,l),
(202,343,l),
(598,343,l),
(598,0,l),
(710,0,l),
(710,780,l),
(598,780,l),
(598,437,l),
(202,437,l),
(202,780,l),
(90,780,l),
(90,0,l)
);
}
);
width = 800;
},
{
anchors = (
{
name = bottom;
pos = (410,0);
},
{
name = center;
pos = (410,600);
},
{
name = top;
pos = (410,780);
},
{
name = topleft;
pos = (17,780);
}
);
layerId = "2C59C6D3-D4C2-4A05-8DF2-5125000072A2";
shapes = (
{
closed = 1;
nodes = (
(244,0,l),
(244,317,l),
(576,317,l),
(576,0,l),
(744,0,l),
(744,780,l),
(576,780,l),
(576,453,l),
(244,453,l),
(244,780,l),
(76,780,l),
(76,0,l)
);
}
);
width = 820;
}
);
},
{
color = 6;
glyphname = a;
kernLeft = a;
kernRight = a;
lastChange = "2022-02-18 13:14:15 +0000";
layers = (
{
anchors = (
{
name = bottom;
pos = (319,0);
},
{
name = ogonek;
pos = (574,0);
},
{
name = top;
pos = (319,600);
}
);
hints = (
{
horizontal = 1;
origin = (0,18);
target = (1,11);
type = Stem;
},
{
horizontal = 1;
origin = (0,12);
target = (1,5);
type = Stem;
},
{
horizontal = 1;
origin = (0,4);
target = up;
type = BottomGhost;
},
{
horizontal = 1;
origin = (0,7);
target = down;
type = TopGhost;
},
{
origin = (0,15);
target = (1,2);
type = Stem;
},
{
origin = (1,8);
target = (0,5);
type = Stem;
}
);
layerId = "D6DAFCCC-80B4-447A-AB8D-F3640E986932";
shapes = (
{
closed = 1;
nodes = (
(379,-15,o),
(433,30,o),
(454,78,c),
(478,78,l),
(478,0,l),
(574,0,l),
(574,600,l),
(478,600,l),
(478,522,l),
(454,522,l),
(433,570,o),
(379,615,o),
(289,615,cs),
(132,615,o),
(45,491,o),
(45,300,cs),
(45,108,o),
(133,-15,o),
(287,-15,cs)
);
},
{
closed = 1;
nodes = (
(209,75,o),
(155,157,o),
(155,300,cs),
(155,443,o),
(209,525,o),
(306,525,cs),
(406,525,o),
(469,435,o),
(469,300,cs),
(469,165,o),
(406,75,o),
(306,75,cs)
);
}
);
width = 660;
},
{
anchors = (
{
name = bottom;
pos = (341,0);
},
{
name = ogonek;
pos = (616,0);
},
{
name = top;
pos = (341,600);
}
);
layerId = "2C59C6D3-D4C2-4A05-8DF2-5125000072A2";
shapes = (
{
closed = 1;
nodes = (
(362,-12,o),
(414,27,o),
(442,78,c),
(466,78,l),
(466,0,l),
(616,0,l),
(616,600,l),
(466,600,l),
(466,522,l),
(442,522,l),
(414,576,o),
(361,612,o),
(277,612,cs),
(113,612,o),
(34,486,o),
(34,301,cs),
(34,120,o),
(109,-12,o),
(278,-12,cs)
);
},
{
closed = 1;
nodes = (
(247,102,o),
(202,168,o),
(202,300,cs),
(202,432,o),
(247,498,o),
(320,498,cs),
(401,498,o),
(454,422,o),
(454,300,cs),
(454,178,o),
(401,102,o),
(320,102,cs)
);
}
);
width = 690;
}
);
unicode = 97;
},
{
color = 6;
glyphname = ae;
kernLeft = ae;
kernRight = ae;
lastChange = "2022-02-18 13:14:15 +0000";
layers = (
{
anchors = (
{
name = bottom;
pos = (480,0);
},
{
name = top;
pos = (480,600);
}
);
hints = (
{
horizontal = 1;
origin = (0,46);
target = (1,10);
type = Stem;
},
{
horizontal = 1;
origin = (1,5);
target = (0,40);
type = Stem;
},
{
horizontal = 1;
origin = (0,28);
target = (0,35);
type = Stem;
},
{
origin = (0,43);
target = (1,2);
type = Stem;
},
{
origin = (1,7);
target = (0,16);
type = Stem;
},
{
origin = (2,5);
target = (0,17);
type = Stem;
},
{
horizontal = 1;
origin = (0,10);
target = down;
type = TopGhost;
},
{
horizontal = 1;
origin = (0,31);
target = up;
type = BottomGhost;
}
);
layerId = "D6DAFCCC-80B4-447A-AB8D-F3640E986932";
shapes = (
{
closed = 1;
nodes = (
(345,-15,o),
(414,40,o),
(449,99,c),
(473,99,l),
(509,32,o),
(580,-15,o),
(682,-15,cs),
(812,-15,o),
(893,64,o),
(922,180,c),
(821,180,l),
(802,113,o),
(759,71,o),
(684,71,cs),
(581,71,o),
(530,154,o),
(525,281,c),
(935,281,l),
(935,310,ls),
(935,488,o),
(858,615,o),
(693,615,cs),
(592,615,o),
(536,569,o),
(503,520,c),
(479,520,l),
(450,567,o),
(389,615,o),
(286,615,cs),
(140,615,o),
(63,522,o),
(49,410,c),
(155,410,l),
(160,468,o),
(201,529,o),
(283,529,cs),
(363,529,o),
(420,471,o),
(420,384,cs),
(420,362,l),
(312,362,ls),
(132,362,o),
(34,289,o),
(34,165,cs),
(34,55,o),
(122,-15,o),
(242,-15,cs)
);
},
{
closed = 1;
nodes = (
(189,71,o),
(145,107,o),
(145,169,cs),
(145,230,o),
(190,281,o),
(313,281,cs),
(420,281,l),
(420,247,ls),
(420,156,o),
(352,71,o),
(255,71,cs)
);
},
{
closed = 1;
nodes = (
(536,460,o),
(586,529,o),
(681,529,cs),
(769,529,o),
(819,467,o),
(826,362,c),
(526,362,l)
);
}
);
width = 980;
},
{
anchors = (
{
name = bottom;
pos = (490,0);
},
{
name = top;
pos = (490,600);
}
);
background = {
shapes = (
{
closed = 1;
nodes = (
(360,-15,o),
(425,39,o),
(460,90,c),
(484,90,l),
(525,21,o),
(597,-15,o),
(685,-15,cs),
(822,-15,o),
(912,70,o),
(940,192,c),
(797,192,l),
(784,142,o),
(754,100,o),
(687,100,cs),
(612,100,o),
(563,156,o),
(560,267,c),
(950,267,l),
(950,298,ls),
(950,502,o),
(861,615,o),
(697,615,cs),
(599,615,o),
(541,574,o),
(505,520,c),
(481,520,l),
(445,573,o),
(389,615,o),
(287,615,cs),
(129,615,o),
(55,516,o),
(42,410,c),
(181,410,l),
(187,451,o),
(213,501,o),
(291,501,cs),
(367,501,o),
(408,446,o),
(408,374,cs),
(408,360,l),
(298,360,ls),
(124,360,o),
(28,294,o),
(28,175,cs),
(28,61,o),
(116,-15,o),
(248,-15,cs)
);
},
{
closed = 1;
nodes = (
(212,98,o),
(177,131,o),
(177,182,cs),
(177,267,o),
(271,267,o),
(307,267,cs),
(408,267,l),
(408,243,ls),
(408,159,o),
(354,98,o),
(271,98,cs)
);
},
{
closed = 1;
nodes = (
(569,449,o),
(613,501,o),
(686,501,cs),
(759,501,o),
(798,448,o),
(800,360,c),
(561,360,l)
);
}
);
};
layerId = "2C59C6D3-D4C2-4A05-8DF2-5125000072A2";
shapes = (
{
closed = 1;
nodes = (
(367,-15,o),
(434,39,o),
(469,90,c),
(493,90,l),
(535,21,o),
(609,-15,o),
(699,-15,cs),
(839,-15,o),
(931,70,o),
(960,192,c),
(814,192,l),
(800,142,o),
(770,99,o),
(701,99,cs),
(625,99,o),
(575,156,o),
(572,263,c),
(970,263,l),
(970,298,ls),
(970,502,o),
(879,615,o),
(712,615,cs),
(611,615,o),
(552,574,o),
(515,520,c),
(491,520,l),
(454,573,o),
(397,615,o),
(293,615,cs),
(131,615,o),
(56,516,o),
(42,410,c),
(184,410,l),
(190,451,o),
(218,501,o),
(295,501,cs),
(375,501,o),
(416,448,o),
(416,378,cs),
(416,364,l),
(295,364,ls),
(117,364,o),
(28,292,o),
(28,174,cs),
(28,53,o),
(121,-15,o),
(251,-15,cs)
);
},
{
closed = 1;
nodes = (
(216,99,o),
(180,130,o),
(180,180,cs),
(180,243,o),
(235,262,o),
(303,262,cs),
(416,262,l),
(416,239,ls),
(416,157,o),
(361,99,o),
(276,99,cs)
);
},
{
closed = 1;
nodes = (
(581,449,o),
(626,501,o),
(700,501,cs),
(775,501,o),
(815,448,o),
(817,364,c),
(573,364,l)
);
}
);
width = 1000;
}
);
unicode = 230;
},
{
color = 6;
glyphname = b;
kernLeft = b;
kernRight = b;
lastChange = "2022-02-18 13:14:15 +0000";
layers = (
{
guides = (
{
angle = 90;
pos = (218,522);
}
);
hints = (
{
horizontal = 1;
origin = (0,18);
target = (1,11);
type = Stem;
},
{
horizontal = 1;
origin = (0,5);
target = (1,5);
type = Stem;
},
{
horizontal = 1;
origin = (0,12);
target = up;
type = BottomGhost;
},
{
origin = (0,12);
target = (0,9);
type = Stem;
},
{
origin = (1,8);
target = (0,2);
type = Stem;
},
{
horizontal = 1;
origin = (0,11);
target = down;
type = TopGhost;
}
);
layerId = "D6DAFCCC-80B4-447A-AB8D-F3640E986932";
shapes = (
{
closed = 1;
nodes = (
(527,-15,o),
(615,108,o),
(615,300,cs),
(615,491,o),
(527,615,o),
(375,615,cs),
(294,615,o),
(244,580,o),
(218,528,c),
(194,528,l),
(194,800,l),
(86,800,l),
(86,0,l),
(182,0,l),
(182,78,l),
(206,78,l),
(227,30,o),
(281,-15,o),
(373,-15,cs)
);
},
{
closed = 1;
nodes = (
(254,75,o),
(191,165,o),
(191,300,cs),
(191,435,o),
(254,525,o),
(354,525,cs),
(451,525,o),
(505,443,o),
(505,300,cs),
(505,157,o),
(451,75,o),
(354,75,cs)
);
}
);
width = 660;
},
{
layerId = "2C59C6D3-D4C2-4A05-8DF2-5125000072A2";
shapes = (
{
closed = 1;
nodes = (
(580,-12,o),
(656,120,o),
(656,301,cs),
(656,486,o),
(576,612,o),
(416,612,cs),
(338,612,o),
(289,582,o),
(260,534,c),
(236,534,l),
(236,800,l),
(74,800,l),
(74,0,l),
(224,0,l),
(224,78,l),
(248,78,l),
(276,27,o),
(327,-12,o),
(416,-12,cs)
);
},
{
closed = 1;
nodes = (
(289,102,o),
(236,178,o),
(236,300,cs),
(236,422,o),
(289,498,o),
(370,498,cs),
(443,498,o),
(488,432,o),
(488,300,cs),
(488,168,o),
(443,102,o),
(370,102,cs)
);
}
);
width = 690;
},
{
associatedMasterId = "2C59C6D3-D4C2-4A05-8DF2-5125000072A2";
layerId = "2283F5F0-86FA-4C64-8A48-31EA0C56CD06";
name = "19 Aug 21, 17:53";
shapes = (
{
closed = 1;
nodes = (
(576,-15,o),
(656,111,o),
(656,299,cs),
(656,483,o),
(580,615,o),
(413,615,cs),
(326,615,o),
(274,579,o),
(254,522,c),
(232,522,l),
(232,800,l),
(72,800,l),
(72,0,l),
(228,0,l),
(228,78,l),
(254,78,l),
(274,21,o),
(327,-15,o),
(414,-15,cs)
);
},
{
closed = 1;
nodes = (
(286,99,o),
(232,178,o),
(232,300,cs),
(232,422,o),
(286,501,o),
(368,501,cs),
(443,501,o),
(488,435,o),
(488,300,cs),
(488,165,o),
(443,99,o),
(368,99,cs)
);
}
);
width = 690;
},
{
associatedMasterId = "D6DAFCCC-80B4-447A-AB8D-F3640E986932";
hints = (
{
horizontal = 1;
place = (-15, 90);
place = (-15, 90);
type = Stem;
},
{
horizontal = 1;
place = (615, 90);
place = (615, 90);
type = Stem;
},
{
horizontal = 1;
place = (800, -20);
target = down;
type = TopGhost;
},
{
horizontal = 1;
place = (0, 21);
target = up;
type = BottomGhost;
},
{
place = (88, 106);
place = (88, 106);
type = Stem;
},
{
place = (503, 112);
place = (503, 112);
type = Stem;
}
);
layerId = "8AD3EF83-1853-4104-B716-058465379A15";
name = "20 Aug 21, 08:32";
shapes = (
{
closed = 1;
nodes = (
(520,-15,o),
(615,99,o),
(615,300,cs),
(615,492,o),
(527,615,o),
(374,615,cs),
(283,615,o),
(230,570,o),
(209,522,c),
(194,522,l),
(194,800,l),
(88,800,l),
(88,0,l),
(185,0,l),
(185,78,l),
(209,78,l),
(230,30,o),
(283,-15,o),
(374,-15,cs)
);
},
{
closed = 1;
nodes = (
(255,75,o),
(192,165,o),
(192,300,cs),
(192,435,o),
(255,525,o),
(354,525,cs),
(450,525,o),
(504,443,o),
(504,300,cs),
(504,157,o),
(450,75,o),
(354,75,cs)
);
}
);
visible = 1;
width = 660;
}
);
unicode = 98;
},
{
color = 6;
glyphname = c;
kernLeft = c;
kernRight = c;
lastChange = "2022-02-18 13:14:15 +0000";
layers = (
{
anchors = (
{
name = bottom;
pos = (315,0);
},
{
name = top;
pos = (299,600);
}
);
hints = (
{
horizontal = 1;
origin = (0,25);
target = (0,6);
type = Stem;
},
{
horizontal = 1;
origin = (0,19);
target = (0,12);
type = Stem;
},
{
origin = (0,22);
target = (0,9);
type = Stem;
},
{
horizontal = 1;
origin = (0,3);
target = down;
type = TopGhost;
},
{
horizontal = 1;
origin = (0,15);
target = up;
type = BottomGhost;
}
);
layerId = "D6DAFCCC-80B4-447A-AB8D-F3640E986932";
shapes = (
{
closed = 1;
nodes = (
(445,-15,o),
(532,65,o),
(554,210,c),
(449,210,l),
(437,125,o),
(390,73,o),
(309,73,cs),
(204,73,o),
(155,160,o),
(155,300,cs),
(155,440,o),
(204,527,o),
(309,527,cs),
(390,527,o),
(437,475,o),
(449,390,c),
(554,390,l),
(535,534,o),
(446,615,o),
(306,615,cs),
(135,615,o),
(45,492,o),
(45,300,cs),
(45,110,o),
(133,-15,o),
(306,-15,cs)
);
}
);
width = 590;
},
{
anchors = (
{
name = bottom;
pos = (322,0);
},
{
name = top;
pos = (323,600);
}
);
background = {
shapes = (
{
closed = 1;
nodes = (
(488,-15,o),
(580,77,o),
(599,220,c),
(439,220,l),
(430,143,o),
(391,99,o),
(326,99,cs),
(244,99,o),
(202,170,o),
(202,300,cs),
(202,429,o),
(244,501,o),
(327,501,cs),
(391,501,o),
(430,459,o),
(439,380,c),
(600,380,l),
(582,525,o),
(489,615,o),
(326,615,cs),
(145,615,o),
(34,504,o),
(34,300,cs),
(34,107,o),
(134,-15,o),
(324,-15,cs)
);
}
);
};
layerId = "2C59C6D3-D4C2-4A05-8DF2-5125000072A2";
shapes = (
{
closed = 1;
nodes = (
(478,-15,o),
(570,77,o),
(589,220,c),
(429,220,l),
(420,143,o),
(381,99,o),
(321,99,cs),
(244,99,o),
(202,170,o),
(202,300,cs),
(202,429,o),
(244,501,o),
(322,501,cs),
(381,501,o),
(420,459,o),
(429,380,c),
(589,380,l),
(572,525,o),
(479,615,o),
(321,615,cs),
(145,615,o),
(34,504,o),
(34,300,cs),
(34,107,o),
(134,-15,o),
(319,-15,cs)
);
}
);
width = 620;
},
{
anchors = (
{
name = bottom;
pos = (322,0);
},
{
name = top;
pos = (323,600);
}
);
associatedMasterId = "2C59C6D3-D4C2-4A05-8DF2-5125000072A2";
layerId = "6F89C4F9-38B1-4383-87AD-7D66DF5E306D";
name = "20 Aug 21, 10:06";
shapes = (
{
closed = 1;
nodes = (
(488,-15,o),
(580,77,o),
(599,220,c),
(439,220,l),
(430,143,o),
(391,99,o),
(326,99,cs),
(244,99,o),
(202,170,o),
(202,300,cs),
(202,429,o),
(244,501,o),
(327,501,cs),
(391,501,o),
(430,459,o),
(439,380,c),
(600,380,l),
(582,525,o),
(489,615,o),
(326,615,cs),
(145,615,o),
(34,504,o),
(34,300,cs),
(34,107,o),
(134,-15,o),
(324,-15,cs)
);
}
);
width = 620;
}
);
unicode = 99;
},
{
color = 6;
glyphname = d;
kernLeft = c;
kernRight = d;
lastChange = "2022-02-18 13:14:15 +0000";
layers = (
{
anchors = (
{
name = bottom;
pos = (340,0);
},
{
name = center;
pos = (480,700);
},
{
name = top;
pos = (340,800);
},
{
name = topright;
pos = (572,800);
}
);
hints = (
{
horizontal = 1;
origin = (0,18);
target = (1,11);
type = Stem;
},
{
horizontal = 1;
origin = (0,12);
target = (1,5);
type = Stem;
},
{
horizontal = 1;
origin = (0,4);
target = up;
type = BottomGhost;
},
{
origin = (0,15);
target = (1,2);
type = Stem;
},
{
origin = (0,8);
target = (0,5);
type = Stem;
},
{
horizontal = 1;
origin = (0,7);
target = down;
type = TopGhost;
}
);
layerId = "D6DAFCCC-80B4-447A-AB8D-F3640E986932";
shapes = (
{
closed = 1;
nodes = (
(377,-15,o),
(431,30,o),
(452,78,c),
(476,78,l),
(476,0,l),
(572,0,l),
(572,800,l),
(464,800,l),
(464,528,l),
(440,528,l),
(414,580,o),
(364,615,o),
(283,615,cs),
(131,615,o),
(43,491,o),
(43,300,cs),
(43,108,o),
(131,-15,o),
(285,-15,cs)
);
},
{
closed = 1;
nodes = (
(207,75,o),
(153,157,o),
(153,300,cs),
(153,443,o),
(207,525,o),
(304,525,cs),
(404,525,o),
(467,435,o),
(467,300,cs),
(467,165,o),
(404,75,o),
(304,75,cs)
);
}
);
width = 660;
},
{
anchors = (
{
name = bottom;
pos = (341,0);
},
{
name = center;
pos = (514,700);
},
{
name = top;
pos = (341,800);
},
{
name = topright;
pos = (618,800);
}
);
background = {
shapes = (
{
closed = 1;
nodes = (
(362,-12,o),
(414,27,o),
(442,78,c),
(466,78,l),
(466,0,l),
(616,0,l),
(616,600,l),
(466,600,l),
(466,522,l),
(442,522,l),
(414,576,o),
(361,612,o),
(277,612,cs),
(113,612,o),
(34,486,o),
(34,301,cs),
(34,120,o),
(109,-12,o),
(278,-12,cs)
);
},
{
closed = 1;
nodes = (
(247,102,o),
(202,168,o),
(202,300,cs),
(202,432,o),
(247,498,o),
(320,498,cs),
(401,498,o),
(454,422,o),
(454,300,cs),
(454,178,o),
(401,102,o),
(320,102,cs)
);
}
);
};
guides = (
{
angle = 90;
pos = (430,522);
}
);
layerId = "2C59C6D3-D4C2-4A05-8DF2-5125000072A2";
shapes = (
{
closed = 1;
nodes = (
(363,-12,o),
(414,27,o),
(442,78,c),
(466,78,l),
(466,0,l),
(616,0,l),
(616,800,l),
(454,800,l),
(454,534,l),
(430,534,l),
(401,582,o),
(352,612,o),
(274,612,cs),
(114,612,o),
(34,486,o),
(34,301,cs),
(34,120,o),
(110,-12,o),
(274,-12,cs)
);
},
{
closed = 1;
nodes = (
(247,102,o),
(202,168,o),
(202,300,cs),
(202,432,o),
(247,498,o),
(320,498,cs),
(401,498,o),
(454,422,o),
(454,300,cs),
(454,178,o),
(401,102,o),
(320,102,cs)
);
}
);
width = 690;
},
{
anchors = (
{
name = bottom;
pos = (341,0);
},
{
name = center;
pos = (500,700);
},
{
name = top;
pos = (341,800);
},
{
name = topright;
pos = (618,800);
}
);
associatedMasterId = "2C59C6D3-D4C2-4A05-8DF2-5125000072A2";
layerId = "BD399711-ED4B-4E7C-A9DA-84EC3D1A2D60";
name = "19 Aug 21, 17:19";
shapes = (
{
closed = 1;
nodes = (
(363,-15,o),
(416,21,o),
(436,78,c),
(462,78,l),
(462,0,l),
(618,0,l),
(618,800,l),
(458,800,l),
(458,522,l),
(436,522,l),
(416,579,o),
(364,615,o),
(277,615,cs),
(110,615,o),
(34,483,o),
(34,299,cs),
(34,111,o),
(114,-15,o),
(276,-15,cs)
);
},
{
closed = 1;
nodes = (
(247,99,o),
(202,165,o),
(202,300,cs),
(202,435,o),
(247,501,o),
(322,501,cs),
(404,501,o),
(458,422,o),
(458,300,cs),
(458,178,o),
(404,99,o),
(322,99,cs)
);
}
);
width = 690;
}
);
unicode = 100;
},
{
color = 6;
glyphname = eth;
kernLeft = c;
kernRight = eth;
lastChange = "2022-02-18 13:14:15 +0000";
layers = (
{
background = {
hints = (
{
horizontal = 1;
place = (-13, 89);
place = (-13, 89);
type = Stem;
},
{
horizontal = 1;
place = (421, 82);
place = (421, 82);
type = Stem;
},
{
horizontal = 1;
place = (788, -20);
target = down;
type = TopGhost;
},
{
horizontal = 1;
place = (692, 108);
place = (692, 108);
type = Stem;
},
{
place = (68, 104);
place = (68, 104);
type = Stem;
},
{
place = (463, 112);
place = (463, 112);
type = Stem;
},
{
horizontal = 1;
place = (758, 460);
place = (758, 460);
type = Stem;
},
{
horizontal = 1;
place = (860, 568);
place = (860, 568);
type = Stem;
},
{
place = (585, 276);
place = (585, 276);
type = Stem;
},
{
place = (204, 381);
place = (204, 381);
type = Stem;
}
);
shapes = (
{
closed = 1;
nodes = (
(495,-15,o),
(586,108,o),
(585,337,cs),
(584,512,o),
(528,646,o),
(437,751,c),
(437,775,l),
(474,765,o),
(506,771,o),
(537,781,c),
(517,841,l),
(397,802,l),
(376,823,o),
(355,842,o),
(333,860,c),
(208,860,l),
(208,854,l),
(242,827,o),
(274,800,o),
(308,772,c),
(308,748,l),
(253,756,o),
(205,741,o),
(156,725,c),
(176,666,l),
(350,721,l),
(405,659,o),
(444,595,o),
(466,528,c),
(442,528,l),
(416,580,o),
(366,615,o),
(285,615,cs),
(133,615,o),
(45,491,o),
(45,299,cs),
(45,107,o),
(133,-15,o),
(314,-15,cs)
);
},
{
closed = 1;
nodes = (
(155,443,o),
(210,525,o),
(309,525,cs),
(411,525,o),
(475,439,o),
(475,292,cs),
(475,163,o),
(426,73,o),
(314,73,cs),
(204,73,o),
(155,161,o),
(155,298,cs)
);
}
);
};
guides = (
{
angle = 180;
pos = (283,800);
},
{
angle = 197.8138;
pos = (531,841);
},
{
angle = 106.8584;
pos = (541,808);
},
{
pos = (285,570);
}
);
hints = (
{
horizontal = 1;
origin = (0,38);
target = (1,11);
type = Stem;
},
{
horizontal = 1;
origin = (1,5);
target = (0,32);
type = Stem;
},
{
origin = (0,35);
target = (1,2);
type = Stem;
},
{
origin = (1,8);
target = (0,2);
type = Stem;
},
{
origin = (0,20);
target = (0,5);
type = Stem;
},
{
horizontal = 1;
origin = (0,14);
target = down;
type = TopGhost;
},
{
horizontal = 1;
origin = (0,28);
target = down;
type = TopGhost;
}
);
layerId = "D6DAFCCC-80B4-447A-AB8D-F3640E986932";
shapes = (
{
closed = 1;
nodes = (
(489,-15,o),
(585,103,o),
(585,312,cs),
(585,472,o),
(528,601,o),
(437,696,c),
(437,720,l),
(474,710,o),
(506,716,o),
(537,726,c),
(517,786,l),
(395,746,l),
(375,766,o),
(354,784,o),
(333,800,c),
(208,800,l),
(208,794,l),
(242,769,o),
(274,746,o),
(308,718,c),
(308,694,l),
(253,702,o),
(205,687,o),
(156,671,c),
(176,612,l),
(352,668,l),
(406,612,o),
(444,552,o),
(466,491,c),
(442,491,l),
(416,540,o),
(366,576,o),
(283,576,cs),
(133,576,o),
(45,457,o),
(45,282,cs),
(45,106,o),
(133,-15,o),
(312,-15,cs)
);
},
{
closed = 1;
nodes = (
(204,73,o),
(155,159,o),
(155,282,cs),
(155,413,o),
(210,488,o),
(309,488,cs),
(411,488,o),
(475,408,o),
(475,276,cs),
(475,161,o),
(426,73,o),
(314,73,cs)
);
}
);
width = 630;
},
{
background = {
shapes = (
{
closed = 1;
nodes = (
(529,-15,o),
(626,108,o),
(626,308,cs),
(626,508,o),
(532,659,o),
(372,800,c),
(193,800,l),
(193,794,l),
(302,706,o),
(405,604,o),
(454,502,c),
(430,502,l),
(398,548,o),
(349,576,o),
(274,576,cs),
(114,576,o),
(34,457,o),
(34,282,cs),
(34,101,o),
(131,-15,o),
(330,-15,cs)
);
},
{
closed = 1;
nodes = (
(242,93,o),
(202,156,o),
(202,282,cs),
(202,414,o),
(247,462,o),
(320,462,cs),
(401,462,o),
(458,393,o),
(458,282,cs),
(458,156,o),
(418,93,o),
(330,93,cs)
);
},
{
closed = 1;
nodes = (
(186,665,l),
(206,606,l),
(567,721,l),
(547,781,l)
);
}
);
};
guides = (
{
angle = 108.7258;
pos = (196,636);
},
{
angle = -71.565;
pos = (557,751);
}
);
layerId = "2C59C6D3-D4C2-4A05-8DF2-5125000072A2";
shapes = (
{
closed = 1;
nodes = (
(529,-15,o),
(626,108,o),
(626,308,cs),
(626,458,o),
(573,581,o),
(472,686,c),
(472,710,l),
(508,702,o),
(537,712,o),
(567,721,c),
(546,787,l),
(422,747,l),
(404,765,o),
(386,782,o),
(366,800,c),
(193,800,l),
(193,794,l),
(230,764,o),
(265,733,o),
(305,707,c),
(305,683,l),
(261,689,o),
(224,677,o),
(186,665,c),
(208,600,l),
(353,646,l),
(396,599,o),
(431,550,o),
(454,502,c),
(430,502,l),
(398,548,o),
(349,576,o),
(274,576,cs),
(114,576,o),
(34,457,o),
(34,282,cs),
(34,101,o),
(131,-15,o),
(330,-15,cs)
);
},
{
closed = 1;
nodes = (
(242,93,o),
(202,156,o),
(202,282,cs),
(202,414,o),
(247,462,o),
(320,462,cs),
(401,462,o),
(458,393,o),
(458,282,cs),
(458,156,o),
(418,93,o),
(330,93,cs)
);
}
);
width = 660;
},
{
associatedMasterId = "2C59C6D3-D4C2-4A05-8DF2-5125000072A2";
layerId = "FC8EE4C2-36CE-429A-928D-8E048E733293";
name = "20 Apr 21, 10:31";
shapes = (
{
closed = 1;
nodes = (
(505,-15,o),
(602,135,o),
(602,338,cs),
(602,508,o),
(530,659,o),
(408,800,c),
(229,800,l),
(229,792,l),
(336,680,o),
(432,546,o),
(448,427,c),
(425,422,l),
(395,467,o),
(349,511,o),
(262,511,cs),
(128,511,o),
(32,412,o),
(32,253,cs),
(32,86,o),
(137,-15,o),
(304,-15,cs)
);
},
{
closed = 1;
nodes = (
(233,94,o),
(188,152,o),
(188,251,cs),
(188,351,o),
(234,409,o),
(308,409,cs),
(386,409,o),
(432,342,o),
(432,254,cs),
(432,169,o),
(391,94,o),
(308,94,cs)
);
},
{
closed = 1;
nodes = (
(583,668,l),
(583,767,l),
(214,667,l),
(214,570,l)
);
}
);
width = 636;
},
{
associatedMasterId = "D6DAFCCC-80B4-447A-AB8D-F3640E986932";
hints = (
{
horizontal = 1;
origin = (0,20);
target = (1,11);
type = Stem;
},
{
horizontal = 1;
origin = (1,5);
target = (0,14);
type = Stem;
},
{
horizontal = 1;
origin = (0,6);
target = down;
type = TopGhost;
},
{
horizontal = 1;
place = (692, 108);
place = (692, 108);
type = Stem;
},
{
origin = (0,17);
target = (1,2);
type = Stem;
},
{
origin = (1,8);
target = (0,2);
type = Stem;
}
);
layerId = "28DD207F-3C1D-497C-AA7C-2C078F455D55";
name = "27 Aug 21, 11:03";
shapes = (
{
closed = 1;
nodes = (
(473,-15,o),
(571,133,o),
(571,343,cs),
(571,525,o),
(495,667,o),
(380,800,c),
(255,800,l),
(255,792,l),
(366,668,o),
(455,540,o),
(469,406,c),
(449,403,l),
(419,457,o),
(372,509,o),
(275,509,cs),
(142,509,o),
(45,411,o),
(45,250,cs),
(45,83,o),
(148,-15,o),
(294,-15,cs)
);
},
{
closed = 1;
nodes = (
(206,75,o),
(151,140,o),
(151,250,cs),
(151,362,o),
(208,423,o),
(297,423,cs),
(391,423,o),
(445,353,o),
(445,253,cs),
(445,158,o),
(397,75,o),
(296,75,cs)
);
},
{
closed = 1;
nodes = (
(571,672,l),
(571,757,l),
(219,659,l),
(219,575,l)
);
}
);
width = 620;
},
{
associatedMasterId = "D6DAFCCC-80B4-447A-AB8D-F3640E986932";
background = {
hints = (
{
horizontal = 1;
place = (-13, 89);
place = (-13, 89);
type = Stem;
},
{
horizontal = 1;
place = (421, 82);
place = (421, 82);
type = Stem;
},
{
horizontal = 1;
place = (788, -20);
target = down;
type = TopGhost;
},
{
horizontal = 1;
place = (692, 108);
place = (692, 108);
type = Stem;
},
{
place = (68, 104);
place = (68, 104);
type = Stem;
},
{
place = (463, 112);
place = (463, 112);
type = Stem;
},
{
horizontal = 1;
origin = (0,20);
target = (1,11);
type = Stem;
},
{
horizontal = 1;
origin = (0,14);
target = (1,5);
type = Stem;
},
{
origin = (0,2);
target = (1,2);
type = Stem;
},
{
origin = (1,9);
target = (0,2);
type = Stem;
}
);
shapes = (
{
closed = 1;
nodes = (
(495,-15,o),
(585,111,o),
(585,337,cs),
(585,528,o),
(512,689,o),
(431,737,c),
(431,761,l),
(470,760,o),
(504,770,o),
(537,781,c),
(517,841,l),
(393,801,l),
(374,822,o),
(354,841,o),
(333,860,c),
(208,860,l),
(208,854,l),
(240,826,o),
(269,798,o),
(302,782,c),
(302,758,l),
(273,758,o),
(251,755,o),
(216,744,cs),
(156,725,l),
(176,666,l),
(342,719,l),
(406,657,o),
(445,594,o),
(466,528,c),
(442,528,l),
(416,580,o),
(366,615,o),
(285,615,cs),
(133,615,o),
(45,491,o),
(45,299,cs),
(45,107,o),
(133,-15,o),
(313,-15,cs)
);
},
{
closed = 1;
nodes = (
(155,443,o),
(210,525,o),
(309,525,cs),
(411,525,o),
(475,439,o),
(475,292,cs),
(475,163,o),
(426,73,o),
(314,73,cs),
(204,73,o),
(155,161,o),
(155,298,cs)
);
}
);
};
guides = (
{
angle = 180;
pos = (283,860);
},
{
angle = 197.8138;
pos = (531,841);
},
{
angle = 106.8584;
pos = (541,808);
}
);
layerId = "96AF9EFD-5E97-40EE-BA8E-2F72F59DA8B4";
name = "27 Aug 21, 11:36";
shapes = (
{
closed = 1;
nodes = (
(495,-15,o),
(586,108,o),
(585,337,cs),
(584,579,o),
(478,741,o),
(333,860,c),
(208,860,l),
(208,854,l),
(339,750,o),
(429,643,o),
(466,528,c),
(442,528,l),
(416,580,o),
(366,615,o),
(285,615,cs),
(133,615,o),
(45,491,o),
(45,299,cs),
(45,107,o),
(133,-15,o),
(314,-15,cs)
);
},
{
closed = 1;
nodes = (
(204,73,o),
(155,161,o),
(155,298,cs),
(155,443,o),
(210,525,o),
(309,525,cs),
(411,525,o),
(475,439,o),
(475,292,cs),
(475,163,o),
(426,73,o),
(314,73,cs)
);
},
{
closed = 1;
nodes = (
(156,725,l),
(176,666,l),
(537,781,l),
(517,841,l)
);
}
);
width = 630;
},
{
associatedMasterId = "D6DAFCCC-80B4-447A-AB8D-F3640E986932";
background = {
hints = (
{
horizontal = 1;
place = (-13, 89);
place = (-13, 89);
type = Stem;
},
{
horizontal = 1;
place = (421, 82);
place = (421, 82);
type = Stem;
},
{
horizontal = 1;
place = (788, -20);
target = down;
type = TopGhost;
},
{
horizontal = 1;
place = (692, 108);
place = (692, 108);
type = Stem;
},
{
place = (68, 104);
place = (68, 104);
type = Stem;
},
{
place = (463, 112);
place = (463, 112);
type = Stem;
},
{
horizontal = 1;
origin = (0,20);
target = (1,11);
type = Stem;
},
{
horizontal = 1;
origin = (0,14);
target = (1,5);
type = Stem;
},
{
origin = (0,2);
target = (1,2);
type = Stem;
},
{
origin = (1,9);
target = (0,2);
type = Stem;
}
);
shapes = (
{
closed = 1;
nodes = (
(495,-15,o),
(585,111,o),
(585,337,cs),
(585,528,o),
(512,689,o),
(431,737,c),
(431,761,l),
(470,760,o),
(504,770,o),
(537,781,c),
(517,841,l),
(393,801,l),
(374,822,o),
(354,841,o),
(333,860,c),
(208,860,l),
(208,854,l),
(240,826,o),
(269,798,o),
(302,782,c),
(302,758,l),
(273,758,o),
(251,755,o),
(216,744,cs),
(156,725,l),
(176,666,l),
(342,719,l),
(406,657,o),
(445,594,o),
(466,528,c),
(442,528,l),
(416,580,o),
(366,615,o),
(285,615,cs),
(133,615,o),
(45,491,o),
(45,299,cs),
(45,107,o),
(133,-15,o),
(313,-15,cs)
);
},
{
closed = 1;
nodes = (
(155,443,o),
(210,525,o),
(309,525,cs),
(411,525,o),
(475,439,o),
(475,292,cs),
(475,163,o),
(426,73,o),
(314,73,cs),
(204,73,o),
(155,161,o),
(155,298,cs)
);
}
);
};
guides = (
{
angle = 180;
pos = (283,800);
},
{
angle = 197.8138;
pos = (531,841);
},
{
angle = 106.8584;
pos = (541,808);
}
);
layerId = "39687E85-9560-4CA2-813C-4D9CF948F698";
name = "30 Aug 21, 08:01";
shapes = (
{
closed = 1;
nodes = (
(495,-15,o),
(586,108,o),
(585,337,cs),
(584,512,o),
(528,646,o),
(437,751,c),
(437,775,l),
(474,765,o),
(506,771,o),
(537,781,c),
(517,841,l),
(397,802,l),
(376,823,o),
(355,842,o),
(333,860,c),
(208,860,l),
(208,854,l),
(242,827,o),
(274,800,o),
(308,772,c),
(308,748,l),
(253,756,o),
(205,741,o),
(156,725,c),
(176,666,l),
(350,721,l),
(405,659,o),
(444,595,o),
(466,528,c),
(442,528,l),
(416,580,o),
(366,615,o),
(285,615,cs),
(133,615,o),
(45,491,o),
(45,299,cs),
(45,107,o),
(133,-15,o),
(314,-15,cs)
);
},
{
closed = 1;
nodes = (
(155,443,o),
(210,525,o),
(309,525,cs),
(411,525,o),
(475,439,o),
(475,292,cs),
(475,163,o),
(426,73,o),
(314,73,cs),
(204,73,o),
(155,161,o),
(155,298,cs)
);
}
);
width = 630;
},
{
associatedMasterId = "2C59C6D3-D4C2-4A05-8DF2-5125000072A2";
layerId = "B3FBF685-EB8B-4736-B385-0E6BDBDA77A0";
name = "30 Aug 21, 09:15";
shapes = (
{
closed = 1;
nodes = (
(583,668,l),
(583,767,l),
(214,667,l),
(214,570,l)
);
},
{
closed = 1;
nodes = (
(505,-15,o),
(602,135,o),
(602,338,cs),
(602,508,o),
(530,659,o),
(408,800,c),
(229,800,l),
(229,794,l),
(336,682,o),
(432,546,o),
(449,420,c),
(425,420,l),
(395,467,o),
(349,511,o),
(262,511,cs),
(128,511,o),
(32,412,o),
(32,253,cs),
(32,86,o),
(137,-15,o),
(304,-15,cs)
);
},
{
closed = 1;
nodes = (
(233,94,o),
(188,152,o),
(188,251,cs),
(188,351,o),
(234,409,o),
(308,409,cs),
(386,409,o),
(432,342,o),
(432,254,cs),
(432,169,o),
(391,94,o),
(308,94,cs)
);
}
);
width = 640;
},
{
associatedMasterId = "2C59C6D3-D4C2-4A05-8DF2-5125000072A2";
background = {
shapes = (
{
closed = 1;
nodes = (
(529,-15,o),
(626,108,o),
(626,308,cs),
(626,508,o),
(532,659,o),
(372,800,c),
(193,800,l),
(193,794,l),
(302,706,o),
(405,604,o),
(454,502,c),
(430,502,l),
(398,548,o),
(349,576,o),
(274,576,cs),
(114,576,o),
(34,457,o),
(34,282,cs),
(34,101,o),
(131,-15,o),
(330,-15,cs)
);
},
{
closed = 1;
nodes = (
(242,93,o),
(202,156,o),
(202,282,cs),
(202,414,o),
(247,462,o),
(320,462,cs),
(401,462,o),
(458,393,o),
(458,282,cs),
(458,156,o),
(418,93,o),
(330,93,cs)
);
},
{
closed = 1;
nodes = (
(186,665,l),
(206,606,l),
(567,721,l),
(547,781,l)
);
}
);
};
layerId = "F1A9A18A-E519-44E7-A080-ADBEC384BBD9";
name = "30 Aug 21, 09:22";
shapes = (
{
closed = 1;
nodes = (
(529,-15,o),
(626,108,o),
(626,308,cs),
(626,508,o),
(532,659,o),
(372,800,c),
(193,800,l),
(193,794,l),
(302,706,o),
(405,604,o),
(454,502,c),
(430,502,l),
(398,548,o),
(349,576,o),
(274,576,cs),
(114,576,o),
(34,457,o),
(34,282,cs),
(34,101,o),
(131,-15,o),
(330,-15,cs)
);
},
{
closed = 1;
nodes = (
(242,93,o),
(202,156,o),
(202,282,cs),
(202,414,o),
(247,462,o),
(320,462,cs),
(401,462,o),
(458,393,o),
(458,282,cs),
(458,156,o),
(418,93,o),
(330,93,cs)
);
},
{
closed = 1;
nodes = (
(186,665,l),
(206,606,l),
(567,721,l),
(547,781,l)
);
}
);
width = 660;
}
);
unicode = 240;
},
{
color = 6;
glyphname = e;
kernLeft = c;
kernRight = e;
lastChange = "2022-02-18 13:14:15 +0000";
layers = (
{
anchors = (
{
name = bottom;
pos = (315,0);
},
{
name = ogonek;
pos = (511,10);
},
{
name = top;
pos = (315,600);
}
);
hints = (
{
horizontal = 1;
origin = (0,20);
target = (0,6);
type = Stem;
},
{
horizontal = 1;
origin = (0,9);
target = (1,6);
type = Stem;
},
{
horizontal = 1;
origin = (0,14);
target = (1,2);
type = Stem;
},
{
origin = (0,17);
target = (1,6);
type = Stem;
},
{
origin = (1,5);
target = (0,10);
type = Stem;
},
{
horizontal = 1;
origin = (0,3);
target = down;
type = TopGhost;
}
);
layerId = "D6DAFCCC-80B4-447A-AB8D-F3640E986932";
shapes = (
{
closed = 1;
nodes = (
(458,-15,o),
(533,70,o),
(559,192,c),
(457,192,l),
(437,116,o),
(391,71,o),
(315,71,cs),
(210,71,o),
(156,155,o),
(150,272,c),
(565,272,l),
(565,303,ls),
(565,506,o),
(477,615,o),
(313,615,cs),
(137,615,o),
(45,487,o),
(45,300,cs),
(45,111,o),
(138,-15,o),
(314,-15,cs)
);
},
{
closed = 1;
nodes = (
(163,463,o),
(217,529,o),
(312,529,cs),
(401,529,o),
(456,466,o),
(460,350,c),
(151,350,l)
);
}
);
width = 610;
},
{
anchors = (
{
name = bottom;
pos = (325,0);
},
{
name = ogonek;
pos = (532,0);
},
{
name = top;
pos = (325,600);
}
);
layerId = "2C59C6D3-D4C2-4A05-8DF2-5125000072A2";
shapes = (
{
closed = 1;
nodes = (
(493,-15,o),
(574,82,o),
(592,192,c),
(438,192,l),
(426,142,o),
(388,99,o),
(325,99,cs),
(246,99,o),
(199,161,o),
(192,262,c),
(600,262,l),
(600,296,ls),
(600,505,o),
(501,615,o),
(323,615,cs),
(136,615,o),
(34,496,o),
(34,301,cs),
(34,106,o),
(135,-15,o),
(325,-15,cs)
);
},
{
closed = 1;
nodes = (
(202,460,o),
(249,507,o),
(322,507,cs),
(397,507,o),
(436,455,o),
(442,364,c),
(192,364,l)
);
}
);
width = 630;
}
);
unicode = 101;
},
{
color = 6;
glyphname = schwa;
kernLeft = c;
kernRight = b;
lastChange = "2022-02-18 13:14:15 +0000";
layers = (
{
hints = (
{
horizontal = 1;
origin = (0,20);
target = (1,6);
type = Stem;
},
{
horizontal = 1;
origin = (1,2);
target = (0,16);
type = Stem;
},
{
horizontal = 1;
origin = (0,5);
target = (0,12);
type = Stem;
},
{
origin = (0,17);
target = (1,2);
type = Stem;
},
{
origin = (1,3);
target = (0,2);
type = Stem;
},
{
horizontal = 1;
origin = (0,9);
target = up;
type = BottomGhost;
}
);
layerId = "D6DAFCCC-80B4-447A-AB8D-F3640E986932";
shapes = (
{
closed = 1;
nodes = (
(473,-15,o),
(565,113,o),
(565,300,cs),
(565,489,o),
(472,615,o),
(296,615,cs),
(152,615,o),
(77,530,o),
(51,408,c),
(153,408,l),
(173,484,o),
(219,529,o),
(295,529,cs),
(400,529,o),
(454,445,o),
(460,328,c),
(45,328,l),
(45,297,ls),
(45,94,o),
(133,-15,o),
(297,-15,cs)
);
},
{
closed = 1;
nodes = (
(209,71,o),
(154,134,o),
(150,250,c),
(459,250,l),
(447,137,o),
(393,71,o),
(298,71,cs)
);
}
);
width = 610;
},
{
layerId = "2C59C6D3-D4C2-4A05-8DF2-5125000072A2";
shapes = (
{
closed = 1;
nodes = (
(498,-15,o),
(600,104,o),
(600,299,cs),
(600,494,o),
(499,615,o),
(309,615,cs),
(141,615,o),
(60,518,o),
(42,408,c),
(196,408,l),
(208,458,o),
(246,501,o),
(309,501,cs),
(388,501,o),
(435,439,o),
(442,338,c),
(34,338,l),
(34,304,ls),
(34,95,o),
(133,-15,o),
(311,-15,cs)
);
},
{
closed = 1;
nodes = (
(237,93,o),
(198,145,o),
(192,241,c),
(442,241,l),
(432,140,o),
(385,93,o),
(312,93,cs)
);
}
);
width = 630;
}
);
unicode = 601;
},
{
color = 6;
glyphname = f;
kernLeft = f;
kernRight = f;
lastChange = "2022-02-18 13:14:15 +0000";
layers = (
{
background = {
shapes = (
{
closed = 1;
nodes = (
(223,0,l),
(223,516,l),
(320,516,l),
(320,600,l),
(223,600,l),
(223,626,ls),
(223,683,o),
(223,716,o),
(291,716,cs),
(302,716,o),
(315,715,o),
(320,714,c),
(320,800,l),
(310,801,o),
(298,802,o),
(284,802,cs),
(118,802,o),
(118,680,o),
(118,620,cs),
(118,600,l),
(30,600,l),
(30,516,l),
(118,516,l),
(118,0,l)
);
}
);
};
hints = (
{
horizontal = 1;
origin = (0,23);
target = up;
type = BottomGhost;
},
{
horizontal = 1;
origin = (0,20);
target = (0,21);
type = Stem;
},
{
horizontal = 1;
origin = (0,8);
target = (0,15);
type = Stem;
},
{
origin = (0,23);
target = (0,0);
type = Stem;
}
);
layerId = "D6DAFCCC-80B4-447A-AB8D-F3640E986932";
shapes = (
{
closed = 1;
nodes = (
(222,0,l),
(222,516,l),
(320,516,l),
(320,600,l),
(222,600,l),
(222,638,ls),
(222,685,o),
(231,716,o),
(290,716,cs),
(301,716,o),
(313,715,o),
(320,713,c),
(320,799,l),
(309,801,o),
(297,802,o),
(282,802,cs),
(158,802,o),
(118,728,o),
(118,639,cs),
(118,600,l),
(30,600,l),
(30,516,l),
(118,516,l),
(118,0,l)
);
}
);
width = 350;
},
{
layerId = "2C59C6D3-D4C2-4A05-8DF2-5125000072A2";
shapes = (
{
closed = 1;
nodes = (
(272,0,l),
(272,486,l),
(370,486,l),
(370,600,l),
(272,600,l),
(272,630,ls),
(272,674,o),
(289,692,o),
(335,692,cs),
(346,692,o),
(360,691,o),
(370,689,c),
(370,799,l),
(351,801,o),
(332,802,o),
(313,802,cs),
(164,802,o),
(114,739,o),
(114,636,cs),
(114,600,l),
(30,600,l),
(30,486,l),
(114,486,l),
(114,0,l)
);
}
);
width = 400;
},
{
associatedMasterId = "D6DAFCCC-80B4-447A-AB8D-F3640E986932";
background = {
shapes = (
{
closed = 1;
nodes = (
(223,0,l),
(223,516,l),
(320,516,l),
(320,600,l),
(223,600,l),
(223,626,ls),
(223,683,o),
(223,716,o),
(291,716,cs),
(302,716,o),
(315,715,o),
(320,714,c),
(320,800,l),
(310,801,o),
(298,802,o),
(284,802,cs),
(118,802,o),
(118,680,o),
(118,620,cs),
(118,600,l),
(30,600,l),
(30,516,l),
(118,516,l),
(118,0,l)
);
}
);
};
hints = (
{
horizontal = 1;
origin = (0,23);
target = up;
type = BottomGhost;
},
{
horizontal = 1;
origin = (0,20);
target = (0,21);
type = Stem;
},
{
horizontal = 1;
origin = (0,15);
target = (0,8);
type = Stem;
},
{
origin = (0,23);
target = (0,0);
type = Stem;
}
);
layerId = "FADFCF2D-CE4E-4B26-B025-BE75BEA812B4";
name = "20 Aug 21, 08:42";
shapes = (
{
closed = 1;
nodes = (
(223,0,l),
(223,516,l),
(320,516,l),
(320,600,l),
(223,600,l),
(223,626,ls),
(223,683,o),
(223,716,o),
(291,716,cs),
(302,716,o),
(315,715,o),
(320,714,c),
(320,800,l),
(310,801,o),
(298,802,o),
(284,802,cs),
(118,802,o),
(118,680,o),
(118,620,cs),
(118,600,l),
(30,600,l),
(30,516,l),
(118,516,l),
(118,0,l)
);
}
);
width = 350;
},
{
associatedMasterId = "2C59C6D3-D4C2-4A05-8DF2-5125000072A2";
layerId = "D4FFFC2B-C5C7-40D4-A330-5422FED22086";
name = "20 Aug 21, 09:36";
shapes = (
{
closed = 1;
nodes = (
(272,0,l),
(272,486,l),
(370,486,l),
(370,600,l),
(272,600,l),
(272,618,ls),
(272,661,o),
(272,692,o),
(336,692,cs),
(348,692,o),
(363,691,o),
(370,690,c),
(370,800,l),
(361,801,o),
(331,802,o),
(313,802,cs),
(114,802,o),
(114,685,o),
(114,612,cs),
(114,600,l),
(30,600,l),
(30,486,l),
(114,486,l),
(114,0,l)
);
}
);
visible = 1;
width = 400;
}
);
unicode = 102;
},
{
color = 6;
glyphname = g;
kernLeft = g;
kernRight = g;
lastChange = "2022-02-18 13:14:15 +0000";
layers = (
{
anchors = (
{
name = bottom;
pos = (324,-200);
},
{
name = top;
pos = (324,600);
}
);
background = {
shapes = (
{
closed = 1;
nodes = (
(472,-214,o),
(562,-121,o),
(562,48,cs),
(562,600,l),
(472,600,l),
(472,500,l),
(452,500,l),
(409,573,o),
(354,615,o),
(271,615,cs),
(131,615,o),
(45,498,o),
(45,314,cs),
(45,128,o),
(134,13,o),
(269,13,cs),
(357,13,o),
(415,65,o),
(444,120,c),
(465,120,l),
(465,55,ls),
(465,-70,o),
(406,-130,o),
(310,-130,cs),
(229,-130,o),
(190,-94,o),
(177,-50,c),
(72,-50,l),
(87,-123,o),
(144,-214,o),
(308,-214,cs)
);
},
{
closed = 1;
nodes = (
(204,103,o),
(153,179,o),
(153,314,cs),
(153,448,o),
(204,525,o),
(298,525,cs),
(396,525,o),
(461,439,o),
(461,314,cs),
(461,190,o),
(397,103,o),
(299,103,cs)
);
}
);
};
guides = (
{
pos = (462,522);
},
{
angle = 90;
pos = (448,510);
},
{
angle = 180;
pos = (455,106);
}
);
hints = (
{
horizontal = 1;
origin = (0,30);
target = (0,23);
type = Stem;
},
{
horizontal = 1;
origin = (0,15);
target = (1,11);
type = Stem;
},
{
horizontal = 1;
origin = (0,9);
target = (1,5);
type = Stem;
},
{
horizontal = 1;
origin = (0,4);
target = down;
type = TopGhost;
},
{
origin = (0,12);
target = (1,2);
type = Stem;
},
{
origin = (0,20);
target = (0,2);
type = Stem;
},
{
origin = (1,8);
target = (0,2);
type = Stem;
},
{
horizontal = 1;
origin = (0,27);
target = down;
type = TopGhost;
}
);
layerId = "D6DAFCCC-80B4-447A-AB8D-F3640E986932";
shapes = (
{
closed = 1;
nodes = (
(475,-214,o),
(564,-127,o),
(564,33,cs),
(564,600,l),
(468,600,l),
(468,522,l),
(444,522,l),
(421,571,o),
(375,615,o),
(283,615,cs),
(134,615,o),
(45,500,o),
(45,316,cs),
(45,128,o),
(137,13,o),
(285,13,cs),
(373,13,o),
(422,53,o),
(444,106,c),
(468,106,l),
(468,39,ls),
(468,-80,o),
(413,-130,o),
(317,-130,cs),
(228,-130,o),
(188,-88,o),
(180,-42,c),
(72,-42,l),
(83,-119,o),
(141,-214,o),
(312,-214,cs)
);
},
{
closed = 1;
nodes = (
(205,103,o),
(153,179,o),
(153,314,cs),
(153,448,o),
(205,525,o),
(299,525,cs),
(399,525,o),
(459,439,o),
(459,314,cs),
(459,191,o),
(400,103,o),
(298,103,cs)
);
}
);
width = 650;
},
{
anchors = (
{
name = bottom;
pos = (338,-200);
},
{
name = top;
pos = (338,600);
}
);
guides = (
{
pos = (141,-24);
},
{
pos = (141,30);
}
);
layerId = "2C59C6D3-D4C2-4A05-8DF2-5125000072A2";
shapes = (
{
closed = 1;
nodes = (
(517,-215,o),
(606,-120,o),
(606,45,cs),
(606,600,l),
(456,600,l),
(456,528,l),
(432,528,l),
(408,581,o),
(360,615,o),
(277,615,cs),
(114,615,o),
(34,491,o),
(34,317,cs),
(34,135,o),
(118,18,o),
(274,18,cs),
(357,18,o),
(407,52,o),
(426,110,c),
(450,110,l),
(450,39,ls),
(450,-50,o),
(409,-101,o),
(326,-101,cs),
(253,-101,o),
(226,-63,o),
(220,-24,c),
(62,-24,l),
(68,-87,o),
(104,-215,o),
(328,-215,cs)
);
},
{
closed = 1;
nodes = (
(245,132,o),
(198,191,o),
(198,317,cs),
(198,440,o),
(245,501,o),
(318,501,cs),
(397,501,o),
(444,430,o),
(444,317,cs),
(444,204,o),
(397,132,o),
(318,132,cs)
);
}
);
width = 680;
}
);
unicode = 103;
},
{
color = 6;
glyphname = h;
kernLeft = b;
kernRight = h;
lastChange = "2022-02-18 13:14:15 +0000";
layers = (
{
anchors = (
{
name = bottom;
pos = (330,0);
},
{
name = center;
pos = (180,700);
},
{
name = top;
pos = (141,800);
}
);
guides = (
{
angle = 90;
pos = (218,510);
}
);
hints = (
{
horizontal = 1;
origin = (0,20);
target = up;
type = BottomGhost;
},
{
horizontal = 1;
origin = (0,13);
target = (0,4);
type = Stem;
},
{
origin = (0,20);
target = (0,0);
type = Stem;
},
{
origin = (0,8);
target = (0,9);
type = Stem;
},
{
horizontal = 1;
origin = (0,19);
target = down;
type = TopGhost;
}
);
layerId = "D6DAFCCC-80B4-447A-AB8D-F3640E986932";
shapes = (
{
closed = 1;
nodes = (
(194,0,l),
(194,323,ls),
(194,436,o),
(251,523,o),
(349,523,cs),
(428,523,o),
(464,466,o),
(464,362,cs),
(464,0,l),
(572,0,l),
(572,385,ls),
(572,519,o),
(511,615,o),
(374,615,cs),
(297,615,o),
(247,582,o),
(218,522,c),
(194,522,l),
(194,800,l),
(86,800,l),
(86,0,l)
);
}
);
width = 650;
},
{
anchors = (
{
name = bottom;
pos = (344,0);
},
{
name = center;
pos = (192,700);
},
{
name = top;
pos = (154,800);
}
);
background = {
shapes = (
{
closed = 1;
nodes = (
(236,0,l),
(236,324,ls),
(236,414,o),
(280,483,o),
(358,483,cs),
(424,483,o),
(452,436,o),
(452,354,cs),
(452,0,l),
(614,0,l),
(614,381,ls),
(614,525,o),
(547,615,o),
(414,615,cs),
(317,615,o),
(275,570,o),
(248,510,c),
(224,510,l),
(231,549,o),
(236,579,o),
(236,630,cs),
(236,800,l),
(74,800,l),
(74,0,l)
);
}
);
};
guides = (
{
angle = 90;
pos = (260,510);
}
);
layerId = "2C59C6D3-D4C2-4A05-8DF2-5125000072A2";
shapes = (
{
closed = 1;
nodes = (
(236,0,l),
(236,324,ls),
(236,414,o),
(280,483,o),
(358,483,cs),
(424,483,o),
(452,436,o),
(452,354,cs),
(452,0,l),
(614,0,l),
(614,381,ls),
(614,525,o),
(547,615,o),
(414,615,cs),
(330,615,o),
(287,578,o),
(260,528,c),
(236,528,l),
(236,800,l),
(74,800,l),
(74,0,l)
);
}
);
width = 680;
},
{
anchors = (
{
name = bottom;
pos = (330,0);
},
{
name = center;
pos = (180,700);
},
{
name = top;
pos = (141,800);
}
);
associatedMasterId = "D6DAFCCC-80B4-447A-AB8D-F3640E986932";
hints = (
{
horizontal = 1;
origin = (0,20);
target = up;
type = BottomGhost;
},
{
horizontal = 1;
place = (614, -105);
place = (614, -105);
type = Stem;
},
{
horizontal = 1;
origin = (0,19);
target = down;
type = TopGhost;
},
{
origin = (0,20);
target = (0,17);
type = Stem;
},
{
place = (462, 108);
place = (462, 108);
type = Stem;
}
);
layerId = "0D51802E-5981-44BC-85E1-C1687E81D38A";
name = "20 Aug 21, 08:57";
shapes = (
{
closed = 1;
nodes = (
(196,0,l),
(196,323,ls),
(196,436,o),
(251,522,o),
(349,522,cs),
(428,522,o),
(462,466,o),
(462,362,cs),
(462,0,l),
(570,0,l),
(570,385,ls),
(570,519,o),
(512,614,o),
(372,614,cs),
(285,614,o),
(228,577,o),
(208,509,c),
(194,509,l),
(194,800,l),
(88,800,l),
(88,0,l)
);
}
);
width = 650;
}
);
unicode = 104;
},
{
color = 6;
glyphname = idotless;
kernLeft = m;
kernRight = u;
lastChange = "2022-02-18 13:14:15 +0000";
layers = (
{
anchors = (
{
name = bottom;
pos = (140,0);
},
{
name = ogonek;
pos = (194,0);
},
{
name = top;
pos = (140,600);
}
);
hints = (
{
horizontal = 1;
origin = (0,3);
target = up;
type = BottomGhost;
},
{
horizontal = 1;
origin = (0,2);
target = down;
type = TopGhost;
},
{
origin = (0,3);
target = (0,0);
type = Stem;
}
);
layerId = "D6DAFCCC-80B4-447A-AB8D-F3640E986932";
shapes = (
{
closed = 1;
nodes = (
(194,0,l),
(194,600,l),
(86,600,l),
(86,0,l)
);
}
);
width = 280;
},
{
anchors = (
{
name = bottom;
pos = (155,0);
},
{
name = ogonek;
pos = (236,0);
},
{
name = top;
pos = (155,600);
}
);
layerId = "2C59C6D3-D4C2-4A05-8DF2-5125000072A2";
shapes = (
{
closed = 1;
nodes = (
(236,0,l),
(236,600,l),
(74,600,l),
(74,0,l)
);
}
);
width = 310;
}
);
unicode = 305;
},
{
color = 6;
glyphname = jdotless;
kernLeft = i;
kernRight = i;
lastChange = "2022-02-18 13:14:15 +0000";
layers = (
{
anchors = (
{
name = bottom;
pos = (140,-200);
},
{
name = top;
pos = (140,600);
}
);
hints = (
{
horizontal = 1;
origin = (0,5);
target = down;
type = TopGhost;
},
{
origin = (0,6);
target = (0,3);
type = Stem;
},
{
horizontal = 1;
origin = (0,10);
target = up;
type = BottomGhost;
}
);
layerId = "D6DAFCCC-80B4-447A-AB8D-F3640E986932";
shapes = (
{
closed = 1;
nodes = (
(139,-200,l),
(167,-164,o),
(194,-123,o),
(194,-21,cs),
(194,600,l),
(86,600,l),
(86,-7,ls),
(86,-103,o),
(59,-155,o),
(26,-194,c),
(26,-200,l)
);
}
);
width = 280;
},
{
anchors = (
{
name = bottom;
pos = (154,-200);
},
{
name = top;
pos = (155,600);
}
);
layerId = "2C59C6D3-D4C2-4A05-8DF2-5125000072A2";
shapes = (
{
closed = 1;
nodes = (
(179,-200,l),
(212,-160,o),
(236,-116,o),
(236,-21,cs),
(236,600,l),
(74,600,l),
(74,-4,ls),
(74,-92,o),
(52,-149,o),
(12,-194,c),
(12,-200,l)
);
}
);
width = 310;
}
);
unicode = 567;
},
{
color = 6;
glyphname = k;
kernLeft = b;
kernRight = k;
lastChange = "2022-02-18 13:14:15 +0000";
layers = (
{
anchors = (
{
name = bottom;
pos = (312,0);
},
{
name = top;
pos = (141,800);
}
);
background = {
shapes = (
{
closed = 1;
nodes = (
(194,0,l),
(194,260,l),
(246,260,l),
(450,0,l),
(586,0,l),
(586,1,l),
(330,318,l),
(558,599,l),
(558,600,l),
(436,600,l),
(246,360,l),
(194,360,l),
(194,800,l),
(88,800,l),
(88,0,l)
);
}
);
};
hints = (
{
horizontal = 1;
origin = (0,14);
target = up;
type = BottomGhost;
},
{
horizontal = 1;
origin = (0,1);
target = (0,11);
type = Stem;
},
{
horizontal = 1;
origin = (0,9);
target = down;
type = TopGhost;
},
{
origin = (0,14);
target = (0,0);
type = Stem;
},
{
horizontal = 1;
origin = (0,13);
target = down;
type = TopGhost;
}
);
layerId = "D6DAFCCC-80B4-447A-AB8D-F3640E986932";
shapes = (
{
closed = 1;
nodes = (
(194,0,l),
(194,265,l),
(242,265,l),
(450,0,l),
(582,0,l),
(582,6,l),
(330,318,l),
(558,594,l),
(558,600,l),
(438,600,l),
(242,355,l),
(194,355,l),
(194,800,l),
(88,800,l),
(88,0,l)
);
}
);
width = 600;
},
{
anchors = (
{
name = bottom;
pos = (343,0);
},
{
name = top;
pos = (154,800);
}
);
background = {
shapes = (
{
closed = 1;
nodes = (
(231,0,l),
(231,244,l),
(286,244,l),
(459,0,l),
(651,0,l),
(651,1,l),
(417,320,l),
(627,599,l),
(627,600,l),
(452,600,l),
(286,376,l),
(231,376,l),
(231,800,l),
(73,800,l),
(73,0,l)
);
}
);
};
layerId = "2C59C6D3-D4C2-4A05-8DF2-5125000072A2";
shapes = (
{
closed = 1;
nodes = (
(236,0,l),
(236,250,l),
(284,250,l),
(459,0,l),
(648,0,l),
(648,6,l),
(419,320,l),
(624,594,l),
(624,600,l),
(452,600,l),
(284,370,l),
(236,370,l),
(236,800,l),
(74,800,l),
(74,0,l)
);
}
);
width = 660;
},
{
anchors = (
{
name = bottom;
pos = (343,0);
},
{
name = top;
pos = (154,800);
}
);
associatedMasterId = "2C59C6D3-D4C2-4A05-8DF2-5125000072A2";
background = {
shapes = (
{
closed = 1;
nodes = (
(231,0,l),
(231,244,l),
(286,244,l),
(459,0,l),
(651,0,l),
(651,1,l),
(417,320,l),
(627,599,l),
(627,600,l),
(452,600,l),
(286,376,l),
(231,376,l),
(231,800,l),
(73,800,l),
(73,0,l)
);
}
);
};
layerId = "07F3B45F-7DCF-4116-BADC-C28C8289BF1D";
name = "20 Aug 21, 09:53";
shapes = (
{
closed = 1;
nodes = (
(231,0,l),
(231,244,l),
(286,244,l),
(459,0,l),
(651,0,l),
(651,1,l),
(417,320,l),
(627,599,l),
(627,600,l),
(452,600,l),
(286,376,l),
(231,376,l),
(231,800,l),
(73,800,l),
(73,0,l)
);
}
);
width = 660;
}
);
unicode = 107;
},
{
color = 6;
glyphname = kgreenlandic;
kernLeft = m;
kernRight = k;
lastChange = "2022-02-18 13:14:15 +0000";
layers = (
{
hints = (
{
horizontal = 1;
origin = (0,14);
target = up;
type = BottomGhost;
},
{
horizontal = 1;
origin = (0,1);
target = (0,11);
type = Stem;
},
{
horizontal = 1;
origin = (0,13);
target = down;
type = TopGhost;
},
{
origin = (0,14);
target = (0,0);
type = Stem;
}
);
layerId = "D6DAFCCC-80B4-447A-AB8D-F3640E986932";
shapes = (
{
closed = 1;
nodes = (
(194,0,l),
(194,265,l),
(242,265,l),
(450,0,l),
(582,0,l),
(582,6,l),
(330,318,l),
(558,594,l),
(558,600,l),
(438,600,l),
(242,355,l),
(194,355,l),
(194,600,l),
(88,600,l),
(88,0,l)
);
}
);
width = 600;
},
{
layerId = "2C59C6D3-D4C2-4A05-8DF2-5125000072A2";
shapes = (
{
closed = 1;
nodes = (
(236,0,l),
(236,250,l),
(284,250,l),
(459,0,l),
(648,0,l),
(648,6,l),
(419,320,l),
(624,594,l),
(624,600,l),
(452,600,l),
(284,370,l),
(236,370,l),
(236,600,l),
(74,600,l),
(74,0,l)
);
}
);
width = 660;
}
);
unicode = 312;
},
{
color = 6;
glyphname = l;
kernLeft = b;
kernRight = d;
lastChange = "2022-02-18 13:14:15 +0000";
layers = (
{
anchors = (
{
name = bottom;
pos = (178,0);
},
{
name = center;
pos = (309,330);
},
{
name = slash;
pos = (135,360);
},
{
name = top;
pos = (135,800);
},
{
name = topright;
pos = (189,800);
}
);
guides = (
{
angle = 90;
pos = (189,498);
}
);
hints = (
{
horizontal = 1;
origin = (0,10);
target = up;
type = BottomGhost;
},
{
origin = (0,7);
target = (0,4);
type = Stem;
},
{
horizontal = 1;
origin = (0,6);
target = down;
type = TopGhost;
}
);
layerId = "D6DAFCCC-80B4-447A-AB8D-F3640E986932";
shapes = (
{
closed = 1;
nodes = (
(249,0,l),
(249,6,l),
(216,42,o),
(189,86,o),
(189,193,cs),
(189,800,l),
(81,800,l),
(81,179,ls),
(81,77,o),
(100,36,o),
(130,0,c)
);
}
);
width = 280;
},
{
anchors = (
{
name = bottom;
pos = (198,0);
},
{
name = center;
pos = (350,330);
},
{
name = slash;
pos = (153,360);
},
{
name = top;
pos = (158,800);
},
{
name = topright;
pos = (234,800);
}
);
guides = (
{
angle = 90;
pos = (234,498);
}
);
layerId = "2C59C6D3-D4C2-4A05-8DF2-5125000072A2";
shapes = (
{
closed = 1;
nodes = (
(296,0,l),
(296,6,l),
(259,45,o),
(234,95,o),
(234,196,cs),
(234,800,l),
(72,800,l),
(72,179,ls),
(72,91,o),
(86,42,o),
(123,0,c)
);
}
);
width = 314;
}
);
unicode = 108;
},
{
color = 6;
glyphname = m;
kernLeft = m;
kernRight = h;
lastChange = "2022-02-18 13:14:15 +0000";
layers = (
{
hints = (
{
horizontal = 1;
origin = (0,36);
target = up;
type = BottomGhost;
},
{
horizontal = 1;
origin = (0,29);
target = (0,4);
type = Stem;
},
{
horizontal = 1;
origin = (0,35);
target = down;
type = TopGhost;
},
{
origin = (0,36);
target = (0,0);
type = Stem;
},
{
origin = (0,8);
target = (0,9);
type = Stem;
},
{
origin = (0,17);
target = (0,18);
type = Stem;
}
);
layerId = "D6DAFCCC-80B4-447A-AB8D-F3640E986932";
shapes = (
{
closed = 1;
nodes = (
(194,0,l),
(194,323,ls),
(194,436,o),
(245,523,o),
(335,523,cs),
(408,523,o),
(440,466,o),
(440,362,cs),
(440,0,l),
(548,0,l),
(548,323,ls),
(548,436,o),
(599,523,o),
(689,523,cs),
(762,523,o),
(794,466,o),
(794,362,cs),
(794,0,l),
(902,0,l),
(902,385,ls),
(902,519,o),
(846,615,o),
(714,615,cs),
(628,615,o),
(572,577,o),
(550,509,c),
(526,509,l),
(500,574,o),
(446,615,o),
(360,615,cs),
(278,615,o),
(224,577,o),
(206,509,c),
(182,509,l),
(182,600,l),
(86,600,l),
(86,0,l)
);
}
);
width = 980;
},
{
layerId = "2C59C6D3-D4C2-4A05-8DF2-5125000072A2";
shapes = (
{
closed = 1;
nodes = (
(236,0,l),
(236,324,ls),
(236,413,o),
(276,483,o),
(348,483,cs),
(408,483,o),
(433,435,o),
(433,354,cs),
(433,0,l),
(595,0,l),
(595,324,ls),
(595,413,o),
(634,483,o),
(707,483,cs),
(767,483,o),
(792,435,o),
(792,354,cs),
(792,0,l),
(954,0,l),
(954,381,ls),
(954,525,o),
(890,615,o),
(761,615,cs),
(672,615,o),
(624,570,o),
(600,510,c),
(576,510,l),
(547,577,o),
(492,615,o),
(409,615,cs),
(316,615,o),
(270,567,o),
(248,510,c),
(224,510,l),
(224,600,l),
(74,600,l),
(74,0,l)
);
}
);
width = 1020;
}
);
unicode = 109;
},
{
color = 6;
glyphname = n;
kernLeft = m;
kernRight = h;
lastChange = "2022-02-18 13:14:15 +0000";
layers = (
{
anchors = (
{
name = bottom;
pos = (330,0);
},
{
name = top;
pos = (330,600);
}
);
hints = (
{
horizontal = 1;
origin = (0,20);
target = up;
type = BottomGhost;
},
{
horizontal = 1;
origin = (0,13);
target = (0,4);
type = Stem;
},
{
horizontal = 1;
origin = (0,19);
target = down;
type = TopGhost;
},
{
origin = (0,20);
target = (0,0);
type = Stem;
},
{
origin = (0,8);
target = (0,9);
type = Stem;
}
);
layerId = "D6DAFCCC-80B4-447A-AB8D-F3640E986932";
shapes = (
{
closed = 1;
nodes = (
(194,0,l),
(194,323,ls),
(194,436,o),
(251,523,o),
(349,523,cs),
(428,523,o),
(464,466,o),
(464,362,cs),
(464,0,l),
(572,0,l),
(572,385,ls),
(572,519,o),
(512,615,o),
(372,615,cs),
(285,615,o),
(228,577,o),
(206,510,c),
(182,510,l),
(182,600,l),
(86,600,l),
(86,0,l)
);
}
);
width = 650;
},
{
anchors = (
{
name = bottom;
pos = (344,0);
},
{
name = top;
pos = (344,600);
}
);
background = {
shapes = (
{
closed = 1;
nodes = (
(236,0,l),
(236,324,ls),
(236,414,o),
(278,483,o),
(358,483,cs),
(424,483,o),
(452,436,o),
(452,354,cs),
(452,0,l),
(614,0,l),
(614,381,ls),
(614,525,o),
(547,615,o),
(414,615,cs),
(317,615,o),
(262,570,o),
(242,510,c),
(218,510,l),
(218,600,l),
(74,600,l),
(74,0,l)
);
}
);
};
layerId = "2C59C6D3-D4C2-4A05-8DF2-5125000072A2";
shapes = (
{
closed = 1;
nodes = (
(236,0,l),
(236,324,ls),
(236,414,o),
(280,483,o),
(358,483,cs),
(424,483,o),
(452,436,o),
(452,354,cs),
(452,0,l),
(614,0,l),
(614,381,ls),
(614,525,o),
(547,615,o),
(414,615,cs),
(317,615,o),
(272,570,o),
(248,510,c),
(224,510,l),
(224,600,l),
(74,600,l),
(74,0,l)
);
}
);
width = 680;
}
);
unicode = 110;
},
{
color = 6;
glyphname = eng;
kernLeft = m;
kernRight = h;
lastChange = "2022-02-18 13:14:15 +0000";
layers = (
{
anchors = (
{
name = bottom;
pos = (350,0);
},
{
name = top;
pos = (350,600);
}
);
hints = (
{
horizontal = 1;
origin = (0,14);
target = up;
type = BottomGhost;
},
{
horizontal = 1;
origin = (0,7);
target = (0,19);
type = Stem;
},
{
horizontal = 1;
origin = (0,13);
target = down;
type = TopGhost;
},
{
origin = (0,14);
target = (0,15);
type = Stem;
},
{
origin = (0,23);
target = (0,3);
type = Stem;
},
{
horizontal = 1;
origin = (0,0);
target = up;
type = BottomGhost;
}
);
layerId = "D6DAFCCC-80B4-447A-AB8D-F3640E986932";
shapes = (
{
closed = 1;
nodes = (
(517,-200,l),
(545,-164,o),
(572,-123,o),
(572,-21,cs),
(572,385,ls),
(572,519,o),
(512,615,o),
(372,615,cs),
(285,615,o),
(228,577,o),
(206,510,c),
(182,510,l),
(182,600,l),
(86,600,l),
(86,0,l),
(194,0,l),
(194,323,ls),
(194,436,o),
(251,523,o),
(349,523,cs),
(428,523,o),
(464,466,o),
(464,362,cs),
(464,-7,ls),
(464,-103,o),
(437,-155,o),
(404,-194,c),
(404,-200,l)
);
}
);
width = 650;
},
{
anchors = (
{
name = bottom;
pos = (340,0);
},
{
name = top;
pos = (340,600);
}
);
layerId = "2C59C6D3-D4C2-4A05-8DF2-5125000072A2";
shapes = (
{
closed = 1;
nodes = (
(557,-200,l),
(590,-160,o),
(614,-116,o),
(614,-21,cs),
(614,381,ls),
(614,525,o),
(547,615,o),
(414,615,cs),
(317,615,o),
(272,570,o),
(248,510,c),
(224,510,l),
(224,600,l),
(74,600,l),
(74,0,l),
(236,0,l),
(236,324,ls),
(236,414,o),
(280,483,o),
(358,483,cs),
(424,483,o),
(452,436,o),
(452,354,cs),
(452,-4,ls),
(452,-92,o),
(430,-149,o),
(390,-194,c),
(390,-200,l)
);
}
);
width = 680;
}
);
unicode = 331;
},
{
color = 6;
glyphname = o;
kernLeft = c;
kernRight = b;
lastChange = "2022-02-18 13:14:15 +0000";
layers = (
{
anchors = (
{
name = bottom;
pos = (315,0);
},
{
name = center;
pos = (315,300);
},
{
name = ogonek;
pos = (404,0);
},
{
name = top;
pos = (315,600);
},
{
name = topright;
pos = (585,600);
}
);
hints = (
{
horizontal = 1;
origin = (0,11);
target = (1,11);
type = Stem;
},
{
horizontal = 1;
origin = (0,5);
target = (1,5);
type = Stem;
},
{
origin = (0,8);
target = (1,2);
type = Stem;
},
{
origin = (1,8);
target = (0,2);
type = Stem;
}
);
layerId = "D6DAFCCC-80B4-447A-AB8D-F3640E986932";
shapes = (
{
closed = 1;
nodes = (
(498,-15,o),
(585,108,o),
(585,300,cs),
(585,492,o),
(498,615,o),
(315,615,cs),
(132,615,o),
(45,492,o),
(45,300,cs),
(45,108,o),
(132,-15,o),
(315,-15,cs)
);
},
{
closed = 1;
nodes = (
(204,73,o),
(155,160,o),
(155,300,cs),
(155,440,o),
(204,527,o),
(315,527,cs),
(426,527,o),
(475,440,o),
(475,300,cs),
(475,160,o),
(426,73,o),
(315,73,cs)
);
}
);
width = 630;
},
{
anchors = (
{
name = bottom;
pos = (330,0);
},
{
name = center;
pos = (330,300);
},
{
name = ogonek;
pos = (430,0);
},
{
name = top;
pos = (330,600);
},
{
name = topright;
pos = (640,600);
}
);
layerId = "2C59C6D3-D4C2-4A05-8DF2-5125000072A2";
shapes = (
{
closed = 1;
nodes = (
(529,-15,o),
(626,108,o),
(626,300,cs),
(626,492,o),
(529,615,o),
(330,615,cs),
(131,615,o),
(34,492,o),
(34,300,cs),
(34,108,o),
(131,-15,o),
(330,-15,cs)
);
},
{
closed = 1;
nodes = (
(242,93,o),
(202,162,o),
(202,300,cs),
(202,438,o),
(242,507,o),
(330,507,cs),
(418,507,o),
(458,438,o),
(458,300,cs),
(458,162,o),
(418,93,o),
(330,93,cs)
);
}
);
width = 660;
}
);
unicode = 111;
},
{
color = 6;
glyphname = ohorn;
kernLeft = c;
kernRight = ohorn;
lastChange = "2022-02-18 13:14:15 +0000";
layers = (
{
anchors = (
{
name = bottom;
pos = (327,0);
},
{
name = center;
pos = (315,300);
},
{
name = ogonek;
pos = (567,10);
},
{
name = top;
pos = (315,600);
}
);
hints = (
{
horizontal = 1;
origin = (0,22);
target = (1,11);
type = Stem;
},
{
horizontal = 1;
origin = (0,16);
target = (1,5);
type = Stem;
},
{
origin = (0,19);
target = (1,2);
type = Stem;
},
{
origin = (1,8);
target = (0,2);
type = Stem;
},
{
origin = (0,9);
target = (0,8);
type = Stem;
},
{
horizontal = 1;
origin = (0,13);
target = down;
type = TopGhost;
},
{
horizontal = 1;
origin = (0,9);
target = down;
type = TopGhost;
}
);
layerId = "D6DAFCCC-80B4-447A-AB8D-F3640E986932";
shapes = (
{
closed = 1;
nodes = (
(498,-15,o),
(585,108,o),
(585,300,cs),
(585,361,o),
(576,414,o),
(559,459,c),
(641,483,o),
(672,567,o),
(672,660,c),
(588,660,l),
(588,598,o),
(578,544,o),
(547,522,c),
(523,522,l),
(478,582,o),
(409,615,o),
(315,615,cs),
(132,615,o),
(45,492,o),
(45,300,cs),
(45,108,o),
(132,-15,o),
(315,-15,cs)
);
},
{
closed = 1;
nodes = (
(204,73,o),
(155,160,o),
(155,300,cs),
(155,440,o),
(204,527,o),
(315,527,cs),
(426,527,o),
(475,440,o),
(475,300,cs),
(475,160,o),
(426,73,o),
(315,73,cs)
);
}
);
width = 650;
},
{
anchors = (
{
name = bottom;
pos = (342,0);
},
{
name = center;
pos = (330,300);
},
{
name = ogonek;
pos = (594,10);
},
{
name = top;
pos = (330,600);
}
);
layerId = "2C59C6D3-D4C2-4A05-8DF2-5125000072A2";
shapes = (
{
closed = 1;
nodes = (
(529,-15,o),
(626,108,o),
(626,300,cs),
(626,358,o),
(617,410,o),
(599,453,c),
(674,479,o),
(712,553,o),
(712,660,c),
(591,660,l),
(589,606,o),
(581,565,o),
(560,540,c),
(536,540,l),
(491,589,o),
(421,615,o),
(330,615,cs),
(131,615,o),
(34,492,o),
(34,300,cs),
(34,108,o),
(131,-15,o),
(330,-15,cs)
);
},
{
closed = 1;
nodes = (
(242,93,o),
(202,162,o),
(202,300,cs),
(202,438,o),
(242,507,o),
(330,507,cs),
(418,507,o),
(458,438,o),
(458,300,cs),
(458,162,o),
(418,93,o),
(330,93,cs)
);
}
);
width = 680;
}
);
unicode = 417;
},
{
color = 6;
glyphname = oslash;
kernLeft = c;
kernRight = b;
lastChange = "2022-02-18 13:14:15 +0000";
layers = (
{
anchors = (
{
name = _center;
pos = (315,300);
},
{
name = bottom;
pos = (315,0);
},
{
name = center;
pos = (315,300);
},
{
name = ogonek;
pos = (567,10);
},
{
name = top;
pos = (315,600);
},
{
name = topright;
pos = (610,600);
}
);
hints = (
{
horizontal = 1;
origin = (0,3);
target = (1,13);
type = Stem;
},
{
horizontal = 1;
origin = (0,15);
target = (2,5);
type = Stem;
},
{
origin = (0,18);
target = (2,2);
type = Stem;
},
{
origin = (1,10);
target = (0,6);
type = Stem;
}
);
layerId = "D6DAFCCC-80B4-447A-AB8D-F3640E986932";
shapes = (
{
closed = 1;
nodes = (
(142,40,l),
(185,4,o),
(243,-15,o),
(315,-15,cs),
(498,-15,o),
(585,108,o),
(585,300,cs),
(585,385,o),
(568,456,o),
(534,509,c),
(596,584,l),
(545,629,l),
(488,560,l),
(445,596,o),
(387,615,o),
(315,615,cs),
(132,615,o),
(45,492,o),
(45,300,cs),
(45,215,o),
(62,144,o),
(96,91,c),
(34,16,l),
(85,-29,l)
);
},
{
closed = 1;
nodes = (
(268,73,o),
(232,88,o),
(207,117,c),
(410,360,ls),
(429,382,o),
(441,403,o),
(445,420,c),
(469,420,l),
(476,394,o),
(481,365,o),
(481,318,cs),
(481,160,o),
(426,73,o),
(315,73,cs)
);
},
{
closed = 1;
nodes = (
(154,206,o),
(149,235,o),
(149,282,cs),
(149,440,o),
(204,527,o),
(315,527,cs),
(362,527,o),
(398,512,o),
(423,483,c),
(220,240,ls),
(201,218,o),
(189,197,o),
(185,180,c),
(161,180,l)
);
}
);
width = 630;
},
{
anchors = (
{
name = _center;
pos = (330,300);
},
{
name = bottom;
pos = (330,0);
},
{
name = center;
pos = (330,300);
},
{
name = ogonek;
pos = (594,10);
},
{
name = top;
pos = (330,600);
},
{
name = topright;
pos = (640,600);
}
);
layerId = "2C59C6D3-D4C2-4A05-8DF2-5125000072A2";
shapes = (
{
closed = 1;
nodes = (
(152,32,l),
(197,2,o),
(257,-15,o),
(330,-15,cs),
(529,-15,o),
(626,108,o),
(626,300,cs),
(626,388,o),
(606,461,o),
(565,515,c),
(617,576,l),
(553,631,l),
(502,572,l),
(457,600,o),
(400,615,o),
(330,615,cs),
(131,615,o),
(34,492,o),
(34,300,cs),
(34,215,o),
(53,144,o),
(91,91,c),
(43,35,l),
(107,-20,l)
);
},
{
closed = 1;
nodes = (
(290,93,o),
(263,107,o),
(243,135,c),
(384,300,ls),
(412,332,o),
(429,355,o),
(440,381,c),
(464,381,l),
(468,363,o),
(470,341,o),
(470,312,cs),
(470,163,o),
(418,93,o),
(330,93,cs)
);
},
{
closed = 1;
nodes = (
(192,243,o),
(190,261,o),
(190,289,cs),
(190,437,o),
(242,507,o),
(330,507,cs),
(367,507,o),
(395,495,o),
(416,471,c),
(270,300,ls),
(248,274,o),
(230,251,o),
(219,225,c),
(195,225,l)
);
}
);
width = 660;
}
);
unicode = 248;
},
{
color = 6;
glyphname = oe;
kernLeft = c;
kernRight = e;
lastChange = "2022-02-18 13:14:15 +0000";
layers = (
{
background = {
shapes = (
{
closed = 1;
nodes = (
(355,-15,o),
(424,40,o),
(459,99,c),
(483,99,l),
(519,32,o),
(590,-15,o),
(692,-15,cs),
(822,-15,o),
(903,64,o),
(932,180,c),
(831,180,l),
(812,113,o),
(769,71,o),
(694,71,cs),
(591,71,o),
(540,154,o),
(535,281,c),
(945,281,l),
(945,310,ls),
(945,488,o),
(868,615,o),
(703,615,cs),
(602,615,o),
(546,569,o),
(513,520,c),
(489,520,l),
(460,567,o),
(399,615,o),
(296,615,cs),
(150,615,o),
(73,522,o),
(59,410,c),
(165,410,l),
(170,468,o),
(211,529,o),
(293,529,cs),
(373,529,o),
(430,471,o),
(430,384,cs),
(430,362,l),
(322,362,ls),
(142,362,o),
(44,289,o),
(44,165,cs),
(44,55,o),
(132,-15,o),
(252,-15,cs)
);
},
{
closed = 1;
nodes = (
(199,71,o),
(155,107,o),
(155,169,cs),
(155,230,o),
(200,281,o),
(323,281,cs),
(430,281,l),
(430,247,ls),
(430,156,o),
(362,71,o),
(265,71,cs)
);
},
{
closed = 1;
nodes = (
(546,460,o),
(596,529,o),
(691,529,cs),
(779,529,o),
(829,467,o),
(836,362,c),
(536,362,l)
);
}
);
};
hints = (
{
horizontal = 1;
origin = (0,34);
target = (1,11);
type = Stem;
},
{
horizontal = 1;
origin = (0,16);
target = (2,6);
type = Stem;
},
{
horizontal = 1;
origin = (0,28);
target = (1,5);
type = Stem;
},
{
origin = (0,31);
target = (1,2);
type = Stem;
},
{
origin = (1,8);
target = (0,16);
type = Stem;
},
{
origin = (2,5);
target = (0,17);
type = Stem;
},
{
horizontal = 1;
origin = (0,10);
target = down;
type = TopGhost;
}
);
layerId = "D6DAFCCC-80B4-447A-AB8D-F3640E986932";
shapes = (
{
closed = 1;
nodes = (
(382,-15,o),
(439,32,o),
(477,92,c),
(501,92,l),
(535,36,o),
(597,-15,o),
(701,-15,cs),
(832,-15,o),
(910,69,o),
(938,180,c),
(843,180,l),
(824,116,o),
(781,73,o),
(703,73,cs),
(600,73,o),
(546,148,o),
(542,285,c),
(945,285,l),
(945,314,ls),
(945,518,o),
(854,615,o),
(699,615,cs),
(599,615,o),
(542,574,o),
(501,520,c),
(477,520,l),
(438,573,o),
(382,615,o),
(292,615,cs),
(130,615,o),
(45,490,o),
(45,301,cs),
(45,109,o),
(131,-15,o),
(289,-15,cs)
);
},
{
closed = 1;
nodes = (
(203,73,o),
(155,160,o),
(155,300,cs),
(155,440,o),
(203,527,o),
(299,527,cs),
(394,527,o),
(441,439,o),
(441,300,cs),
(441,161,o),
(394,73,o),
(299,73,cs)
);
},
{
closed = 1;
nodes = (
(551,459,o),
(600,527,o),
(697,527,cs),
(787,527,o),
(833,472,o),
(839,362,c),
(542,362,l)
);
}
);
width = 980;
},
{
layerId = "2C59C6D3-D4C2-4A05-8DF2-5125000072A2";
shapes = (
{
closed = 1;
nodes = (
(413,-15,o),
(471,24,o),
(509,84,c),
(527,84,l),
(563,24,o),
(627,-15,o),
(725,-15,cs),
(864,-15,o),
(949,67,o),
(980,180,c),
(842,180,l),
(827,135,o),
(791,97,o),
(729,97,cs),
(651,97,o),
(601,161,o),
(596,263,c),
(990,263,l),
(990,298,ls),
(990,426,o),
(955,615,o),
(725,615,cs),
(629,615,o),
(571,582,o),
(529,522,c),
(510,522,l),
(468,582,o),
(409,615,o),
(315,615,cs),
(129,615,o),
(34,486,o),
(34,301,cs),
(34,114,o),
(130,-15,o),
(313,-15,cs)
);
},
{
closed = 1;
nodes = (
(234,93,o),
(194,163,o),
(194,300,cs),
(194,437,o),
(234,507,o),
(319,507,cs),
(403,507,o),
(444,438,o),
(444,300,cs),
(444,162,o),
(403,93,o),
(319,93,cs)
);
},
{
closed = 1;
nodes = (
(604,453,o),
(647,507,o),
(721,507,cs),
(793,507,o),
(834,457,o),
(840,359,c),
(596,359,l)
);
}
);
width = 1020;
}
);
unicode = 339;
},
{
color = 6;
glyphname = p;
kernLeft = p;
kernRight = b;
lastChange = "2022-02-18 13:14:15 +0000";
layers = (
{
hints = (
{
horizontal = 1;
origin = (0,5);
target = (1,11);
type = Stem;
},
{
horizontal = 1;
origin = (0,11);
target = (1,5);
type = Stem;
},
{
horizontal = 1;
origin = (0,17);
target = down;
type = TopGhost;
},
{
origin = (0,18);
target = (0,0);
type = Stem;
},
{
origin = (1,8);
target = (0,8);
type = Stem;
}
);
layerId = "D6DAFCCC-80B4-447A-AB8D-F3640E986932";
shapes = (
{
closed = 1;
nodes = (
(194,-200,l),
(194,72,l),
(218,72,l),
(244,20,o),
(294,-15,o),
(375,-15,cs),
(527,-15,o),
(615,109,o),
(615,300,cs),
(615,492,o),
(527,615,o),
(373,615,cs),
(281,615,o),
(227,570,o),
(206,522,c),
(182,522,l),
(182,600,l),
(86,600,l),
(86,-200,l)
);
},
{
closed = 1;
nodes = (
(254,75,o),
(191,165,o),
(191,300,cs),
(191,435,o),
(254,525,o),
(354,525,cs),
(451,525,o),
(505,443,o),
(505,300,cs),
(505,157,o),
(451,75,o),
(354,75,cs)
);
}
);
width = 660;
},
{
layerId = "2C59C6D3-D4C2-4A05-8DF2-5125000072A2";
shapes = (
{
closed = 1;
nodes = (
(236,-200,l),
(236,66,l),
(260,66,l),
(289,18,o),
(338,-12,o),
(416,-12,cs),
(576,-12,o),
(656,114,o),
(656,299,cs),
(656,480,o),
(580,612,o),
(416,612,cs),
(327,612,o),
(276,573,o),
(248,522,c),
(224,522,l),
(224,600,l),
(74,600,l),
(74,-200,l)
);
},
{
closed = 1;
nodes = (
(289,102,o),
(236,178,o),
(236,300,cs),
(236,422,o),
(289,498,o),
(370,498,cs),
(443,498,o),
(488,432,o),
(488,300,cs),
(488,168,o),
(443,102,o),
(370,102,cs)
);
}
);
width = 690;
},
{
associatedMasterId = "2C59C6D3-D4C2-4A05-8DF2-5125000072A2";
layerId = "3657D9C5-EECC-4CC5-9E9C-F45343152B7F";
name = "20 Aug 21, 09:32";
shapes = (
{
closed = 1;
nodes = (
(232,-200,l),
(232,78,l),
(254,78,l),
(274,21,o),
(326,-15,o),
(413,-15,cs),
(580,-15,o),
(656,117,o),
(656,301,cs),
(656,489,o),
(576,615,o),
(414,615,cs),
(327,615,o),
(274,579,o),
(254,522,c),
(228,522,l),
(228,600,l),
(72,600,l),
(72,-200,l)
);
},
{
closed = 1;
nodes = (
(286,99,o),
(232,178,o),
(232,300,cs),
(232,422,o),
(286,501,o),
(368,501,cs),
(443,501,o),
(488,435,o),
(488,300,cs),
(488,165,o),
(443,99,o),
(368,99,cs)
);
}
);
width = 690;
}
);
unicode = 112;
},
{
color = 6;
glyphname = thorn;
kernLeft = b;
kernRight = b;
lastChange = "2022-02-18 13:14:15 +0000";
layers = (
{
hints = (
{
horizontal = 1;
origin = (0,5);
target = (1,11);
type = Stem;
},
{
horizontal = 1;
origin = (0,11);
target = (1,5);
type = Stem;
},
{
origin = (0,18);
target = (0,0);
type = Stem;
},
{
origin = (1,8);
target = (0,8);
type = Stem;
},
{
horizontal = 1;
origin = (0,17);
target = down;
type = TopGhost;
},
{
horizontal = 1;
origin = (0,18);
target = up;
type = BottomGhost;
}
);
layerId = "D6DAFCCC-80B4-447A-AB8D-F3640E986932";
shapes = (
{
closed = 1;
nodes = (
(194,-200,l),
(194,72,l),
(218,72,l),
(244,20,o),
(294,-15,o),
(375,-15,cs),
(527,-15,o),
(615,109,o),
(615,300,cs),
(615,493,o),
(526,615,o),
(375,615,cs),
(294,615,o),
(244,580,o),
(218,528,c),
(194,528,l),
(194,800,l),
(86,800,l),
(86,-200,l)
);
},
{
closed = 1;
nodes = (
(254,75,o),
(191,165,o),
(191,300,cs),
(191,435,o),
(254,525,o),
(354,525,cs),
(451,525,o),
(505,443,o),
(505,300,cs),
(505,157,o),
(451,75,o),
(354,75,cs)
);
}
);
width = 660;
},
{
layerId = "2C59C6D3-D4C2-4A05-8DF2-5125000072A2";
shapes = (
{
closed = 1;
nodes = (
(236,-200,l),
(236,66,l),
(260,66,l),
(289,18,o),
(338,-12,o),
(416,-12,cs),
(576,-12,o),
(656,114,o),
(656,299,cs),
(656,480,o),
(580,612,o),
(416,612,cs),
(338,612,o),
(289,582,o),
(260,534,c),
(236,534,l),
(236,800,l),
(74,800,l),
(74,-200,l)
);
},
{
closed = 1;
nodes = (
(289,102,o),
(236,178,o),
(236,300,cs),
(236,422,o),
(289,498,o),
(370,498,cs),
(443,498,o),
(488,432,o),
(488,300,cs),
(488,168,o),
(443,102,o),
(370,102,cs)
);
}
);
width = 690;
},
{
associatedMasterId = "D6DAFCCC-80B4-447A-AB8D-F3640E986932";
hints = (
{
horizontal = 1;
origin = (0,18);
target = up;
type = BottomGhost;
},
{
horizontal = 1;
origin = (0,5);
target = (1,11);
type = Stem;
},
{
horizontal = 1;
origin = (0,11);
target = (1,5);
type = Stem;
},
{
horizontal = 1;
origin = (0,17);
target = down;
type = TopGhost;
},
{
origin = (0,18);
target = (0,0);
type = Stem;
},
{
origin = (1,8);
target = (0,8);
type = Stem;
}
);
layerId = "E97EB99E-EE06-4E39-B833-1EA519D180BE";
name = "23 Aug 21, 14:50";
shapes = (
{
closed = 1;
nodes = (
(194,-200,l),
(194,90,l),
(206,90,l),
(235,41,o),
(292,-15,o),
(388,-15,cs),
(524,-15,o),
(615,97,o),
(615,300,cs),
(615,503,o),
(524,615,o),
(388,615,cs),
(292,615,o),
(235,559,o),
(206,510,c),
(194,510,l),
(194,800,l),
(88,800,l),
(88,-200,l)
);
},
{
closed = 1;
nodes = (
(260,75,o),
(192,161,o),
(192,300,cs),
(192,439,o),
(260,525,o),
(355,525,cs),
(444,525,o),
(503,452,o),
(503,300,cs),
(503,148,o),
(444,75,o),
(355,75,cs)
);
}
);
width = 660;
}
);
unicode = 254;
},
{
color = 6;
glyphname = q;
kernLeft = c;
kernRight = q;
lastChange = "2022-02-18 13:14:15 +0000";
layers = (
{
hints = (
{
horizontal = 1;
origin = (0,13);
target = (1,11);
type = Stem;
},
{
horizontal = 1;
origin = (0,7);
target = (1,5);
type = Stem;
},
{
horizontal = 1;
origin = (0,2);
target = down;
type = TopGhost;
},
{
origin = (0,10);
target = (1,2);
type = Stem;
},
{
origin = (0,18);
target = (0,0);
type = Stem;
},
{
horizontal = 1;
origin = (0,18);
target = up;
type = BottomGhost;
}
);
layerId = "D6DAFCCC-80B4-447A-AB8D-F3640E986932";
shapes = (
{
closed = 1;
nodes = (
(574,-200,l),
(574,600,l),
(478,600,l),
(478,522,l),
(454,522,l),
(433,570,o),
(379,615,o),
(287,615,cs),
(133,615,o),
(45,492,o),
(45,300,cs),
(45,109,o),
(133,-15,o),
(285,-15,cs),
(366,-15,o),
(416,20,o),
(442,72,c),
(466,72,l),
(466,-200,l)
);
},
{
closed = 1;
nodes = (
(209,75,o),
(155,157,o),
(155,300,cs),
(155,443,o),
(209,525,o),
(306,525,cs),
(406,525,o),
(469,435,o),
(469,300,cs),
(469,165,o),
(406,75,o),
(306,75,cs)
);
}
);
width = 660;
},
{
layerId = "2C59C6D3-D4C2-4A05-8DF2-5125000072A2";
shapes = (
{
closed = 1;
nodes = (
(618,-200,l),
(618,600,l),
(468,600,l),
(468,522,l),
(444,522,l),
(416,573,o),
(365,612,o),
(276,612,cs),
(112,612,o),
(36,480,o),
(36,299,cs),
(36,114,o),
(116,-12,o),
(276,-12,cs),
(354,-12,o),
(403,18,o),
(432,66,c),
(456,66,l),
(456,-200,l)
);
},
{
closed = 1;
nodes = (
(249,102,o),
(204,168,o),
(204,300,cs),
(204,432,o),
(249,498,o),
(322,498,cs),
(403,498,o),
(456,422,o),
(456,300,cs),
(456,178,o),
(403,102,o),
(322,102,cs)
);
}
);
width = 690;
},
{
associatedMasterId = "2C59C6D3-D4C2-4A05-8DF2-5125000072A2";
layerId = "62F8CC21-C918-4333-98B0-57394382EB36";
name = "20 Aug 21, 09:32";
shapes = (
{
closed = 1;
nodes = (
(618,-200,l),
(618,600,l),
(462,600,l),
(462,522,l),
(436,522,l),
(416,579,o),
(363,615,o),
(276,615,cs),
(114,615,o),
(34,489,o),
(34,301,cs),
(34,117,o),
(110,-15,o),
(277,-15,cs),
(364,-15,o),
(416,21,o),
(436,78,c),
(458,78,l),
(458,-200,l)
);
},
{
closed = 1;
nodes = (
(247,99,o),
(202,165,o),
(202,300,cs),
(202,435,o),
(247,501,o),
(322,501,cs),
(404,501,o),
(458,422,o),
(458,300,cs),
(458,178,o),
(404,99,o),
(322,99,cs)
);
}
);
width = 690;
}
);
unicode = 113;
},
{
color = 6;
glyphname = r;
kernLeft = m;
kernRight = r;
lastChange = "2022-02-18 13:14:15 +0000";
layers = (
{
anchors = (
{
name = bottom;
pos = (142,0);
},
{
name = top;
pos = (239,600);
}
);
hints = (
{
horizontal = 1;
origin = (0,14);
target = up;
type = BottomGhost;
},
{
horizontal = 1;
origin = (0,7);
target = (0,4);
type = Stem;
},
{
horizontal = 1;
origin = (0,13);
target = down;
type = TopGhost;
},
{
origin = (0,14);
target = (0,0);
type = Stem;
}
);
layerId = "D6DAFCCC-80B4-447A-AB8D-F3640E986932";
shapes = (
{
closed = 1;
nodes = (
(196,0,l),
(196,312,ls),
(196,444,o),
(240,504,o),
(360,504,cs),
(390,504,l),
(390,606,l),
(370,606,ls),
(250,606,o),
(220,548,o),
(208,498,c),
(184,498,l),
(184,600,l),
(88,600,l),
(88,0,l)
);
}
);
width = 420;
},
{
anchors = (
{
name = bottom;
pos = (154,0);
},
{
name = top;
pos = (269,600);
}
);
layerId = "2C59C6D3-D4C2-4A05-8DF2-5125000072A2";
shapes = (
{
closed = 1;
nodes = (
(234,0,l),
(234,288,ls),
(234,402,o),
(282,460,o),
(396,460,cs),
(440,460,l),
(440,606,l),
(408,606,ls),
(294,606,o),
(256,550,o),
(244,490,c),
(220,490,l),
(220,600,l),
(72,600,l),
(72,0,l)
);
}
);
width = 470;
}
);
unicode = 114;
},
{
color = 6;
glyphname = s;
kernLeft = s;
kernRight = s;
lastChange = "2022-02-18 13:14:15 +0000";
layers = (
{
anchors = (
{
name = bottom;
pos = (285,0);
},
{
name = top;
pos = (265,600);
}
);
guides = (
{
angle = 159.487;
pos = (283,253);
},
{
angle = 159.487;
pos = (283,353);
},
{
angle = 71.487;
pos = (283,303);
},
{
angle = 71.487;
pos = (223,303);
},
{
angle = 71.487;
pos = (343,303);
}
);
hints = (
{
horizontal = 1;
origin = (0,39);
target = (0,32);
type = Stem;
},
{
horizontal = 1;
origin = (0,19);
target = (0,12);
type = Stem;
},
{
origin = (0,22);
target = (0,9);
type = Stem;
},
{
origin = (0,29);
target = (0,2);
type = Stem;
},
{
horizontal = 1;
origin = (0,15);
target = up;
type = BottomGhost;
},
{
horizontal = 1;
origin = (0,36);
target = down;
type = TopGhost;
}
);
layerId = "D6DAFCCC-80B4-447A-AB8D-F3640E986932";
shapes = (
{
closed = 1;
nodes = (
(423,-15,o),
(500,57,o),
(500,160,cs),
(500,260,o),
(429,299,o),
(333,335,cs),
(262,359,ls),
(198,383,o),
(166,410,o),
(166,455,cs),
(166,502,o),
(200,531,o),
(263,531,cs),
(342,531,o),
(372,482,o),
(378,432,c),
(480,432,l),
(472,536,o),
(406,615,o),
(268,615,cs),
(140,615,o),
(62,548,o),
(62,446,cs),
(62,346,o),
(137,306,o),
(233,270,cs),
(304,245,ls),
(367,222,o),
(396,194,o),
(396,151,cs),
(396,102,o),
(356,69,o),
(285,69,cs),
(188,69,o),
(146,132,o),
(140,192,c),
(34,192,l),
(40,85,o),
(116,-15,o),
(282,-15,cs)
);
}
);
width = 540;
},
{
anchors = (
{
name = bottom;
pos = (295,0);
},
{
name = top;
pos = (277,600);
}
);
background = {
shapes = (
{
closed = 1;
nodes = (
(459,-15,o),
(546,56,o),
(546,168,cs),
(546,393,o),
(199,334,o),
(199,453,cs),
(199,484,o),
(224,507,o),
(276,507,cs),
(333,507,o),
(365,479,o),
(372,435,c),
(521,435,l),
(513,531,o),
(443,615,o),
(282,615,cs),
(133,615,o),
(49,544,o),
(49,438,cs),
(49,223,o),
(396,278,o),
(396,153,cs),
(396,116,o),
(364,93,o),
(300,93,cs),
(219,93,o),
(178,135,o),
(168,191,c),
(20,191,l),
(28,95,o),
(98,-15,o),
(298,-15,cs)
);
}
);
};
guides = (
{
angle = 161.487;
pos = (298,236);
},
{
angle = 161.487;
pos = (298,374);
},
{
angle = 71.487;
pos = (298,305);
},
{
angle = 71.487;
pos = (238,305);
},
{
angle = 71.487;
pos = (358,305);
}
);
layerId = "2C59C6D3-D4C2-4A05-8DF2-5125000072A2";
shapes = (
{
closed = 1;
nodes = (
(459,-15,o),
(546,59,o),
(546,171,cs),
(546,281,o),
(459,321,o),
(355,354,cs),
(283,377,ls),
(225,396,o),
(198,416,o),
(198,451,cs),
(198,485,o),
(224,507,o),
(276,507,cs),
(333,507,o),
(367,480,o),
(374,432,c),
(522,432,l),
(514,531,o),
(443,615,o),
(282,615,cs),
(133,615,o),
(48,543,o),
(48,436,cs),
(48,328,o),
(136,288,o),
(241,253,cs),
(313,229,ls),
(371,210,o),
(396,190,o),
(396,158,cs),
(396,123,o),
(370,99,o),
(306,99,cs),
(228,99,o),
(184,139,o),
(174,192,c),
(20,192,l),
(28,95,o),
(98,-15,o),
(298,-15,cs)
);
}
);
width = 570;
},
{
anchors = (
{
name = bottom;
pos = (295,0);
},
{
name = top;
pos = (277,600);
}
);
associatedMasterId = "2C59C6D3-D4C2-4A05-8DF2-5125000072A2";
guides = (
{
angle = 161.487;
pos = (298,236);
},
{
angle = 161.487;
pos = (298,374);
},
{
angle = 71.487;
pos = (298,305);
},
{
angle = 71.487;
pos = (238,305);
},
{
angle = 71.487;
pos = (358,305);
}
);
layerId = "274DDD14-BEF8-4D3E-BB3F-0BCF75DDC972";
name = "19 Aug 21, 14:32";
shapes = (
{
closed = 1;
nodes = (
(459,-15,o),
(546,56,o),
(546,168,cs),
(546,393,o),
(199,334,o),
(199,453,cs),
(199,484,o),
(224,507,o),
(276,507,cs),
(333,507,o),
(365,479,o),
(372,435,c),
(521,435,l),
(513,531,o),
(443,615,o),
(282,615,cs),
(133,615,o),
(49,544,o),
(49,438,cs),
(49,223,o),
(396,278,o),
(396,153,cs),
(396,116,o),
(364,93,o),
(300,93,cs),
(219,93,o),
(178,135,o),
(168,191,c),
(20,191,l),
(28,95,o),
(98,-15,o),
(298,-15,cs)
);
}
);
width = 570;
},
{
anchors = (
{
name = bottom;
pos = (285,0);
},
{
name = top;
pos = (265,600);
}
);
associatedMasterId = "D6DAFCCC-80B4-447A-AB8D-F3640E986932";
guides = (
{
angle = 159.487;
pos = (283,253);
},
{
angle = 159.487;
pos = (283,353);
},
{
angle = 71.487;
pos = (283,303);
},
{
angle = 71.487;
pos = (223,303);
},
{
angle = 71.487;
pos = (343,303);
}
);
hints = (
{
horizontal = 1;
place = (-15, 86);
place = (-15, 86);
type = Stem;
},
{
horizontal = 1;
place = (615, 86);
place = (615, 86);
type = Stem;
},
{
place = (61, 102);
place = (61, 102);
type = Stem;
},
{
place = (398, 102);
place = (398, 102);
type = Stem;
}
);
layerId = "3E929F3C-B421-4C84-A845-74A173780489";
name = "19 Aug 21, 14:36";
shapes = (
{
closed = 1;
nodes = (
(423,-15,o),
(500,57,o),
(500,160,cs),
(500,374,o),
(166,312,o),
(166,455,cs),
(166,502,o),
(200,531,o),
(263,531,cs),
(342,531,o),
(372,482,o),
(378,432,c),
(480,432,l),
(472,536,o),
(406,615,o),
(268,615,cs),
(140,615,o),
(62,548,o),
(62,446,cs),
(62,234,o),
(396,291,o),
(396,151,cs),
(396,102,o),
(356,69,o),
(285,69,cs),
(188,69,o),
(146,132,o),
(140,192,c),
(34,192,l),
(40,85,o),
(116,-15,o),
(282,-15,cs)
);
}
);
visible = 1;
width = 540;
}
);
unicode = 115;
},
{
color = 6;
glyphname = germandbls;
kernLeft = b;
kernRight = s;
lastChange = "2022-02-18 13:14:15 +0000";
layers = (
{
background = {
shapes = (
{
closed = 1;
nodes = (
(600,-12,o),
(688,67,o),
(688,184,cs),
(688,325,o),
(562,388,o),
(438,416,c),
(438,432,l),
(564,474,o),
(631,532,o),
(631,628,cs),
(631,721,o),
(568,806,o),
(368,806,cs),
(88,806,o),
(88,639,o),
(88,570,cs),
(88,0,l),
(196,0,l),
(196,576,ls),
(196,627,o),
(196,718,o),
(372,718,cs),
(477,718,o),
(522,686,o),
(522,626,cs),
(522,552,o),
(454,510,o),
(324,474,c),
(324,360,l),
(452,335,o),
(580,290,o),
(580,179,cs),
(580,112,o),
(533,79,o),
(451,79,cs),
(393,79,o),
(339,95,o),
(299,112,c),
(299,14,l),
(352,-4,o),
(409,-12,o),
(455,-12,cs)
);
}
);
};
guides = (
{
pos = (350,456);
},
{
pos = (335,366);
},
{
angle = 90;
pos = (207,112);
},
{
angle = 175.7636;
pos = (140,552);
}
);
hints = (
{
horizontal = 1;
origin = (0,41);
target = up;
type = BottomGhost;
},
{
horizontal = 1;
origin = (0,4);
target = (0,37);
type = Stem;
},
{
horizontal = 1;
origin = (0,24);
target = (0,17);
type = Stem;
},
{
origin = (0,41);
target = (0,0);
type = Stem;
},
{
origin = (0,11);
target = (0,30);
type = Stem;
},
{
origin = (0,7);
target = (0,34);
type = Stem;
},
{
origin = (0,14);
target = (0,27);
type = Stem;
}
);
layerId = "D6DAFCCC-80B4-447A-AB8D-F3640E986932";
shapes = (
{
closed = 1;
nodes = (
(194,0,l),
(194,548,ls),
(194,659,o),
(258,718,o),
(370,718,cs),
(464,718,o),
(511,676,o),
(511,611,cs),
(511,531,o),
(439,492,o),
(326,456,c),
(326,366,l),
(459,335,o),
(566,301,o),
(566,194,cs),
(566,124,o),
(521,78,o),
(425,78,cs),
(365,78,o),
(311,94,o),
(266,112,c),
(266,14,l),
(321,-4,o),
(376,-12,o),
(425,-12,cs),
(587,-12,o),
(674,77,o),
(674,200,cs),
(674,329,o),
(577,387,o),
(452,414,c),
(452,438,l),
(553,482,o),
(620,523,o),
(620,620,cs),
(620,705,o),
(569,806,o),
(377,806,cs),
(166,806,o),
(86,685,o),
(86,556,cs),
(86,0,l)
);
}
);
width = 710;
},
{
background = {
shapes = (
{
closed = 1;
nodes = (
(640,-13,o),
(732,62,o),
(732,184,cs),
(732,317,o),
(624,380,o),
(480,416,c),
(480,440,l),
(625,484,o),
(690,541,o),
(690,627,cs),
(690,719,o),
(618,806,o),
(391,806,cs),
(72,806,o),
(72,632,o),
(72,556,cs),
(72,0,l),
(234,0,l),
(234,543,ls),
(234,594,o),
(234,688,o),
(389,688,cs),
(486,688,o),
(529,653,o),
(529,598,cs),
(529,532,o),
(471,489,o),
(360,460,c),
(360,334,l),
(477,308,o),
(573,264,o),
(573,183,cs),
(573,131,o),
(530,103,o),
(462,103,cs),
(415,103,o),
(368,115,o),
(322,130,c),
(322,11,l),
(361,-2,o),
(417,-13,o),
(479,-13,cs)
);
}
);
};
guides = (
{
angle = 90;
pos = (360,71);
},
{
angle = 175.7636;
pos = (140,552);
}
);
layerId = "2C59C6D3-D4C2-4A05-8DF2-5125000072A2";
shapes = (
{
closed = 1;
nodes = (
(234,0,l),
(234,523,ls),
(234,626,o),
(274,686,o),
(391,686,cs),
(479,686,o),
(523,653,o),
(523,597,cs),
(523,532,o),
(465,489,o),
(354,460,c),
(354,334,l),
(475,320,o),
(558,277,o),
(558,193,cs),
(558,132,o),
(515,103,o),
(446,103,cs),
(399,103,o),
(352,115,o),
(306,130,c),
(306,11,l),
(345,-2,o),
(401,-13,o),
(463,-13,cs),
(622,-13,o),
(720,68,o),
(720,196,cs),
(720,323,o),
(626,392,o),
(498,416,c),
(498,440,l),
(619,472,o),
(684,522,o),
(684,615,cs),
(684,700,o),
(629,806,o),
(398,806,cs),
(157,806,o),
(72,690,o),
(72,536,cs),
(72,0,l)
);
}
);
width = 750;
},
{
associatedMasterId = "D6DAFCCC-80B4-447A-AB8D-F3640E986932";
background = {
shapes = (
{
closed = 1;
nodes = (
(600,-12,o),
(688,67,o),
(688,184,cs),
(688,325,o),
(562,388,o),
(438,416,c),
(438,432,l),
(564,474,o),
(631,532,o),
(631,628,cs),
(631,721,o),
(568,806,o),
(368,806,cs),
(88,806,o),
(88,639,o),
(88,570,cs),
(88,0,l),
(196,0,l),
(196,576,ls),
(196,627,o),
(196,718,o),
(372,718,cs),
(477,718,o),
(522,686,o),
(522,626,cs),
(522,552,o),
(454,510,o),
(324,474,c),
(324,360,l),
(452,335,o),
(580,290,o),
(580,179,cs),
(580,112,o),
(533,79,o),
(451,79,cs),
(393,79,o),
(339,95,o),
(299,112,c),
(299,14,l),
(352,-4,o),
(409,-12,o),
(455,-12,cs)
);
}
);
};
hints = (
{
horizontal = 1;
origin = (0,41);
target = (0,34);
type = Stem;
},
{
horizontal = 1;
origin = (0,12);
target = (0,21);
type = Stem;
},
{
horizontal = 1;
origin = (0,16);
target = up;
type = BottomGhost;
},
{
origin = (0,16);
target = (0,17);
type = Stem;
},
{
origin = (0,31);
target = (0,2);
type = Stem;
}
);
layerId = "0550B554-9863-4220-A5C9-2BF281C0A5FE";
name = "20 Aug 21, 15:39";
shapes = (
{
closed = 1;
nodes = (
(600,-12,o),
(688,67,o),
(688,184,cs),
(688,325,o),
(562,388,o),
(438,416,c),
(438,432,l),
(564,474,o),
(631,532,o),
(631,628,cs),
(631,721,o),
(568,806,o),
(368,806,cs),
(88,806,o),
(88,639,o),
(88,570,cs),
(88,0,l),
(196,0,l),
(196,576,ls),
(196,627,o),
(196,718,o),
(372,718,cs),
(477,718,o),
(522,686,o),
(522,626,cs),
(522,552,o),
(454,510,o),
(324,474,c),
(324,360,l),
(452,335,o),
(580,290,o),
(580,179,cs),
(580,112,o),
(533,79,o),
(451,79,cs),
(393,79,o),
(339,95,o),
(299,112,c),
(299,14,l),
(352,-4,o),
(409,-12,o),
(455,-12,cs)
);
}
);
width = 710;
},
{
associatedMasterId = "2C59C6D3-D4C2-4A05-8DF2-5125000072A2";
guides = (
{
angle = 90;
pos = (322,71);
}
);
layerId = "EE1BA045-8E6F-4468-B71F-3CEB29B4CF97";
name = "23 Aug 21, 14:34";
shapes = (
{
closed = 1;
nodes = (
(648,-13,o),
(742,62,o),
(742,184,cs),
(742,317,o),
(631,380,o),
(504,416,c),
(504,430,l),
(625,475,o),
(690,534,o),
(690,622,cs),
(690,717,o),
(618,806,o),
(391,806,cs),
(72,806,o),
(72,632,o),
(72,556,cs),
(72,0,l),
(234,0,l),
(234,562,ls),
(234,608,o),
(234,688,o),
(389,688,cs),
(486,688,o),
(529,657,o),
(529,608,cs),
(529,552,o),
(471,514,o),
(351,488,c),
(351,338,l),
(483,312,o),
(583,264,o),
(583,183,cs),
(583,131,o),
(538,103,o),
(467,103,cs),
(418,103,o),
(368,115,o),
(322,130,c),
(322,11,l),
(361,-2,o),
(418,-13,o),
(482,-13,cs)
);
}
);
width = 750;
}
);
unicode = 223;
},
{
color = 6;
glyphname = t;
kernLeft = t;
kernRight = t;
lastChange = "2022-02-18 13:14:15 +0000";
layers = (
{
anchors = (
{
name = bottom;
pos = (195,0);
},
{
name = center;
pos = (175,300);
},
{
name = top;
pos = (175,600);
},
{
name = topright;
pos = (218,900);
}
);
guides = (
{
angle = 270;
pos = (218,675);
}
);
hints = (
{
horizontal = 1;
origin = (0,18);
target = up;
type = BottomGhost;
},
{
horizontal = 1;
origin = (0,12);
target = (0,13);
type = Stem;
},
{
origin = (0,15);
target = (0,4);
type = Stem;
},
{
horizontal = 1;
origin = (0,10);
target = down;
type = TopGhost;
}
);
layerId = "D6DAFCCC-80B4-447A-AB8D-F3640E986932";
shapes = (
{
closed = 1;
nodes = (
(280,0,l),
(280,6,l),
(247,42,o),
(220,86,o),
(220,196,cs),
(220,516,l),
(320,516,l),
(320,600,l),
(218,600,l),
(218,750,l),
(114,750,l),
(114,600,l),
(30,600,l),
(30,516,l),
(112,516,l),
(112,179,ls),
(112,77,o),
(131,36,o),
(161,0,c)
);
}
);
width = 350;
},
{
anchors = (
{
name = bottom;
pos = (213,0);
},
{
name = center;
pos = (201,300);
},
{
name = top;
pos = (201,600);
},
{
name = topright;
pos = (273,900);
}
);
guides = (
{
angle = 270;
pos = (273,675);
}
);
layerId = "2C59C6D3-D4C2-4A05-8DF2-5125000072A2";
shapes = (
{
closed = 1;
nodes = (
(334,0,l),
(334,6,l),
(300,42,o),
(273,90,o),
(273,196,cs),
(273,486,l),
(370,486,l),
(370,600,l),
(273,600,l),
(273,750,l),
(114,750,l),
(114,600,l),
(30,600,l),
(30,486,l),
(112,486,l),
(112,179,ls),
(112,78,o),
(131,36,o),
(162,0,c)
);
}
);
width = 400;
}
);
unicode = 116;
},
{
color = 6;
glyphname = u;
kernLeft = u;
kernRight = u;
lastChange = "2022-02-18 13:14:15 +0000";
layers = (
{
anchors = (
{
name = bottom;
pos = (326,0);
},
{
name = ogonek;
pos = (562,0);
},
{
name = top;
pos = (326,600);
},
{
name = topright;
pos = (626,600);
}
);
guides = (
{
angle = 90;
pos = (732,600);
}
);
hints = (
{
horizontal = 1;
origin = (0,20);
target = (0,11);
type = Stem;
},
{
horizontal = 1;
origin = (0,16);
target = down;
type = TopGhost;
},
{
horizontal = 1;
origin = (0,4);
target = up;
type = BottomGhost;
},
{
origin = (0,17);
target = (0,14);
type = Stem;
},
{
origin = (0,8);
target = (0,5);
type = Stem;
}
);
layerId = "D6DAFCCC-80B4-447A-AB8D-F3640E986932";
shapes = (
{
closed = 1;
nodes = (
(365,-15,o),
(422,23,o),
(444,90,c),
(468,90,l),
(468,0,l),
(564,0,l),
(564,600,l),
(456,600,l),
(456,277,ls),
(456,164,o),
(399,77,o),
(301,77,cs),
(222,77,o),
(186,134,o),
(186,238,cs),
(186,600,l),
(78,600,l),
(78,215,ls),
(78,81,o),
(138,-15,o),
(278,-15,cs)
);
}
);
width = 650;
},
{
anchors = (
{
name = bottom;
pos = (342,0);
},
{
name = ogonek;
pos = (608,0);
},
{
name = top;
pos = (342,600);
},
{
name = topright;
pos = (668,600);
}
);
guides = (
{
angle = 180;
pos = (300,720);
}
);
layerId = "2C59C6D3-D4C2-4A05-8DF2-5125000072A2";
shapes = (
{
closed = 1;
nodes = (
(365,-15,o),
(416,30,o),
(436,90,c),
(460,90,l),
(460,0,l),
(606,0,l),
(606,600,l),
(444,600,l),
(444,276,ls),
(444,186,o),
(400,117,o),
(321,117,cs),
(256,117,o),
(228,164,o),
(228,246,cs),
(228,600,l),
(66,600,l),
(66,219,ls),
(66,75,o),
(134,-15,o),
(268,-15,cs)
);
}
);
width = 680;
}
);
unicode = 117;
},
{
color = 6;
glyphname = uhorn;
kernLeft = u;
kernRight = uhorn;
lastChange = "2022-02-18 13:14:15 +0000";
layers = (
{
anchors = (
{
name = bottom;
pos = (326,0);
},
{
name = ogonek;
pos = (562,0);
},
{
name = top;
pos = (326,600);
}
);
guides = (
{
pos = (228,510);
}
);
hints = (
{
horizontal = 1;
origin = (0,30);
target = (0,21);
type = Stem;
},
{
horizontal = 1;
origin = (0,26);
target = (0,6);
type = Stem;
},
{
horizontal = 1;
origin = (0,4);
target = up;
type = BottomGhost;
},
{
origin = (0,27);
target = (0,24);
type = Stem;
},
{
origin = (0,18);
target = (0,5);
type = Stem;
},
{
origin = (0,11);
target = (0,10);
type = Stem;
},
{
horizontal = 1;
origin = (0,11);
target = down;
type = TopGhost;
},
{
horizontal = 1;
origin = (0,15);
target = down;
type = TopGhost;
}
);
layerId = "D6DAFCCC-80B4-447A-AB8D-F3640E986932";
shapes = (
{
closed = 1;
nodes = (
(365,-15,o),
(422,23,o),
(444,90,c),
(468,90,l),
(468,0,l),
(564,0,l),
(564,450,l),
(570,450,ls),
(689,450,o),
(732,551,o),
(732,660,c),
(648,660,l),
(648,591,o),
(627,534,o),
(582,510,c),
(558,510,l),
(558,600,l),
(456,600,l),
(456,277,ls),
(456,164,o),
(399,77,o),
(301,77,cs),
(222,77,o),
(186,134,o),
(186,238,cs),
(186,600,l),
(78,600,l),
(78,215,ls),
(78,81,o),
(138,-15,o),
(278,-15,cs)
);
}
);
width = 710;
},
{
anchors = (
{
name = bottom;
pos = (342,0);
},
{
name = ogonek;
pos = (608,0);
},
{
name = top;
pos = (342,600);
}
);
layerId = "2C59C6D3-D4C2-4A05-8DF2-5125000072A2";
shapes = (
{
closed = 1;
nodes = (
(363,-15,o),
(414,30,o),
(434,90,c),
(462,90,l),
(462,0,l),
(608,0,l),
(608,444,l),
(614,444,ls),
(716,444,o),
(772,531,o),
(772,660,c),
(651,660,l),
(651,588,o),
(638,564,o),
(614,544,c),
(590,544,l),
(590,600,l),
(446,600,l),
(446,276,ls),
(446,186,o),
(402,117,o),
(322,117,cs),
(256,117,o),
(228,164,o),
(228,246,cs),
(228,600,l),
(66,600,l),
(66,219,ls),
(66,75,o),
(133,-15,o),
(266,-15,cs)
);
}
);
width = 740;
}
);
unicode = 432;
},
{
color = 6;
glyphname = v;
kernLeft = v;
kernRight = v;
lastChange = "2022-02-18 13:14:15 +0000";
layers = (
{
hints = (
{
horizontal = 1;
origin = (0,9);
target = (0,5);
type = Stem;
},
{
horizontal = 1;
origin = (0,7);
target = down;
type = TopGhost;
},
{
horizontal = 1;
origin = (0,9);
target = up;
type = BottomGhost;
}
);
layerId = "D6DAFCCC-80B4-447A-AB8D-F3640E986932";
shapes = (
{
closed = 1;
nodes = (
(370,0,l),
(552,594,l),
(552,600,l),
(452,600,l),
(301,90,l),
(277,90,l),
(126,600,l),
(18,600,l),
(18,594,l),
(200,0,l)
);
}
);
width = 570;
},
{
layerId = "2C59C6D3-D4C2-4A05-8DF2-5125000072A2";
shapes = (
{
closed = 1;
nodes = (
(435,0,l),
(608,594,l),
(608,600,l),
(459,600,l),
(329,132,l),
(305,132,l),
(176,600,l),
(12,600,l),
(12,594,l),
(185,0,l)
);
}
);
width = 620;
}
);
unicode = 118;
},
{
color = 6;
glyphname = w;
kernLeft = w;
kernRight = w;
lastChange = "2022-02-18 13:14:15 +0000";
layers = (
{
anchors = (
{
name = bottom;
pos = (450,0);
},
{
name = top;
pos = (450,600);
}
);
hints = (
{
horizontal = 1;
origin = (0,17);
target = (0,13);
type = Stem;
},
{
horizontal = 1;
origin = (0,15);
target = (0,1);
type = Stem;
},
{
horizontal = 1;
origin = (0,14);
target = down;
type = TopGhost;
},
{
horizontal = 1;
origin = (0,17);
target = up;
type = BottomGhost;
}
);
layerId = "D6DAFCCC-80B4-447A-AB8D-F3640E986932";
shapes = (
{
closed = 1;
nodes = (
(328,0,l),
(436,514,l),
(464,514,l),
(572,0,l),
(747,0,l),
(858,594,l),
(858,600,l),
(762,600,l),
(668,90,l),
(648,90,l),
(540,600,l),
(366,600,l),
(259,90,l),
(239,90,l),
(144,600,l),
(42,600,l),
(42,594,l),
(153,0,l)
);
}
);
width = 900;
},
{
anchors = (
{
name = bottom;
pos = (490,0);
},
{
name = top;
pos = (490,600);
}
);
layerId = "2C59C6D3-D4C2-4A05-8DF2-5125000072A2";
shapes = (
{
closed = 1;
nodes = (
(393,0,l),
(478,483,l),
(502,483,l),
(587,0,l),
(851,0,l),
(942,599,l),
(942,600,l),
(802,600,l),
(731,120,l),
(707,120,l),
(624,600,l),
(366,600,l),
(283,120,l),
(259,120,l),
(188,600,l),
(38,600,l),
(38,599,l),
(129,0,l)
);
}
);
width = 980;
}
);
unicode = 119;
},
{
color = 6;
glyphname = x;
kernLeft = x;
kernRight = x;
lastChange = "2022-02-18 13:14:15 +0000";
layers = (
{
background = {
shapes = (
{
closed = 1;
nodes = (
(125,0,l),
(268,244,l),
(286,244,l),
(429,0,l),
(545,0,l),
(545,1,l),
(350,321,l),
(518,599,l),
(518,600,l),
(414,600,l),
(292,394,l),
(274,394,l),
(150,600,l),
(40,600,l),
(40,599,l),
(210,319,l),
(15,1,l),
(15,0,l)
);
}
);
};
hints = (
{
horizontal = 1;
origin = (0,17);
target = up;
type = BottomGhost;
},
{
horizontal = 1;
origin = (0,13);
target = down;
type = TopGhost;
},
{
horizontal = 1;
origin = (0,1);
target = up;
type = BottomGhost;
},
{
horizontal = 1;
origin = (0,11);
target = down;
type = TopGhost;
}
);
layerId = "D6DAFCCC-80B4-447A-AB8D-F3640E986932";
shapes = (
{
closed = 1;
nodes = (
(125,0,l),
(268,244,l),
(286,244,l),
(429,0,l),
(545,0,l),
(545,6,l),
(350,321,l),
(518,594,l),
(518,600,l),
(414,600,l),
(292,394,l),
(274,394,l),
(150,600,l),
(40,600,l),
(40,594,l),
(210,319,l),
(15,6,l),
(15,0,l)
);
}
);
width = 560;
},
{
layerId = "2C59C6D3-D4C2-4A05-8DF2-5125000072A2";
shapes = (
{
closed = 1;
nodes = (
(180,0,l),
(290,210,l),
(314,210,l),
(428,0,l),
(608,0,l),
(608,6,l),
(430,316,l),
(583,594,l),
(583,600,l),
(420,600,l),
(328,420,l),
(304,420,l),
(208,600,l),
(31,600,l),
(31,594,l),
(194,312,l),
(12,6,l),
(12,0,l)
);
}
);
width = 620;
}
);
unicode = 120;
},
{
color = 6;
glyphname = y;
kernLeft = y;
kernRight = y;
lastChange = "2022-02-18 13:14:15 +0000";
layers = (
{
anchors = (
{
name = bottom;
pos = (408,0);
},
{
name = top;
pos = (287,600);
}
);
hints = (
{
horizontal = 1;
origin = (0,16);
target = down;
type = TopGhost;
},
{
horizontal = 1;
origin = (0,0);
target = up;
type = BottomGhost;
}
);
layerId = "D6DAFCCC-80B4-447A-AB8D-F3640E986932";
shapes = (
{
closed = 1;
nodes = (
(227,-200,l),
(261,-145,o),
(306,-52,o),
(346,54,cs),
(552,594,l),
(552,600,l),
(452,600,l),
(340,300,l),
(327,265,o),
(314,231,o),
(301,176,c),
(277,176,l),
(264,231,o),
(251,265,o),
(238,300,c),
(126,600,l),
(18,600,l),
(18,594,l),
(234,31,l),
(199,-52,o),
(154,-135,o),
(115,-194,c),
(115,-200,l)
);
}
);
width = 570;
},
{
anchors = (
{
name = bottom;
pos = (465,0);
},
{
name = top;
pos = (302,600);
}
);
layerId = "2C59C6D3-D4C2-4A05-8DF2-5125000072A2";
shapes = (
{
closed = 1;
nodes = (
(280,-200,l),
(310,-149,o),
(358,-53,o),
(406,82,cs),
(590,594,l),
(590,600,l),
(438,600,l),
(376,420,ls),
(356,362,o),
(336,304,o),
(316,204,c),
(292,204,l),
(272,304,o),
(252,362,o),
(232,420,cs),
(170,600,l),
(10,600,l),
(10,594,l),
(216,0,l),
(186,-66,o),
(144,-143,o),
(111,-198,c),
(111,-200,l)
);
}
);
width = 600;
}
);
unicode = 121;
},
{
color = 6;
glyphname = z;
kernLeft = z;
kernRight = z;
lastChange = "2022-02-18 13:14:15 +0000";
layers = (
{
anchors = (
{
name = bottom;
pos = (274,0);
},
{
name = top;
pos = (281,600);
}
);
hints = (
{
horizontal = 1;
origin = (0,17);
target = (0,2);
type = Stem;
},
{
horizontal = 1;
origin = (0,9);
target = (0,10);
type = Stem;
},
{
origin = (0,17);
target = (0,2);
type = Stem;
},
{
origin = (0,12);
target = (0,7);
type = Stem;
}
);
layerId = "D6DAFCCC-80B4-447A-AB8D-F3640E986932";
shapes = (
{
closed = 1;
nodes = (
(502,0,l),
(502,84,l),
(174,84,l),
(174,108,l),
(199,133,o),
(219,155,o),
(238,180,cs),
(487,498,l),
(487,600,l),
(63,600,l),
(63,516,l),
(364,516,l),
(364,492,l),
(345,474,o),
(320,445,o),
(300,420,cs),
(48,102,l),
(48,0,l)
);
}
);
width = 550;
},
{
anchors = (
{
name = bottom;
pos = (284,0);
},
{
name = top;
pos = (292,600);
}
);
background = {
shapes = (
{
closed = 1;
nodes = (
(536,0,l),
(536,114,l),
(244,114,l),
(244,135,l),
(523,501,l),
(523,600,l),
(60,600,l),
(60,486,l),
(309,486,l),
(309,465,l),
(32,99,l),
(32,0,l)
);
}
);
};
guides = (
{
angle = 180;
pos = (390,214);
},
{
pos = (185,386);
}
);
layerId = "2C59C6D3-D4C2-4A05-8DF2-5125000072A2";
shapes = (
{
closed = 1;
nodes = (
(534,0,l),
(534,114,l),
(234,114,l),
(234,138,l),
(255,158,o),
(278,184,o),
(304,214,cs),
(522,471,l),
(522,600,l),
(48,600,l),
(48,486,l),
(324,486,l),
(324,462,l),
(303,442,o),
(280,415,o),
(255,386,cs),
(36,129,l),
(36,0,l)
);
}
);
width = 570;
}
);
unicode = 122;
},
{
color = 6;
export = 0;
glyphname = d.croat;
kernLeft = c;
kernRight = d;
lastChange = "2022-02-18 13:14:15 +0000";
layers = (
{
anchors = (
{
name = bottom;
pos = (340,0);
},
{
name = center;
pos = (480,700);
},
{
name = top;
pos = (340,800);
},
{
name = topright;
pos = (572,800);
}
);
hints = (
{
horizontal = 1;
origin = (0,18);
target = (1,11);
type = Stem;
},
{
horizontal = 1;
origin = (0,12);
target = (1,5);
type = Stem;
},
{
horizontal = 1;
origin = (0,4);
target = up;
type = BottomGhost;
},
{
origin = (0,15);
target = (1,2);
type = Stem;
},
{
origin = (0,4);
target = (0,5);
type = Stem;
},
{
origin = (1,8);
target = (0,5);
type = Stem;
},
{
horizontal = 1;
origin = (0,7);
target = down;
type = TopGhost;
}
);
layerId = "D6DAFCCC-80B4-447A-AB8D-F3640E986932";
shapes = (
{
closed = 1;
nodes = (
(377,-15,o),
(431,30,o),
(452,78,c),
(476,78,l),
(476,0,l),
(572,0,l),
(572,800,l),
(476,800,l),
(476,528,l),
(452,528,l),
(425,580,o),
(374,615,o),
(290,615,cs),
(134,615,o),
(43,491,o),
(43,300,cs),
(43,108,o),
(131,-15,o),
(285,-15,cs)
);
},
{
closed = 1;
nodes = (
(207,75,o),
(153,157,o),
(153,300,cs),
(153,443,o),
(207,525,o),
(304,525,cs),
(404,525,o),
(467,435,o),
(467,300,cs),
(467,165,o),
(404,75,o),
(304,75,cs)
);
}
);
width = 660;
},
{
anchors = (
{
name = bottom;
pos = (341,0);
},
{
name = center;
pos = (514,700);
},
{
name = top;
pos = (341,800);
},
{
name = topright;
pos = (618,800);
}
);
background = {
shapes = (
{
closed = 1;
nodes = (
(362,-12,o),
(414,27,o),
(442,78,c),
(466,78,l),
(466,0,l),
(616,0,l),
(616,600,l),
(466,600,l),
(466,522,l),
(442,522,l),
(414,576,o),
(361,612,o),
(277,612,cs),
(113,612,o),
(34,486,o),
(34,301,cs),
(34,120,o),
(109,-12,o),
(278,-12,cs)
);
},
{
closed = 1;
nodes = (
(247,102,o),
(202,168,o),
(202,300,cs),
(202,432,o),
(247,498,o),
(320,498,cs),
(401,498,o),
(454,422,o),
(454,300,cs),
(454,178,o),
(401,102,o),
(320,102,cs)
);
}
);
};
guides = (
{
angle = 90;
pos = (430,522);
}
);
layerId = "2C59C6D3-D4C2-4A05-8DF2-5125000072A2";
shapes = (
{
closed = 1;
nodes = (
(363,-12,o),
(414,27,o),
(442,78,c),
(466,78,l),
(466,0,l),
(616,0,l),
(616,800,l),
(466,800,l),
(466,534,l),
(442,534,l),
(412,582,o),
(362,612,o),
(281,612,cs),
(116,612,o),
(34,486,o),
(34,301,cs),
(34,120,o),
(110,-12,o),
(274,-12,cs)
);
},
{
closed = 1;
nodes = (
(247,102,o),
(202,168,o),
(202,300,cs),
(202,432,o),
(247,498,o),
(320,498,cs),
(401,498,o),
(454,422,o),
(454,300,cs),
(454,178,o),
(401,102,o),
(320,102,cs)
);
}
);
width = 690;
},
{
anchors = (
{
name = bottom;
pos = (341,0);
},
{
name = center;
pos = (500,700);
},
{
name = top;
pos = (341,800);
},
{
name = topright;
pos = (618,800);
}
);
associatedMasterId = "2C59C6D3-D4C2-4A05-8DF2-5125000072A2";
layerId = "BD399711-ED4B-4E7C-A9DA-84EC3D1A2D60";
name = "19 Aug 21, 17:19";
shapes = (
{
closed = 1;
nodes = (
(363,-15,o),
(416,21,o),
(436,78,c),
(462,78,l),
(462,0,l),
(618,0,l),
(618,800,l),
(458,800,l),
(458,522,l),
(436,522,l),
(416,579,o),
(364,615,o),
(277,615,cs),
(110,615,o),
(34,483,o),
(34,299,cs),
(34,111,o),
(114,-15,o),
(276,-15,cs)
);
},
{
closed = 1;
nodes = (
(247,99,o),
(202,165,o),
(202,300,cs),
(202,435,o),
(247,501,o),
(322,501,cs),
(404,501,o),
(458,422,o),
(458,300,cs),
(458,178,o),
(404,99,o),
(322,99,cs)
);
}
);
width = 690;
}
);
},
{
color = 6;
glyphname = ordfeminine;
lastChange = "2022-02-18 13:14:15 +0000";
layers = (
{
hints = (
{
horizontal = 1;
origin = (0,18);
target = (1,11);
type = Stem;
},
{
horizontal = 1;
origin = (0,12);
target = (1,5);
type = Stem;
},
{
horizontal = 1;
origin = (0,4);
target = up;
type = BottomGhost;
},
{
horizontal = 1;
origin = (0,7);
target = down;
type = TopGhost;
},
{
origin = (0,15);
target = (1,2);
type = Stem;
},
{
origin = (0,4);
target = (0,5);
type = Stem;
}
);
layerId = "D6DAFCCC-80B4-447A-AB8D-F3640E986932";
shapes = (
{
closed = 1;
nodes = (
(231,411,o),
(254,431,o),
(272,463,c),
(296,463,l),
(296,420,l),
(380,420,l),
(380,780,l),
(296,780,l),
(296,731,l),
(272,731,l),
(256,768,o),
(229,789,o),
(183,789,cs),
(89,789,o),
(42,713,o),
(42,601,cs),
(42,493,o),
(86,411,o),
(185,411,cs)
);
},
{
closed = 1;
nodes = (
(156,477,o),
(128,520,o),
(128,600,cs),
(128,680,o),
(156,723,o),
(208,723,cs),
(262,723,o),
(299,676,o),
(299,600,cs),
(299,524,o),
(261,477,o),
(208,477,cs)
);
}
);
width = 440;
},
{
layerId = "2C59C6D3-D4C2-4A05-8DF2-5125000072A2";
shapes = (
{
closed = 1;
nodes = (
(220,411,o),
(248,426,o),
(264,463,c),
(288,463,l),
(288,420,l),
(398,420,l),
(398,780,l),
(288,780,l),
(288,737,l),
(264,737,l),
(248,774,o),
(220,789,o),
(178,789,cs),
(81,789,o),
(36,712,o),
(36,601,cs),
(36,491,o),
(81,411,o),
(178,411,cs)
);
},
{
closed = 1;
nodes = (
(193,505,o),
(158,524,o),
(158,600,cs),
(158,676,o),
(193,695,o),
(220,695,cs),
(258,695,o),
(282,655,o),
(282,600,cs),
(282,546,o),
(259,505,o),
(220,505,cs)
);
}
);
width = 440;
}
);
unicode = 170;
},
{
color = 6;
glyphname = ordmasculine;
lastChange = "2022-02-18 13:14:15 +0000";
layers = (
{
hints = (
{
horizontal = 1;
origin = (0,11);
target = (1,11);
type = Stem;
},
{
horizontal = 1;
origin = (0,5);
target = (1,5);
type = Stem;
},
{
origin = (0,8);
target = (1,2);
type = Stem;
},
{
origin = (1,8);
target = (0,2);
type = Stem;
}
);
layerId = "D6DAFCCC-80B4-447A-AB8D-F3640E986932";
shapes = (
{
closed = 1;
nodes = (
(323,411,o),
(382,487,o),
(382,600,cs),
(382,713,o),
(323,789,o),
(211,789,cs),
(97,789,o),
(38,713,o),
(38,600,cs),
(38,487,o),
(97,411,o),
(211,411,cs)
);
},
{
closed = 1;
nodes = (
(152,483,o),
(124,524,o),
(124,600,cs),
(124,676,o),
(152,717,o),
(211,717,cs),
(268,717,o),
(296,676,o),
(296,600,cs),
(296,524,o),
(268,483,o),
(211,483,cs)
);
}
);
width = 420;
},
{
layerId = "2C59C6D3-D4C2-4A05-8DF2-5125000072A2";
shapes = (
{
closed = 1;
nodes = (
(344,411,o),
(404,481,o),
(404,600,cs),
(404,719,o),
(344,789,o),
(220,789,cs),
(96,789,o),
(36,719,o),
(36,600,cs),
(36,481,o),
(96,411,o),
(220,411,cs)
);
},
{
closed = 1;
nodes = (
(184,494,o),
(158,516,o),
(158,600,cs),
(158,684,o),
(184,706,o),
(220,706,cs),
(256,706,o),
(282,684,o),
(282,600,cs),
(282,516,o),
(256,494,o),
(220,494,cs)
);
}
);
width = 440;
}
);
unicode = 186;
},
{
color = 6;
glyphname = one;
lastChange = "2022-02-18 13:14:15 +0000";
layers = (
{
guides = (
{
pos = (400,300);
}
);
hints = (
{
horizontal = 1;
origin = (0,13);
target = (0,12);
type = Stem;
},
{
horizontal = 1;
place = (550, 79);
place = (550, 79);
type = Stem;
},
{
horizontal = 1;
origin = (0,4);
target = down;
type = TopGhost;
},
{
origin = (0,11);
target = (0,2);
type = Stem;
}
);
layerId = "D6DAFCCC-80B4-447A-AB8D-F3640E986932";
shapes = (
{
closed = 1;
nodes = (
(574,0,l),
(574,86,l),
(400,86,l),
(400,780,l),
(318,780,l),
(296,647,o),
(248,633,o),
(172,630,cs),
(120,628,l),
(120,550,l),
(292,550,l),
(292,86,l),
(106,86,l),
(106,0,l)
);
}
);
width = 680;
},
{
layerId = "2C59C6D3-D4C2-4A05-8DF2-5125000072A2";
shapes = (
{
closed = 1;
nodes = (
(598,0,l),
(598,122,l),
(429,122,l),
(429,780,l),
(295,780,l),
(277,669,o),
(235,651,o),
(146,644,cs),
(98,640,l),
(99,532,l),
(267,532,l),
(267,122,l),
(82,122,l),
(82,0,l)
);
}
);
width = 680;
}
);
unicode = 49;
},
{
color = 6;
glyphname = zero.lf;
lastChange = "2022-02-18 13:14:15 +0000";
layers = (
{
hints = (
{
horizontal = 1;
origin = (0,11);
target = (1,11);
type = Stem;
},
{
horizontal = 1;
origin = (0,5);
target = (1,5);
type = Stem;
},
{
origin = (0,8);
target = (1,2);
type = Stem;
},
{
origin = (1,8);
target = (0,2);
type = Stem;
}
);
layerId = "D6DAFCCC-80B4-447A-AB8D-F3640E986932";
shapes = (
{
closed = 1;
nodes = (
(539,-14,o),
(632,137,o),
(632,390,cs),
(632,643,o),
(539,794,o),
(340,794,cs),
(143,794,o),
(48,643,o),
(48,390,cs),
(48,137,o),
(143,-14,o),
(340,-14,cs)
);
},
{
closed = 1;
nodes = (
(214,76,o),
(160,181,o),
(160,390,cs),
(160,599,o),
(214,704,o),
(340,704,cs),
(466,704,o),
(520,599,o),
(520,390,cs),
(520,181,o),
(466,76,o),
(340,76,cs)
);
}
);
width = 680;
},
{
layerId = "2C59C6D3-D4C2-4A05-8DF2-5125000072A2";
shapes = (
{
closed = 1;
nodes = (
(547,-14,o),
(646,136,o),
(646,390,cs),
(646,643,o),
(547,794,o),
(340,794,cs),
(134,794,o),
(34,643,o),
(34,390,cs),
(34,137,o),
(134,-14,o),
(340,-14,cs)
);
},
{
closed = 1;
nodes = (
(245,118,o),
(202,209,o),
(202,390,cs),
(202,571,o),
(245,662,o),
(340,662,cs),
(435,662,o),
(478,571,o),
(478,390,cs),
(478,209,o),
(435,118,o),
(340,118,cs)
);
}
);
width = 680;
}
);
},
{
color = 6;
glyphname = one.lf;
kernLeft = one;
kernRight = one;
lastChange = "2022-02-18 13:14:15 +0000";
layers = (
{
guides = (
{
angle = 270;
pos = (276,390);
}
);
hints = (
{
horizontal = 1;
origin = (0,8);
target = up;
type = BottomGhost;
},
{
horizontal = 1;
origin = (0,6);
target = (0,5);
type = Stem;
},
{
horizontal = 1;
origin = (0,2);
target = down;
type = TopGhost;
},
{
origin = (0,8);
target = (0,0);
type = Stem;
}
);
layerId = "D6DAFCCC-80B4-447A-AB8D-F3640E986932";
shapes = (
{
closed = 1;
nodes = (
(276,0,l),
(276,780,l),
(192,780,l),
(177,678,o),
(148,652,o),
(36,646,c),
(36,571,l),
(168,571,l),
(168,0,l)
);
}
);
width = 390;
},
{
layerId = "2C59C6D3-D4C2-4A05-8DF2-5125000072A2";
shapes = (
{
closed = 1;
nodes = (
(332,0,l),
(332,780,l),
(191,780,l),
(175,678,o),
(146,658,o),
(36,650,c),
(36,550,l),
(164,550,l),
(164,0,l)
);
}
);
width = 440;
}
);
},
{
color = 6;
glyphname = two.lf;
kernLeft = two;
kernRight = two;
lastChange = "2022-02-18 13:14:15 +0000";
layers = (
{
hints = (
{
horizontal = 1;
origin = (0,29);
target = (0,2);
type = Stem;
},
{
horizontal = 1;
origin = (0,12);
target = (0,19);
type = Stem;
},
{
origin = (0,29);
target = (0,2);
type = Stem;
},
{
origin = (0,22);
target = (0,9);
type = Stem;
},
{
origin = (0,29);
target = (0,16);
type = Stem;
},
{
horizontal = 1;
origin = (0,15);
target = up;
type = BottomGhost;
}
);
layerId = "D6DAFCCC-80B4-447A-AB8D-F3640E986932";
shapes = (
{
closed = 1;
nodes = (
(580,0,l),
(580,94,l),
(197,94,l),
(197,114,l),
(275,161,o),
(335,207,o),
(376,246,cs),
(484,345,o),
(562,449,o),
(562,575,cs),
(562,709,o),
(465,794,o),
(316,794,cs),
(151,794,o),
(60,686,o),
(60,540,c),
(161,540,l),
(161,635,o),
(207,708,o),
(311,708,cs),
(405,708,o),
(454,650,o),
(454,563,cs),
(454,476,o),
(407,404,o),
(303,304,cs),
(245,249,o),
(176,192,o),
(60,100,c),
(60,0,l)
);
}
);
width = 640;
},
{
layerId = "2C59C6D3-D4C2-4A05-8DF2-5125000072A2";
shapes = (
{
closed = 1;
nodes = (
(616,0,l),
(616,132,l),
(273,132,l),
(273,156,l),
(328,192,o),
(385,237,o),
(431,279,cs),
(536,374,o),
(590,453,o),
(590,556,cs),
(590,699,o),
(492,794,o),
(320,794,cs),
(137,794,o),
(44,686,o),
(44,524,c),
(194,524,l),
(194,610,o),
(236,668,o),
(317,668,cs),
(389,668,o),
(428,622,o),
(428,555,cs),
(428,482,o),
(383,421,o),
(295,338,cs),
(236,282,o),
(155,216,o),
(44,132,c),
(44,0,l)
);
}
);
width = 660;
},
{
associatedMasterId = "D6DAFCCC-80B4-447A-AB8D-F3640E986932";
hints = (
{
horizontal = 1;
origin = (0,29);
target = (0,2);
type = Stem;
},
{
horizontal = 1;
origin = (0,12);
target = (0,19);
type = Stem;
},
{
origin = (0,22);
target = (0,9);
type = Stem;
},
{
origin = (0,29);
target = (0,16);
type = Stem;
},
{
horizontal = 1;
origin = (0,16);
target = up;
type = BottomGhost;
}
);
layerId = "4028654F-6399-42BE-8BD7-E5AFC0B2E314";
name = "24 Aug 21, 10:10";
shapes = (
{
closed = 1;
nodes = (
(580,0,l),
(580,94,l),
(227,94,l),
(227,114,l),
(285,163,o),
(335,208,o),
(376,247,cs),
(499,364,o),
(560,449,o),
(560,564,cs),
(560,708,o),
(465,794,o),
(317,794,cs),
(152,794,o),
(60,687,o),
(60,520,c),
(161,520,l),
(161,635,o),
(209,708,o),
(313,708,cs),
(407,708,o),
(454,648,o),
(454,558,cs),
(454,472,o),
(410,404,o),
(306,305,cs),
(245,247,o),
(165,180,o),
(60,100,c),
(60,0,l)
);
}
);
width = 640;
}
);
},
{
color = 6;
glyphname = three.lf;
kernLeft = three;
kernRight = three;
lastChange = "2022-02-18 13:14:15 +0000";
layers = (
{
guides = (
{
angle = 45.8725;
pos = (463,584);
}
);
hints = (
{
horizontal = 1;
origin = (0,31);
target = (0,24);
type = Stem;
},
{
horizontal = 1;
origin = (0,9);
target = (0,10);
type = Stem;
},
{
origin = (0,17);
target = (0,5);
type = Stem;
},
{
origin = (0,21);
target = (0,2);
type = Stem;
},
{
origin = (0,12);
target = (0,7);
type = Stem;
},
{
horizontal = 1;
origin = (0,17);
target = (0,5);
type = Stem;
},
{
horizontal = 1;
origin = (0,28);
target = down;
type = TopGhost;
}
);
layerId = "D6DAFCCC-80B4-447A-AB8D-F3640E986932";
shapes = (
{
closed = 1;
nodes = (
(488,-13,o),
(592,88,o),
(592,235,cs),
(592,355,o),
(523,438,o),
(372,466,c),
(372,490,l),
(562,684,l),
(562,780,l),
(84,780,l),
(84,690,l),
(426,690,l),
(426,666,l),
(400,645,o),
(381,626,o),
(357,600,cs),
(252,486,l),
(252,396,l),
(280,396,ls),
(408,396,o),
(484,332,o),
(484,228,cs),
(484,143,o),
(433,77,o),
(331,77,cs),
(226,77,o),
(160,146,o),
(150,240,c),
(42,240,l),
(47,129,o),
(130,-13,o),
(324,-13,cs)
);
}
);
width = 640;
},
{
guides = (
{
pos = (357,564);
}
);
layerId = "2C59C6D3-D4C2-4A05-8DF2-5125000072A2";
shapes = (
{
closed = 1;
nodes = (
(504,-13,o),
(618,84,o),
(618,232,cs),
(618,357,o),
(536,429,o),
(404,449,c),
(404,473,l),
(582,648,l),
(582,780,l),
(72,780,l),
(72,654,l),
(399,654,l),
(399,630,l),
(372,612,o),
(348,589,o),
(324,564,cs),
(236,470,l),
(236,360,l),
(271,360,ls),
(384,360,o),
(456,312,o),
(456,229,cs),
(456,165,o),
(413,113,o),
(328,113,cs),
(237,113,o),
(192,173,o),
(186,240,c),
(28,240,l),
(28,110,o),
(124,-13,o),
(328,-13,cs)
);
}
);
width = 660;
}
);
},
{
color = 6;
glyphname = four.lf;
kernLeft = four;
kernRight = four;
lastChange = "2022-02-18 13:14:15 +0000";
layers = (
{
guides = (
{
pos = (162,399);
}
);
hints = (
{
horizontal = 1;
origin = (1,7);
target = up;
type = BottomGhost;
},
{
horizontal = 1;
origin = (0,11);
target = (0,2);
type = Stem;
},
{
horizontal = 1;
origin = (0,9);
target = down;
type = TopGhost;
},
{
origin = (0,11);
target = (0,2);
type = Stem;
},
{
origin = (1,7);
target = (1,0);
type = Stem;
},
{
origin = (1,5);
target = (1,2);
type = Stem;
}
);
layerId = "D6DAFCCC-80B4-447A-AB8D-F3640E986932";
shapes = (
{
closed = 1;
nodes = (
(606,195,l),
(606,285,l),
(152,285,l),
(152,309,l),
(181,339,o),
(205,369,o),
(225,399,cs),
(480,774,l),
(480,780,l),
(360,780,l),
(34,300,l),
(34,195,l)
);
},
{
closed = 1;
nodes = (
(492,0,l),
(492,240,l),
(491,240,l),
(491,420,l),
(389,420,l),
(389,240,l),
(388,240,l),
(388,0,l)
);
}
);
width = 640;
},
{
guides = (
{
pos = (319,415);
}
);
layerId = "2C59C6D3-D4C2-4A05-8DF2-5125000072A2";
shapes = (
{
closed = 1;
nodes = (
(640,179,l),
(640,301,l),
(202,301,l),
(202,325,l),
(233,355,o),
(254,384,o),
(275,414,cs),
(530,774,l),
(530,780,l),
(356,780,l),
(30,313,l),
(30,179,l)
);
},
{
closed = 1;
nodes = (
(535,0,l),
(535,239,l),
(531,239,l),
(531,432,l),
(390,432,l),
(390,240,l),
(386,240,l),
(386,0,l)
);
}
);
width = 670;
},
{
associatedMasterId = "D6DAFCCC-80B4-447A-AB8D-F3640E986932";
hints = (
{
horizontal = 1;
origin = (1,3);
target = up;
type = BottomGhost;
},
{
horizontal = 1;
origin = (0,2);
target = (0,8);
type = Stem;
},
{
horizontal = 1;
origin = (0,6);
target = down;
type = TopGhost;
},
{
origin = (0,8);
target = (0,2);
type = Stem;
},
{
origin = (1,3);
target = (1,0);
type = Stem;
}
);
layerId = "098A54FB-0BCC-4A96-B05A-0ACBA1D9F0EA";
name = "24 Aug 21, 10:41";
shapes = (
{
closed = 1;
nodes = (
(606,198,l),
(606,289,l),
(158,289,l),
(158,313,l),
(474,776,l),
(474,780,l),
(360,780,l),
(34,301,l),
(34,198,l)
);
},
{
closed = 1;
nodes = (
(482,0,l),
(482,420,l),
(378,420,l),
(378,0,l)
);
}
);
width = 640;
}
);
},
{
color = 6;
glyphname = five.lf;
kernLeft = five;
kernRight = five;
lastChange = "2022-02-18 13:14:15 +0000";
layers = (
{
guides = (
{
angle = 180;
pos = (116,350);
}
);
hints = (
{
horizontal = 1;
origin = (0,31);
target = (0,24);
type = Stem;
},
{
horizontal = 1;
origin = (0,18);
target = (0,5);
type = Stem;
},
{
horizontal = 1;
origin = (0,13);
target = (0,10);
type = Stem;
},
{
origin = (0,21);
target = (0,2);
type = Stem;
},
{
horizontal = 1;
origin = (0,28);
target = down;
type = TopGhost;
},
{
horizontal = 1;
origin = (0,15);
target = up;
type = BottomGhost;
}
);
layerId = "D6DAFCCC-80B4-447A-AB8D-F3640E986932";
shapes = (
{
closed = 1;
nodes = (
(487,-13,o),
(592,102,o),
(592,263,cs),
(592,417,o),
(498,519,o),
(352,519,cs),
(265,519,o),
(226,485,o),
(197,450,c),
(173,450,l),
(198,686,l),
(550,686,l),
(550,780,l),
(114,780,l),
(70,350,l),
(173,350,l),
(194,387,o),
(238,433,o),
(319,433,cs),
(421,433,o),
(484,365,o),
(484,258,cs),
(484,157,o),
(431,77,o),
(323,77,cs),
(214,77,o),
(164,152,o),
(156,200,c),
(48,200,l),
(56,113,o),
(132,-13,o),
(319,-13,cs)
);
}
);
width = 640;
},
{
guides = (
{
angle = 83.0133;
pos = (217,552);
},
{
angle = 180;
pos = (130,340);
}
);
layerId = "2C59C6D3-D4C2-4A05-8DF2-5125000072A2";
shapes = (
{
closed = 1;
nodes = (
(509,-12,o),
(622,101,o),
(622,269,cs),
(622,425,o),
(526,530,o),
(375,530,cs),
(301,530,o),
(257,506,o),
(231,468,c),
(207,468,l),
(229,654,l),
(566,654,l),
(566,780,l),
(102,780,l),
(55,340,l),
(209,340,l),
(223,369,o),
(257,416,o),
(328,416,cs),
(410,416,o),
(460,359,o),
(460,267,cs),
(460,178,o),
(419,114,o),
(330,114,cs),
(247,114,o),
(205,166,o),
(200,210,c),
(42,210,l),
(48,120,o),
(120,-12,o),
(325,-12,cs)
);
}
);
width = 660;
},
{
associatedMasterId = "D6DAFCCC-80B4-447A-AB8D-F3640E986932";
hints = (
{
horizontal = 1;
origin = (0,31);
target = (0,24);
type = Stem;
},
{
horizontal = 1;
origin = (0,18);
target = (0,5);
type = Stem;
},
{
horizontal = 1;
origin = (0,13);
target = (0,10);
type = Stem;
},
{
origin = (0,21);
target = (0,2);
type = Stem;
}
);
layerId = "8FE0F286-8A25-48F7-9D4D-80E002665B2A";
name = "24 Aug 21, 10:54";
shapes = (
{
closed = 1;
nodes = (
(486,-12,o),
(588,91,o),
(588,255,cs),
(588,411,o),
(497,519,o),
(347,519,cs),
(255,519,o),
(213,478,o),
(195,442,c),
(174,442,l),
(198,686,l),
(547,686,l),
(547,780,l),
(114,780,l),
(68,330,l),
(168,330,l),
(182,367,o),
(225,431,o),
(322,431,cs),
(424,431,o),
(479,359,o),
(479,252,cs),
(479,148,o),
(427,81,o),
(321,81,cs),
(211,81,o),
(165,152,o),
(157,200,c),
(50,200,l),
(58,113,o),
(130,-12,o),
(316,-12,cs)
);
}
);
width = 640;
},
{
associatedMasterId = "D6DAFCCC-80B4-447A-AB8D-F3640E986932";
guides = (
{
angle = 180;
pos = (116,350);
}
);
hints = (
{
horizontal = 1;
origin = (0,31);
target = (0,24);
type = Stem;
},
{
horizontal = 1;
origin = (0,18);
target = (0,5);
type = Stem;
},
{
horizontal = 1;
origin = (0,13);
target = (0,10);
type = Stem;
},
{
origin = (0,21);
target = (0,2);
type = Stem;
}
);
layerId = "E67A4996-3431-4517-986C-97EAC4872332";
name = "2 Sep 21, 12:42";
shapes = (
{
closed = 1;
nodes = (
(487,-13,o),
(592,102,o),
(592,263,cs),
(592,417,o),
(498,519,o),
(352,519,cs),
(265,519,o),
(226,485,o),
(197,450,c),
(173,450,l),
(198,686,l),
(550,686,l),
(550,780,l),
(114,780,l),
(68,330,l),
(164,330,l),
(178,367,o),
(222,433,o),
(319,433,cs),
(421,433,o),
(484,365,o),
(484,258,cs),
(484,157,o),
(431,77,o),
(323,77,cs),
(214,77,o),
(164,152,o),
(156,200,c),
(48,200,l),
(56,113,o),
(132,-13,o),
(319,-13,cs)
);
}
);
width = 640;
}
);
},
{
color = 6;
glyphname = six.lf;
kernLeft = six;
kernRight = six;
lastChange = "2022-02-18 13:14:15 +0000";
layers = (
{
hints = (
{
horizontal = 1;
origin = (0,26);
target = (1,11);
type = Stem;
},
{
horizontal = 1;
origin = (1,5);
target = (0,5);
type = Stem;
},
{
horizontal = 1;
origin = (0,17);
target = down;
type = TopGhost;
},
{
origin = (0,23);
target = (1,2);
type = Stem;
},
{
origin = (1,8);
target = (0,2);
type = Stem;
}
);
layerId = "D6DAFCCC-80B4-447A-AB8D-F3640E986932";
shapes = (
{
closed = 1;
nodes = (
(503,-14,o),
(606,103,o),
(606,253,cs),
(606,392,o),
(519,500,o),
(369,500,cs),
(306,500,o),
(267,481,o),
(239,450,c),
(215,450,l),
(235,479,o),
(262,515,o),
(295,558,cs),
(334,608,o),
(388,675,o),
(472,774,c),
(472,780,l),
(344,780,l),
(312,741,o),
(239,647,o),
(204,600,cs),
(132,504,o),
(60,392,o),
(60,260,cs),
(60,101,o),
(166,-14,o),
(335,-14,cs)
);
},
{
closed = 1;
nodes = (
(226,72,o),
(168,154,o),
(168,249,cs),
(168,348,o),
(228,422,o),
(336,422,cs),
(434,422,o),
(498,360,o),
(498,248,cs),
(498,142,o),
(440,72,o),
(338,72,cs)
);
}
);
width = 660;
},
{
layerId = "2C59C6D3-D4C2-4A05-8DF2-5125000072A2";
shapes = (
{
closed = 1;
nodes = (
(532,-14,o),
(636,105,o),
(636,260,cs),
(636,410,o),
(535,504,o),
(407,504,cs),
(345,504,o),
(310,478,o),
(288,460,c),
(264,460,l),
(268,466,o),
(294,504,o),
(342,565,cs),
(421,665,o),
(488,743,o),
(514,774,c),
(514,780,l),
(325,780,l),
(270,710,o),
(188,594,o),
(183,588,cs),
(117,495,o),
(52,391,o),
(52,266,cs),
(52,108,o),
(156,-14,o),
(345,-14,cs)
);
},
{
closed = 1;
nodes = (
(253,106,o),
(206,176,o),
(206,255,cs),
(206,340,o),
(259,402,o),
(347,402,cs),
(429,402,o),
(483,349,o),
(483,254,cs),
(483,162,o),
(431,106,o),
(347,106,cs)
);
}
);
width = 680;
}
);
},
{
color = 6;
glyphname = seven.lf;
kernLeft = seven;
kernRight = seven;
lastChange = "2022-02-18 13:14:15 +0000";
layers = (
{
hints = (
{
horizontal = 1;
origin = (0,11);
target = up;
type = BottomGhost;
},
{
horizontal = 1;
origin = (0,3);
target = (0,4);
type = Stem;
},
{
origin = (0,6);
target = (0,1);
type = Stem;
}
);
layerId = "D6DAFCCC-80B4-447A-AB8D-F3640E986932";
shapes = (
{
closed = 1;
nodes = (
(206,0,l),
(568,678,l),
(568,780,l),
(32,780,l),
(32,686,l),
(463,686,l),
(463,662,l),
(436,636,o),
(418,608,o),
(384,548,cs),
(80,6,l),
(80,0,l)
);
}
);
width = 600;
},
{
guides = (
{
angle = 90;
pos = (90,713);
}
);
layerId = "2C59C6D3-D4C2-4A05-8DF2-5125000072A2";
shapes = (
{
closed = 1;
nodes = (
(270,0,l),
(590,642,l),
(590,780,l),
(30,780,l),
(30,648,l),
(442,648,l),
(442,624,l),
(404,594,o),
(381,563,o),
(346,496,cs),
(90,6,l),
(90,0,l)
);
}
);
width = 620;
},
{
associatedMasterId = "D6DAFCCC-80B4-447A-AB8D-F3640E986932";
hints = (
{
horizontal = 1;
place = (0, 21);
target = up;
type = BottomGhost;
},
{
horizontal = 1;
place = (780, 92);
place = (780, 92);
type = Stem;
},
{
place = (453, 115);
place = (453, 115);
type = Stem;
}
);
layerId = "3603977B-8615-4C76-8E4A-E92383BAC846";
name = "24 Aug 21, 10:59";
shapes = (
{
closed = 1;
nodes = (
(224,0,l),
(568,686,l),
(568,780,l),
(32,780,l),
(32,688,l),
(466,688,l),
(466,664,l),
(436,638,o),
(413,610,o),
(382,550,cs),
(98,0,l)
);
}
);
width = 600;
}
);
},
{
color = 6;
glyphname = eight.lf;
kernLeft = eight;
kernRight = eight;
lastChange = "2022-02-18 13:14:15 +0000";
layers = (
{
hints = (
{
horizontal = 1;
origin = (0,25);
target = (1,11);
type = Stem;
},
{
horizontal = 1;
origin = (1,5);
target = (2,11);
type = Stem;
},
{
horizontal = 1;
origin = (0,12);
target = (2,5);
type = Stem;
},
{
origin = (0,22);
target = (1,2);
type = Stem;
},
{
origin = (1,8);
target = (0,2);
type = Stem;
},
{
origin = (0,15);
target = (2,2);
type = Stem;
},
{
origin = (2,8);
target = (0,9);
type = Stem;
}
);
layerId = "D6DAFCCC-80B4-447A-AB8D-F3640E986932";
shapes = (
{
closed = 1;
nodes = (
(503,-14,o),
(612,75,o),
(612,211,cs),
(612,303,o),
(564,367,o),
(464,399,c),
(464,423,l),
(545,454,o),
(583,516,o),
(583,591,cs),
(583,714,o),
(482,794,o),
(330,794,cs),
(180,794,o),
(78,713,o),
(78,591,cs),
(78,516,o),
(116,454,o),
(196,423,c),
(196,399,l),
(96,367,o),
(48,303,o),
(48,212,cs),
(48,73,o),
(160,-14,o),
(330,-14,cs)
);
},
{
closed = 1;
nodes = (
(222,72,o),
(158,135,o),
(158,220,cs),
(158,306,o),
(222,369,o),
(330,369,cs),
(439,369,o),
(502,306,o),
(502,220,cs),
(502,135,o),
(439,72,o),
(330,72,cs)
);
},
{
closed = 1;
nodes = (
(241,453,o),
(186,506,o),
(186,581,cs),
(186,655,o),
(241,708,o),
(330,708,cs),
(420,708,o),
(475,655,o),
(475,581,cs),
(475,506,o),
(420,453,o),
(330,453,cs)
);
}
);
width = 660;
},
{
associatedMasterId = "D6DAFCCC-80B4-447A-AB8D-F3640E986932";
hints = (
{
horizontal = 1;
origin = (0,25);
target = (1,11);
type = Stem;
},
{
horizontal = 1;
origin = (1,5);
target = (2,11);
type = Stem;
},
{
horizontal = 1;
origin = (0,12);
target = (2,5);
type = Stem;
},
{
origin = (0,22);
target = (1,2);
type = Stem;
},
{
origin = (1,8);
target = (0,2);
type = Stem;
}
);
layerId = "1F7284B2-7E83-4BE8-BB22-E6F03BB1E2F7";
name = "9 Apr 21, 12:12";
shapes = (
{
closed = 1;
nodes = (
(503,-14,o),
(612,74,o),
(612,208,cs),
(612,298,o),
(564,361,o),
(464,393,c),
(464,405,l),
(545,437,o),
(583,503,o),
(583,581,cs),
(583,708,o),
(482,794,o),
(330,794,cs),
(180,794,o),
(78,709,o),
(78,581,cs),
(78,503,o),
(116,438,o),
(196,405,c),
(196,393,l),
(96,361,o),
(48,298,o),
(48,209,cs),
(48,72,o),
(160,-14,o),
(330,-14,cs)
);
},
{
closed = 1;
nodes = (
(222,73,o),
(158,132,o),
(158,214,cs),
(158,297,o),
(222,357,o),
(330,357,cs),
(439,357,o),
(502,297,o),
(502,214,cs),
(502,132,o),
(439,73,o),
(330,73,cs)
);
},
{
closed = 1;
nodes = (
(241,441,o),
(186,497,o),
(186,575,cs),
(186,652,o),
(241,707,o),
(330,707,cs),
(420,707,o),
(475,652,o),
(475,575,cs),
(475,497,o),
(420,441,o),
(330,441,cs)
);
}
);
width = 660;
},
{
layerId = "2C59C6D3-D4C2-4A05-8DF2-5125000072A2";
shapes = (
{
closed = 1;
nodes = (
(540,-14,o),
(644,82,o),
(644,208,cs),
(644,303,o),
(585,369,o),
(488,397,c),
(488,421,l),
(566,448,o),
(612,501,o),
(612,586,cs),
(612,709,o),
(512,794,o),
(338,794,cs),
(159,794,o),
(68,703,o),
(68,588,cs),
(68,502,o),
(117,447,o),
(192,421,c),
(192,397,l),
(98,369,o),
(36,304,o),
(36,208,cs),
(36,78,o),
(146,-14,o),
(340,-14,cs)
);
},
{
closed = 1;
nodes = (
(250,106,o),
(200,157,o),
(200,229,cs),
(200,302,o),
(250,352,o),
(340,352,cs),
(430,352,o),
(480,302,o),
(480,229,cs),
(480,157,o),
(430,106,o),
(340,106,cs)
);
},
{
closed = 1;
nodes = (
(265,466,o),
(221,507,o),
(221,570,cs),
(221,633,o),
(265,674,o),
(340,674,cs),
(416,674,o),
(459,633,o),
(459,570,cs),
(459,507,o),
(416,466,o),
(340,466,cs)
);
}
);
width = 680;
},
{
associatedMasterId = "2C59C6D3-D4C2-4A05-8DF2-5125000072A2";
layerId = "1CAA6750-7287-4B38-85D6-01270AFFC2D2";
name = "25 Aug 21, 07:49";
shapes = (
{
closed = 1;
nodes = (
(540,-14,o),
(644,82,o),
(644,208,cs),
(644,303,o),
(585,368,o),
(488,396,c),
(488,408,l),
(566,436,o),
(612,492,o),
(612,579,cs),
(612,706,o),
(512,794,o),
(338,794,cs),
(159,794,o),
(68,700,o),
(68,581,cs),
(68,493,o),
(117,435,o),
(192,408,c),
(192,396,l),
(98,368,o),
(36,304,o),
(36,208,cs),
(36,78,o),
(146,-14,o),
(340,-14,cs)
);
},
{
closed = 1;
nodes = (
(250,104,o),
(200,153,o),
(200,223,cs),
(200,294,o),
(250,342,o),
(340,342,cs),
(430,342,o),
(480,294,o),
(480,223,cs),
(480,153,o),
(430,104,o),
(340,104,cs)
);
},
{
closed = 1;
nodes = (
(265,456,o),
(221,499,o),
(221,566,cs),
(221,633,o),
(265,676,o),
(340,676,cs),
(416,676,o),
(459,633,o),
(459,566,cs),
(459,499,o),
(416,456,o),
(340,456,cs)
);
}
);
width = 680;
}
);
},
{
color = 6;
glyphname = nine.lf;
kernLeft = nine;
kernRight = nine;
lastChange = "2022-02-18 13:14:15 +0000";
layers = (
{
hints = (
{
horizontal = 1;
origin = (0,26);
target = up;
type = BottomGhost;
},
{
horizontal = 1;
origin = (0,15);
target = (1,11);
type = Stem;
},
{
horizontal = 1;
origin = (0,9);
target = (1,5);
type = Stem;
},
{
horizontal = 1;
origin = (0,18);
target = (1,11);
type = Stem;
},
{
origin = (0,12);
target = (1,2);
type = Stem;
},
{
origin = (1,8);
target = (0,6);
type = Stem;
}
);
layerId = "D6DAFCCC-80B4-447A-AB8D-F3640E986932";
shapes = (
{
closed = 1;
nodes = (
(316,0,l),
(348,39,o),
(421,133,o),
(456,180,cs),
(528,276,o),
(600,388,o),
(600,520,cs),
(600,679,o),
(497,794,o),
(328,794,cs),
(160,794,o),
(54,680,o),
(54,527,cs),
(54,388,o),
(141,280,o),
(291,280,cs),
(352,280,o),
(390,299,o),
(421,330,c),
(445,330,l),
(418,290,o),
(380,241,o),
(365,222,cs),
(322,167,o),
(272,105,o),
(188,6,c),
(188,0,l)
);
},
{
closed = 1;
nodes = (
(226,360,o),
(162,420,o),
(162,532,cs),
(162,641,o),
(223,707,o),
(325,707,cs),
(437,707,o),
(492,626,o),
(492,531,cs),
(492,432,o),
(432,360,o),
(324,360,cs)
);
}
);
width = 660;
},
{
layerId = "2C59C6D3-D4C2-4A05-8DF2-5125000072A2";
shapes = (
{
closed = 1;
nodes = (
(355,0,l),
(410,70,o),
(492,186,o),
(497,192,cs),
(563,285,o),
(628,389,o),
(628,514,cs),
(628,672,o),
(524,794,o),
(335,794,cs),
(148,794,o),
(44,675,o),
(44,520,cs),
(44,370,o),
(145,276,o),
(273,276,cs),
(335,276,o),
(370,302,o),
(392,320,c),
(416,320,l),
(412,314,o),
(386,276,o),
(338,215,cs),
(259,115,o),
(192,37,o),
(166,6,c),
(166,0,l)
);
},
{
closed = 1;
nodes = (
(251,378,o),
(197,431,o),
(197,526,cs),
(197,618,o),
(249,674,o),
(333,674,cs),
(427,674,o),
(474,604,o),
(474,525,cs),
(474,440,o),
(421,378,o),
(333,378,cs)
);
}
);
width = 680;
}
);
},
{
color = 6;
glyphname = zero.zero.lf;
lastChange = "2022-02-18 13:14:15 +0000";
layers = (
{
guides = (
{
angle = 90;
pos = (340,390);
}
);
hints = (
{
horizontal = 1;
origin = (0,11);
target = (1,13);
type = Stem;
},
{
horizontal = 1;
origin = (0,5);
target = (2,5);
type = Stem;
},
{
origin = (0,8);
target = (2,2);
type = Stem;
},
{
origin = (1,10);
target = (0,2);
type = Stem;
}
);
layerId = "D6DAFCCC-80B4-447A-AB8D-F3640E986932";
shapes = (
{
closed = 1;
nodes = (
(539,-14,o),
(632,137,o),
(632,390,cs),
(632,643,o),
(539,794,o),
(340,794,cs),
(143,794,o),
(48,643,o),
(48,390,cs),
(48,137,o),
(143,-14,o),
(340,-14,cs)
);
},
{
closed = 1;
nodes = (
(273,76,o),
(227,105,o),
(198,164,c),
(436,458,ls),
(458,485,o),
(475,510,o),
(490,540,c),
(514,540,l),
(521,498,o),
(524,448,o),
(524,390,cs),
(524,181,o),
(466,76,o),
(340,76,cs)
);
},
{
closed = 1;
nodes = (
(159,291,o),
(156,337,o),
(156,390,cs),
(156,599,o),
(214,704,o),
(340,704,cs),
(403,704,o),
(448,678,o),
(477,626,c),
(243,335,ls),
(221,307,o),
(205,282,o),
(190,252,c),
(166,252,l)
);
}
);
width = 680;
},
{
guides = (
{
angle = 90;
pos = (340,390);
}
);
layerId = "2C59C6D3-D4C2-4A05-8DF2-5125000072A2";
shapes = (
{
closed = 1;
nodes = (
(547,-14,o),
(646,136,o),
(646,390,cs),
(646,643,o),
(547,794,o),
(340,794,cs),
(134,794,o),
(34,643,o),
(34,390,cs),
(34,137,o),
(134,-14,o),
(340,-14,cs)
);
},
{
closed = 1;
nodes = (
(290,118,o),
(255,143,o),
(232,192,c),
(430,437,ls),
(443,454,o),
(453,472,o),
(460,488,c),
(484,488,l),
(486,459,o),
(487,426,o),
(487,390,cs),
(487,209,o),
(435,118,o),
(340,118,cs)
);
},
{
closed = 1;
nodes = (
(194,334,o),
(193,361,o),
(193,390,cs),
(194,571,o),
(245,662,o),
(340,662,cs),
(386,662,o),
(420,640,o),
(443,597,c),
(250,360,ls),
(236,343,o),
(227,327,o),
(220,309,c),
(196,309,l)
);
}
);
width = 680;
}
);
},
{
color = 6;
glyphname = zero.dnom;
lastChange = "2022-02-18 13:14:15 +0000";
layers = (
{
hints = (
{
horizontal = 1;
origin = (0,11);
target = (1,11);
type = Stem;
},
{
horizontal = 1;
origin = (1,5);
target = (0,5);
type = Stem;
},
{
origin = (0,8);
target = (1,2);
type = Stem;
},
{
origin = (1,8);
target = (0,2);
type = Stem;
}
);
layerId = "D6DAFCCC-80B4-447A-AB8D-F3640E986932";
shapes = (
{
closed = 1;
nodes = (
(372,-9,o),
(435,84,o),
(435,240,cs),
(435,395,o),
(372,488,o),
(240,488,cs),
(109,488,o),
(45,396,o),
(45,240,cs),
(45,84,o),
(109,-9,o),
(240,-9,cs)
);
},
{
closed = 1;
nodes = (
(169,65,o),
(138,125,o),
(138,240,cs),
(138,355,o),
(169,415,o),
(240,415,cs),
(310,415,o),
(342,357,o),
(342,240,cs),
(342,123,o),
(310,65,o),
(240,65,cs)
);
}
);
width = 480;
},
{
layerId = "2C59C6D3-D4C2-4A05-8DF2-5125000072A2";
shapes = (
{
closed = 1;
nodes = (
(378,-9,o),
(444,84,o),
(444,240,cs),
(444,395,o),
(378,488,o),
(240,488,cs),
(102,488,o),
(36,395,o),
(36,240,cs),
(36,85,o),
(102,-9,o),
(240,-9,cs)
);
},
{
closed = 1;
nodes = (
(189,93,o),
(167,143,o),
(167,240,cs),
(167,336,o),
(189,387,o),
(240,387,cs),
(290,387,o),
(313,337,o),
(313,240,cs),
(313,142,o),
(290,93,o),
(240,93,cs)
);
}
);
width = 480;
}
);
},
{
color = 6;
glyphname = one.dnom;
lastChange = "2022-02-18 13:14:15 +0000";
layers = (
{
hints = (
{
horizontal = 1;
origin = (0,8);
target = up;
type = BottomGhost;
},
{
horizontal = 1;
origin = (0,6);
target = (0,5);
type = Stem;
},
{
origin = (0,8);
target = (0,0);
type = Stem;
},
{
horizontal = 1;
origin = (0,1);
target = down;
type = TopGhost;
}
);
layerId = "D6DAFCCC-80B4-447A-AB8D-F3640E986932";
shapes = (
{
closed = 1;
nodes = (
(318,0,l),
(318,480,l),
(245,480,l),
(235,417,o),
(216,404,o),
(132,399,c),
(132,342,l),
(228,342,l),
(228,0,l)
);
}
);
width = 480;
},
{
layerId = "2C59C6D3-D4C2-4A05-8DF2-5125000072A2";
shapes = (
{
closed = 1;
nodes = (
(354,0,l),
(354,480,l),
(240,480,l),
(230,417,o),
(210,408,o),
(140,402,c),
(140,328,l),
(222,328,l),
(222,0,l)
);
}
);
width = 480;
}
);
},
{
color = 6;
glyphname = two.dnom;
lastChange = "2022-02-18 13:14:15 +0000";
layers = (
{
hints = (
{
horizontal = 1;
origin = (0,29);
target = (0,2);
type = Stem;
},
{
horizontal = 1;
origin = (0,19);
target = (0,12);
type = Stem;
},
{
origin = (0,29);
target = (0,2);
type = Stem;
},
{
origin = (0,22);
target = (0,9);
type = Stem;
},
{
origin = (0,29);
target = (0,16);
type = Stem;
},
{
horizontal = 1;
origin = (0,15);
target = up;
type = BottomGhost;
}
);
layerId = "D6DAFCCC-80B4-447A-AB8D-F3640E986932";
shapes = (
{
closed = 1;
nodes = (
(417,0,l),
(417,74,l),
(183,74,l),
(183,98,l),
(226,122,o),
(262,149,o),
(292,174,cs),
(365,235,o),
(402,286,o),
(402,349,cs),
(402,432,o),
(339,488,o),
(234,488,cs),
(120,488,o),
(60,422,o),
(60,325,c),
(144,325,l),
(144,379,o),
(172,418,o),
(231,418,cs),
(284,418,o),
(312,387,o),
(312,343,cs),
(312,296,o),
(283,256,o),
(221,202,cs),
(179,165,o),
(150,142,o),
(60,78,c),
(60,0,l)
);
}
);
width = 480;
},
{
layerId = "2C59C6D3-D4C2-4A05-8DF2-5125000072A2";
shapes = (
{
closed = 1;
nodes = (
(436,0,l),
(436,98,l),
(228,98,l),
(228,122,l),
(255,140,o),
(290,165,o),
(322,192,cs),
(390,248,o),
(416,290,o),
(416,341,cs),
(416,432,o),
(351,488,o),
(231,488,cs),
(106,488,o),
(44,422,o),
(44,314,c),
(160,314,l),
(160,363,o),
(186,391,o),
(230,391,cs),
(268,391,o),
(290,369,o),
(290,337,cs),
(290,301,o),
(267,271,o),
(210,224,cs),
(166,188,o),
(126,158,o),
(44,102,c),
(44,0,l)
);
}
);
width = 480;
}
);
},
{
color = 6;
glyphname = three.dnom;
lastChange = "2022-02-18 13:14:15 +0000";
layers = (
{
hints = (
{
horizontal = 1;
origin = (0,31);
target = (0,24);
type = Stem;
},
{
horizontal = 1;
origin = (0,10);
target = (0,9);
type = Stem;
},
{
origin = (0,17);
target = (0,5);
type = Stem;
},
{
origin = (0,21);
target = (0,2);
type = Stem;
},
{
origin = (0,12);
target = (0,7);
type = Stem;
},
{
horizontal = 1;
origin = (0,27);
target = down;
type = TopGhost;
}
);
layerId = "D6DAFCCC-80B4-447A-AB8D-F3640E986932";
shapes = (
{
closed = 1;
nodes = (
(352,-8,o),
(423,53,o),
(423,143,cs),
(423,222,o),
(370,266,o),
(282,279,c),
(282,303,l),
(401,405,l),
(401,480,l),
(79,480,l),
(79,409,l),
(296,409,l),
(296,385,l),
(279,375,o),
(259,357,o),
(249,348,cs),
(187,292,l),
(187,228,l),
(208,228,ls),
(286,228,o),
(333,195,o),
(333,141,cs),
(333,98,o),
(303,63,o),
(243,63,cs),
(181,63,o),
(145,100,o),
(140,148,c),
(51,148,l),
(52,71,o),
(112,-8,o),
(241,-8,cs)
);
}
);
width = 480;
},
{
layerId = "2C59C6D3-D4C2-4A05-8DF2-5125000072A2";
shapes = (
{
closed = 1;
nodes = (
(356,-8,o),
(434,50,o),
(434,141,cs),
(434,218,o),
(379,259,o),
(297,268,c),
(297,292,l),
(408,381,l),
(408,480,l),
(64,480,l),
(64,385,l),
(271,385,l),
(271,361,l),
(253,352,o),
(237,339,o),
(220,324,cs),
(169,281,l),
(169,204,l),
(195,204,ls),
(262,204,o),
(308,182,o),
(308,141,cs),
(308,112,o),
(282,87,o),
(234,87,cs),
(187,87,o),
(160,113,o),
(157,148,c),
(35,148,l),
(33,58,o),
(101,-8,o),
(237,-8,cs)
);
}
);
width = 480;
}
);
},
{
color = 6;
glyphname = four.dnom;
lastChange = "2022-02-18 13:14:15 +0000";
layers = (
{
hints = (
{
horizontal = 1;
origin = (0,11);
target = (0,2);
type = Stem;
},
{
origin = (0,11);
target = (0,2);
type = Stem;
},
{
origin = (1,7);
target = (1,0);
type = Stem;
},
{
horizontal = 1;
origin = (0,9);
target = down;
type = TopGhost;
},
{
horizontal = 1;
origin = (1,3);
target = down;
type = TopGhost;
}
);
layerId = "D6DAFCCC-80B4-447A-AB8D-F3640E986932";
shapes = (
{
closed = 1;
nodes = (
(432,113,l),
(432,182,l),
(145,182,l),
(145,206,l),
(165,225,o),
(183,249,o),
(192,261,cs),
(357,474,l),
(357,480,l),
(259,480,l),
(48,193,l),
(48,113,l)
);
},
{
closed = 1;
nodes = (
(362,0,l),
(362,147,l),
(360,147,l),
(360,264,l),
(280,264,l),
(280,148,l),
(278,148,l),
(278,0,l)
);
}
);
width = 480;
},
{
layerId = "2C59C6D3-D4C2-4A05-8DF2-5125000072A2";
shapes = (
{
closed = 1;
nodes = (
(445,102,l),
(445,193,l),
(167,193,l),
(167,217,l),
(187,235,o),
(194,246,o),
(214,271,cs),
(380,476,l),
(380,480,l),
(246,480,l),
(34,199,l),
(34,102,l)
);
},
{
closed = 1;
nodes = (
(380,0,l),
(380,146,l),
(377,146,l),
(377,272,l),
(270,272,l),
(270,148,l),
(266,148,l),
(266,0,l)
);
}
);
width = 480;
}
);
},
{
color = 6;
glyphname = five.dnom;
lastChange = "2022-02-18 13:14:15 +0000";
layers = (
{
hints = (
{
horizontal = 1;
origin = (0,31);
target = (0,24);
type = Stem;
},
{
horizontal = 1;
origin = (0,10);
target = (0,13);
type = Stem;
},
{
origin = (0,21);
target = (0,2);
type = Stem;
},
{
horizontal = 1;
origin = (0,28);
target = down;
type = TopGhost;
},
{
horizontal = 1;
origin = (0,15);
target = up;
type = BottomGhost;
},
{
horizontal = 1;
origin = (0,18);
target = (0,5);
type = Stem;
}
);
layerId = "D6DAFCCC-80B4-447A-AB8D-F3640E986932";
shapes = (
{
closed = 1;
nodes = (
(351,-8,o),
(423,62,o),
(423,164,cs),
(423,260,o),
(365,324,o),
(271,324,cs),
(221,324,o),
(194,306,o),
(177,285,c),
(153,285,l),
(168,406,l),
(390,406,l),
(390,480,l),
(98,480,l),
(67,203,l),
(150,203,l),
(157,221,o),
(182,258,o),
(238,258,cs),
(296,258,o),
(333,222,o),
(333,163,cs),
(333,106,o),
(303,64,o),
(240,64,cs),
(177,64,o),
(149,102,o),
(146,127,c),
(57,127,l),
(62,68,o),
(114,-8,o),
(237,-8,cs)
);
}
);
width = 480;
},
{
layerId = "2C59C6D3-D4C2-4A05-8DF2-5125000072A2";
shapes = (
{
closed = 1;
nodes = (
(361,-7,o),
(438,61,o),
(438,172,cs),
(438,265,o),
(383,331,o),
(283,331,cs),
(241,331,o),
(213,319,o),
(194,297,c),
(170,297,l),
(183,387,l),
(396,387,l),
(396,480,l),
(84,480,l),
(52,203,l),
(171,203,l),
(180,224,o),
(200,248,o),
(239,248,cs),
(284,248,o),
(312,218,o),
(312,169,cs),
(312,120,o),
(285,88,o),
(238,88,cs),
(200,88,o),
(174,108,o),
(169,134,c),
(47,134,l),
(50,77,o),
(96,-7,o),
(236,-7,cs)
);
}
);
width = 480;
}
);
},
{
color = 6;
glyphname = six.dnom;
lastChange = "2022-02-18 13:14:15 +0000";
layers = (
{
hints = (
{
horizontal = 1;
origin = (0,26);
target = (1,11);
type = Stem;
},
{
horizontal = 1;
origin = (1,5);
target = (0,5);
type = Stem;
},
{
origin = (0,23);
target = (1,2);
type = Stem;
},
{
origin = (1,8);
target = (0,2);
type = Stem;
},
{
horizontal = 1;
origin = (0,17);
target = down;
type = TopGhost;
}
);
layerId = "D6DAFCCC-80B4-447A-AB8D-F3640E986932";
shapes = (
{
closed = 1;
nodes = (
(358,-9,o),
(426,64,o),
(426,159,cs),
(426,249,o),
(366,309,o),
(281,309,cs),
(245,309,o),
(221,297,o),
(203,281,c),
(179,281,l),
(194,303,o),
(212,325,o),
(230,346,cs),
(268,389,o),
(305,431,o),
(343,474,c),
(343,480,l),
(238,480,l),
(207,441,o),
(177,402,o),
(146,363,c),
(102,308,o),
(57,242,o),
(57,163,cs),
(57,66,o),
(125,-9,o),
(242,-9,cs)
);
},
{
closed = 1;
nodes = (
(178,59,o),
(144,104,o),
(144,156,cs),
(144,211,o),
(181,251,o),
(243,251,cs),
(301,251,o),
(339,216,o),
(339,155,cs),
(339,96,o),
(303,59,o),
(244,59,cs)
);
}
);
width = 480;
},
{
layerId = "2C59C6D3-D4C2-4A05-8DF2-5125000072A2";
shapes = (
{
closed = 1;
nodes = (
(372,-9,o),
(440,66,o),
(440,163,cs),
(440,261,o),
(372,312,o),
(300,312,cs),
(263,312,o),
(242,299,o),
(230,288,c),
(206,288,l),
(223,309,o),
(239,331,o),
(257,352,cs),
(292,394,o),
(329,433,o),
(365,474,c),
(365,480,l),
(219,480,l),
(188,438,o),
(156,395,o),
(124,354,cs),
(79,297,o),
(46,236,o),
(46,167,cs),
(46,70,o),
(113,-9,o),
(243,-9,cs)
);
},
{
closed = 1;
nodes = (
(190,82,o),
(164,119,o),
(164,160,cs),
(164,205,o),
(196,237,o),
(245,237,cs),
(292,237,o),
(323,209,o),
(323,159,cs),
(323,110,o),
(292,82,o),
(244,82,cs)
);
}
);
width = 480;
}
);
},
{
color = 6;
glyphname = seven.dnom;
lastChange = "2022-02-18 13:14:15 +0000";
layers = (
{
hints = (
{
horizontal = 1;
origin = (0,11);
target = up;
type = BottomGhost;
},
{
horizontal = 1;
origin = (0,4);
target = (0,3);
type = Stem;
},
{
origin = (0,6);
target = (0,1);
type = Stem;
}
);
layerId = "D6DAFCCC-80B4-447A-AB8D-F3640E986932";
shapes = (
{
closed = 1;
nodes = (
(198,0,l),
(420,398,l),
(420,480,l),
(60,480,l),
(60,406,l),
(336,406,l),
(336,382,l),
(313,363,o),
(302,345,o),
(279,307,cs),
(97,6,l),
(97,0,l)
);
}
);
width = 480;
},
{
layerId = "2C59C6D3-D4C2-4A05-8DF2-5125000072A2";
shapes = (
{
closed = 1;
nodes = (
(234,0,l),
(426,377,l),
(426,480,l),
(53,480,l),
(53,382,l),
(314,382,l),
(314,358,l),
(285,338,o),
(270,318,o),
(245,273,cs),
(97,6,l),
(97,0,l)
);
}
);
width = 480;
}
);
},
